<svg xmlns="http://www.w3.org/2000/svg" viewBox="0 0 517.69 40.04"><defs><style>.cls-1{fill:#4f8fcb;fill-rule:evenodd;}.cls-2{fill:#f5ce44;}.cls-3{fill:#eb6654;}.cls-4{fill:#fff;}</style></defs><g id="Capa_2" data-name="Capa 2"><g id="Layer_1" data-name="Layer 1"><polygon class="cls-1" points="0 22.46 13.91 0 13.92 8.6 27.77 17.04 13.97 40.04 13.9 31.53 0 22.46"/><polygon class="cls-2" points="13.21 21.05 19.65 19.55 21.14 26 13.21 21.05"/><polygon class="cls-3" points="6.77 22.54 13.21 21.05 14.7 27.49 6.77 22.54"/><polygon class="cls-3" points="11.72 14.61 18.16 13.11 19.65 19.55 11.72 14.61"/><polygon class="cls-2" points="5.27 16.1 11.72 14.61 13.21 21.05 5.27 16.1"/><path class="cls-4" d="M38,25.45V14h3.86a8.17,8.17,0,0,1,3.68.7,5.22,5.22,0,0,1,2.16,2.06,5.68,5.68,0,0,1,.81,3A5.5,5.5,0,0,1,48.08,22a5.4,5.4,0,0,1-1.26,1.84A5.47,5.47,0,0,1,44.89,25a6.08,6.08,0,0,1-1.19.34,15.73,15.73,0,0,1-2.06.08ZM41.7,15.5h-2V24h2.09a8.47,8.47,0,0,0,1.91-.17,4.46,4.46,0,0,0,1.13-.42,4.28,4.28,0,0,0,.83-.64,4.22,4.22,0,0,0,1.21-3.1,3.9,3.9,0,0,0-1.24-3A4,4,0,0,0,44.54,16a4.25,4.25,0,0,0-1.13-.37A11.36,11.36,0,0,0,41.7,15.5Z"/><path class="cls-4" d="M54.94,14h1.64V25.47H54.94Z"/><path class="cls-4" d="M73.32,22.82v1.8a8.61,8.61,0,0,1-4.16,1,6.29,6.29,0,0,1-3.24-.77,5.58,5.58,0,0,1-2.11-2.12A5.73,5.73,0,0,1,63,19.79a5.55,5.55,0,0,1,1.78-4.19,6.07,6.07,0,0,1,4.39-1.7,10.25,10.25,0,0,1,4,.94V16.6a7.85,7.85,0,0,0-3.92-1.15A4.51,4.51,0,0,0,66,16.69a4.1,4.1,0,0,0-1.3,3.1A4.09,4.09,0,0,0,66,22.89a4.58,4.58,0,0,0,3.26,1.21A7.41,7.41,0,0,0,73.32,22.82Z"/><path class="cls-4" d="M89.53,22.82v1.8a8.57,8.57,0,0,1-4.15,1,6.33,6.33,0,0,1-3.25-.77A5.65,5.65,0,0,1,80,22.71a5.73,5.73,0,0,1-.78-2.92A5.58,5.58,0,0,1,81,15.6a6.09,6.09,0,0,1,4.39-1.7,10.25,10.25,0,0,1,4,.94V16.6a7.79,7.79,0,0,0-3.92-1.15,4.54,4.54,0,0,0-3.26,1.24,4.13,4.13,0,0,0-1.29,3.1,4.09,4.09,0,0,0,1.27,3.1,4.59,4.59,0,0,0,3.27,1.21A7.4,7.4,0,0,0,89.53,22.82Z"/><path class="cls-4" d="M95.92,14h1.64V25.47H95.92Z"/><path class="cls-4" d="M110.05,13.88a6.12,6.12,0,0,1,4.41,1.68,5.54,5.54,0,0,1,1.77,4.2A5.51,5.51,0,0,1,114.45,24,6.35,6.35,0,0,1,110,25.6a6,6,0,0,1-4.3-1.65,5.53,5.53,0,0,1-1.72-4.16,5.65,5.65,0,0,1,1.73-4.23A6.05,6.05,0,0,1,110.05,13.88Zm.07,1.55a4.41,4.41,0,0,0-3.22,1.23,4.15,4.15,0,0,0-1.27,3.13,4.09,4.09,0,0,0,1.27,3.08,4.68,4.68,0,0,0,6.36,0,4.18,4.18,0,0,0,1.28-3.11,4.11,4.11,0,0,0-1.28-3.06A4.36,4.36,0,0,0,110.12,15.43Z"/><path class="cls-4" d="M131.67,14h1.56V25.47h-1.41l-7.64-8.8v8.8h-1.54V14H124l7.7,8.88Z"/><path class="cls-4" d="M143.68,14h1.15L150,25.47h-1.67l-1.53-3.39h-4.87l-1.43,3.39h-1.68Zm2.4,6.65-1.84-4.14-1.71,4.14Z"/><path class="cls-4" d="M155.61,25.47V14h2.86a4.13,4.13,0,0,1,2.75.86,2.88,2.88,0,0,1,1,2.33,3,3,0,0,1-.5,1.72A2.94,2.94,0,0,1,160.31,20a5.07,5.07,0,0,1,1.07,1,20,20,0,0,1,1.47,2.17c.4.65.72,1.14,1,1.46l.61.82h-1.95l-.5-.75a.63.63,0,0,0-.1-.14l-.31-.45-.51-.84-.55-.89a9.32,9.32,0,0,0-.93-1.12,3.28,3.28,0,0,0-.76-.6,2.63,2.63,0,0,0-1.14-.18h-.43v5Zm2.12-10h-.49V19h.62a4.7,4.7,0,0,0,1.71-.21,1.6,1.6,0,0,0,.72-.64,1.91,1.91,0,0,0,.26-1,1.76,1.76,0,0,0-.29-1,1.55,1.55,0,0,0-.8-.62A5.85,5.85,0,0,0,157.73,15.43Z"/><path class="cls-4" d="M170.05,14h1.64V25.47h-1.64Z"/><path class="cls-4" d="M184.18,13.88a6.12,6.12,0,0,1,4.41,1.68,5.54,5.54,0,0,1,1.77,4.2A5.51,5.51,0,0,1,188.58,24a6.35,6.35,0,0,1-4.49,1.65,6,6,0,0,1-4.3-1.65,5.53,5.53,0,0,1-1.72-4.16,5.65,5.65,0,0,1,1.73-4.23A6.05,6.05,0,0,1,184.18,13.88Zm.07,1.55A4.45,4.45,0,0,0,181,16.66a4.18,4.18,0,0,0-1.26,3.13A4.09,4.09,0,0,0,181,22.87a4.68,4.68,0,0,0,6.36,0,4.18,4.18,0,0,0,1.28-3.11,4.11,4.11,0,0,0-1.28-3.06A4.36,4.36,0,0,0,184.25,15.43Z"/><path class="cls-4" d="M211.91,19.84h3.84v4.85a10.49,10.49,0,0,1-4.19.91A6.24,6.24,0,0,1,207,24a5.51,5.51,0,0,1-1.7-4.09,5.68,5.68,0,0,1,1.76-4.26,6.09,6.09,0,0,1,4.41-1.7,8.21,8.21,0,0,1,1.83.2,15.59,15.59,0,0,1,2.2.77v1.67a8.08,8.08,0,0,0-4.06-1.19,4.32,4.32,0,0,0-3.16,1.28A4.25,4.25,0,0,0,207,19.76a4.23,4.23,0,0,0,1.28,3.18,4.56,4.56,0,0,0,3.31,1.24,7.68,7.68,0,0,0,2.34-.45l.16-.05V21.3h-2.2Z"/><path class="cls-4" d="M222.49,14H229V15.5h-4.84V19h4.67v1.47h-4.67V24h5v1.45h-6.63Z"/><path class="cls-4" d="M240.83,13.88a6.14,6.14,0,0,1,4.41,1.68,5.56,5.56,0,0,1,1.76,4.2A5.47,5.47,0,0,1,245.22,24a6.32,6.32,0,0,1-4.48,1.65,6,6,0,0,1-4.3-1.65,5.54,5.54,0,0,1-1.73-4.16,5.62,5.62,0,0,1,1.74-4.23A6,6,0,0,1,240.83,13.88Zm.07,1.55a4.44,4.44,0,0,0-3.23,1.23,4.18,4.18,0,0,0-1.26,3.13,4.12,4.12,0,0,0,1.26,3.08,4.7,4.7,0,0,0,6.37,0,4.18,4.18,0,0,0,1.28-3.11A4.11,4.11,0,0,0,244,16.67,4.38,4.38,0,0,0,240.9,15.43Z"/><path class="cls-4" d="M259.54,19.84h3.84v4.85a10.46,10.46,0,0,1-4.19.91A6.22,6.22,0,0,1,254.66,24a5.51,5.51,0,0,1-1.7-4.09,5.68,5.68,0,0,1,1.76-4.26,6.06,6.06,0,0,1,4.41-1.7,8.34,8.34,0,0,1,1.83.2,15.11,15.11,0,0,1,2.19.77v1.67a8,8,0,0,0-4-1.19,4.31,4.31,0,0,0-3.16,1.28,4.22,4.22,0,0,0-1.29,3.13,4.2,4.2,0,0,0,1.29,3.18,4.54,4.54,0,0,0,3.3,1.24,7.68,7.68,0,0,0,2.35-.45l.16-.05V21.3h-2.21Z"/><path class="cls-4" d="M270.17,25.47V14H273a4.15,4.15,0,0,1,2.75.86,2.88,2.88,0,0,1,1,2.33,3,3,0,0,1-.5,1.72A2.94,2.94,0,0,1,274.88,20,5.32,5.32,0,0,1,276,21a20,20,0,0,1,1.47,2.17c.4.65.72,1.14,1,1.46l.6.82H277l-.5-.75-.1-.14-.32-.45-.5-.84-.55-.89a9.32,9.32,0,0,0-.93-1.12,3.28,3.28,0,0,0-.76-.6,2.63,2.63,0,0,0-1.14-.18h-.43v5Zm2.13-10h-.49V19h.62a4.7,4.7,0,0,0,1.71-.21,1.6,1.6,0,0,0,.72-.64,1.91,1.91,0,0,0,.26-1,1.76,1.76,0,0,0-.29-1,1.54,1.54,0,0,0-.81-.62A5.77,5.77,0,0,0,272.3,15.43Z"/><path class="cls-4" d="M288.25,14h1.15l5.12,11.49h-1.67l-1.53-3.39h-4.87L285,25.47h-1.68Zm2.4,6.65-1.84-4.14-1.71,4.14Zm.13-9.88-1.85,2.45H288l1.11-2.45Z"/><path class="cls-4" d="M300.15,14h6.09V15.5h-4.46v3.19h4.46v1.46h-4.46v5.32h-1.63Z"/><path class="cls-4" d="M312.36,14H314V25.47h-1.64Z"/><path class="cls-4" d="M330.74,22.82v1.8a8.61,8.61,0,0,1-4.16,1,6.29,6.29,0,0,1-3.24-.77,5.58,5.58,0,0,1-2.11-2.12,5.73,5.73,0,0,1-.78-2.92,5.55,5.55,0,0,1,1.78-4.19,6.07,6.07,0,0,1,4.39-1.7,10.25,10.25,0,0,1,4,.94V16.6a7.85,7.85,0,0,0-3.92-1.15,4.51,4.51,0,0,0-3.26,1.24,4.1,4.1,0,0,0-1.3,3.1,4.09,4.09,0,0,0,1.28,3.1,4.58,4.58,0,0,0,3.26,1.21A7.41,7.41,0,0,0,330.74,22.82Z"/><path class="cls-4" d="M342.71,13.88a6.12,6.12,0,0,1,4.41,1.68,5.54,5.54,0,0,1,1.77,4.2A5.51,5.51,0,0,1,347.11,24a6.35,6.35,0,0,1-4.49,1.65,6,6,0,0,1-4.3-1.65,5.53,5.53,0,0,1-1.72-4.16,5.65,5.65,0,0,1,1.73-4.23A6.05,6.05,0,0,1,342.71,13.88Zm.07,1.55a4.41,4.41,0,0,0-3.22,1.23,4.15,4.15,0,0,0-1.27,3.13,4.09,4.09,0,0,0,1.27,3.08,4.68,4.68,0,0,0,6.36,0,4.18,4.18,0,0,0,1.28-3.11,4.11,4.11,0,0,0-1.28-3.06A4.36,4.36,0,0,0,342.78,15.43Z"/><path class="cls-4" d="M364.28,25.45V14h3.85a8.19,8.19,0,0,1,3.69.7A5.22,5.22,0,0,1,374,16.8a5.67,5.67,0,0,1,.8,3,5.49,5.49,0,0,1-.44,2.19,5.4,5.4,0,0,1-1.26,1.84A5.51,5.51,0,0,1,371.14,25a5.82,5.82,0,0,1-1.18.34,15.73,15.73,0,0,1-2.06.08ZM368,15.5h-2V24H368a8.53,8.53,0,0,0,1.91-.17,4.46,4.46,0,0,0,1.13-.42,4.28,4.28,0,0,0,.83-.64,4.22,4.22,0,0,0,1.21-3.1,3.94,3.94,0,0,0-1.24-3,3.86,3.86,0,0,0-1.06-.71,4.19,4.19,0,0,0-1.12-.37A11.36,11.36,0,0,0,368,15.5Z"/><path class="cls-4" d="M381.18,14h6.48V15.5h-4.84V19h4.68v1.47h-4.68V24h5v1.45h-6.64Z"/><path class="cls-4" d="M412.77,22.82v1.8a8.57,8.57,0,0,1-4.15,1,6.33,6.33,0,0,1-3.25-.77,5.65,5.65,0,0,1-2.11-2.12,5.73,5.73,0,0,1-.78-2.92,5.58,5.58,0,0,1,1.78-4.19,6.09,6.09,0,0,1,4.39-1.7,10.25,10.25,0,0,1,4,.94V16.6a7.79,7.79,0,0,0-3.92-1.15,4.52,4.52,0,0,0-3.26,1.24,4.13,4.13,0,0,0-1.29,3.1,4.09,4.09,0,0,0,1.27,3.1,4.59,4.59,0,0,0,3.27,1.21A7.4,7.4,0,0,0,412.77,22.82Z"/><path class="cls-4" d="M424.75,13.88a6.14,6.14,0,0,1,4.41,1.68,5.56,5.56,0,0,1,1.76,4.2A5.47,5.47,0,0,1,429.14,24a6.32,6.32,0,0,1-4.48,1.65,6,6,0,0,1-4.3-1.65,5.54,5.54,0,0,1-1.73-4.16,5.62,5.62,0,0,1,1.74-4.23A6,6,0,0,1,424.75,13.88Zm.06,1.55a4.43,4.43,0,0,0-3.22,1.23,4.18,4.18,0,0,0-1.26,3.13,4.12,4.12,0,0,0,1.26,3.08,4.7,4.7,0,0,0,6.37,0,4.18,4.18,0,0,0,1.28-3.11A4.11,4.11,0,0,0,428,16.67,4.39,4.39,0,0,0,424.81,15.43Z"/><path class="cls-4" d="M437.29,14h1.63V24h5.15v1.49h-6.78Z"/><path class="cls-4" d="M455.47,13.88a6.16,6.16,0,0,1,4.41,1.68,5.56,5.56,0,0,1,1.76,4.2A5.51,5.51,0,0,1,459.86,24a6.34,6.34,0,0,1-4.48,1.65A6,6,0,0,1,451.07,24a5.53,5.53,0,0,1-1.72-4.16,5.65,5.65,0,0,1,1.73-4.23A6.06,6.06,0,0,1,455.47,13.88Zm.06,1.55a4.41,4.41,0,0,0-3.22,1.23A4.15,4.15,0,0,0,451,19.79a4.12,4.12,0,0,0,1.27,3.08,4.68,4.68,0,0,0,6.36,0A4.14,4.14,0,0,0,460,19.73a4.08,4.08,0,0,0-1.28-3.06A4.36,4.36,0,0,0,455.53,15.43Z"/><path class="cls-4" d="M477.09,14h1.53V25.47H477V16.58L473.46,21h-.3l-3.55-4.42v8.89H468V14h1.55l3.8,4.7Z"/><path class="cls-4" d="M489.31,25.47h-3.87V14h3a5.26,5.26,0,0,1,2.21.38A2.75,2.75,0,0,1,492.27,17a2.5,2.5,0,0,1-1.74,2.42,3.48,3.48,0,0,1,2,1,2.69,2.69,0,0,1,.74,1.89,2.8,2.8,0,0,1-.45,1.57A3.27,3.27,0,0,1,491.49,25,4.87,4.87,0,0,1,489.31,25.47Zm-.83-10h-1.4v3.43h1.08a2.8,2.8,0,0,0,1.87-.49,1.71,1.71,0,0,0,.55-1.3C490.58,16.05,489.88,15.5,488.48,15.5Zm.13,4.89h-1.53V24h1.61a5.31,5.31,0,0,0,1.82-.2,1.8,1.8,0,0,0,.77-.65,1.76,1.76,0,0,0,.29-.95,1.66,1.66,0,0,0-.31-1,1.83,1.83,0,0,0-.87-.65A5.52,5.52,0,0,0,488.61,20.39Z"/><path class="cls-4" d="M499.24,14h1.64V25.47h-1.64Z"/><path class="cls-4" d="M511.42,14h1.15l5.12,11.49H516l-1.52-3.39h-4.88l-1.43,3.39h-1.68Zm2.4,6.65L512,16.49l-1.71,4.14Z"/></g></g></svg>