<svg xmlns="http://www.w3.org/2000/svg" viewBox="0 0 247.52 40.04"><defs><style>.cls-1{fill:#fff;}.cls-2{fill:#4f8fcb;fill-rule:evenodd;}.cls-3{fill:#f5ce44;}.cls-4{fill:#eb6654;}</style></defs><g id="Capa_2" data-name="Capa 2"><g id="Layer_1" data-name="Layer 1"><path class="cls-1" d="M38.54,25.45V14h3.85a8.24,8.24,0,0,1,3.69.7,5.34,5.34,0,0,1,2.16,2.06,5.77,5.77,0,0,1,.8,3,5.59,5.59,0,0,1-1.7,4A5.51,5.51,0,0,1,45.4,25a5.9,5.9,0,0,1-1.19.34,15.63,15.63,0,0,1-2.06.08Zm3.68-9.95h-2V24h2.1a8.43,8.43,0,0,0,1.9-.17,4.54,4.54,0,0,0,1.14-.42,4.13,4.13,0,0,0,2-3.74,3.91,3.91,0,0,0-1.25-3A3.67,3.67,0,0,0,45.05,16a4.19,4.19,0,0,0-1.12-.37A11.54,11.54,0,0,0,42.22,15.5Z"/><path class="cls-1" d="M55.46,14h1.63V25.47H55.46Z"/><path class="cls-1" d="M73.83,22.82v1.8a8.57,8.57,0,0,1-4.15,1,6.33,6.33,0,0,1-3.25-.77,5.65,5.65,0,0,1-2.11-2.12,5.73,5.73,0,0,1-.78-2.92,5.58,5.58,0,0,1,1.78-4.19,6.09,6.09,0,0,1,4.39-1.7,10.25,10.25,0,0,1,4,.94V16.6a7.82,7.82,0,0,0-3.92-1.15,4.52,4.52,0,0,0-3.26,1.24,4.13,4.13,0,0,0-1.29,3.1,4.09,4.09,0,0,0,1.27,3.1,4.59,4.59,0,0,0,3.27,1.21A7.4,7.4,0,0,0,73.83,22.82Z"/><path class="cls-1" d="M90.05,22.82v1.8a8.61,8.61,0,0,1-4.16,1,6.32,6.32,0,0,1-3.24-.77,5.58,5.58,0,0,1-2.11-2.12,5.73,5.73,0,0,1-.78-2.92,5.55,5.55,0,0,1,1.78-4.19,6.07,6.07,0,0,1,4.39-1.7,10.25,10.25,0,0,1,4,.94V16.6A7.85,7.85,0,0,0,86,15.45a4.51,4.51,0,0,0-3.26,1.24,4.1,4.1,0,0,0-1.3,3.1,4.09,4.09,0,0,0,1.28,3.1A4.58,4.58,0,0,0,86,24.1,7.41,7.41,0,0,0,90.05,22.82Z"/><path class="cls-1" d="M96.43,14h1.64V25.47H96.43Z"/><path class="cls-1" d="M110.57,13.88A6.16,6.16,0,0,1,115,15.56a5.56,5.56,0,0,1,1.76,4.2A5.47,5.47,0,0,1,115,24a6.32,6.32,0,0,1-4.48,1.65A6,6,0,0,1,106.17,24a5.57,5.57,0,0,1-1.72-4.16,5.62,5.62,0,0,1,1.74-4.23A6,6,0,0,1,110.57,13.88Zm.06,1.55a4.43,4.43,0,0,0-3.22,1.23,4.18,4.18,0,0,0-1.26,3.13,4.12,4.12,0,0,0,1.26,3.08,4.7,4.7,0,0,0,6.37,0,4.18,4.18,0,0,0,1.28-3.11,4.11,4.11,0,0,0-1.28-3.06A4.39,4.39,0,0,0,110.63,15.43Z"/><path class="cls-1" d="M132.19,14h1.55V25.47h-1.41l-7.64-8.8v8.8h-1.53V14h1.32l7.71,8.88Z"/><path class="cls-1" d="M144.19,14h1.15l5.13,11.49h-1.68l-1.52-3.39h-4.88L141,25.47h-1.68Zm2.41,6.65-1.85-4.14L143,20.63Z"/><path class="cls-1" d="M156.12,25.47V14H159a4.16,4.16,0,0,1,2.76.86,2.88,2.88,0,0,1,1,2.33A2.87,2.87,0,0,1,160.83,20a5.32,5.32,0,0,1,1.07,1,20,20,0,0,1,1.47,2.17c.4.65.72,1.14,1,1.46l.6.82h-2l-.49-.75-.1-.14-.32-.45-.51-.84L161,22.4a9.32,9.32,0,0,0-.93-1.12,3.51,3.51,0,0,0-.76-.6,2.65,2.65,0,0,0-1.15-.18h-.42v5Zm2.13-10h-.49V19h.62a4.6,4.6,0,0,0,1.7-.21,1.6,1.6,0,0,0,.72-.64,1.82,1.82,0,0,0,.26-1,1.75,1.75,0,0,0-.28-1,1.54,1.54,0,0,0-.81-.62A5.82,5.82,0,0,0,158.25,15.43Z"/><path class="cls-1" d="M170.56,14h1.64V25.47h-1.64Z"/><path class="cls-1" d="M184.7,13.88a6.16,6.16,0,0,1,4.41,1.68,5.56,5.56,0,0,1,1.76,4.2A5.47,5.47,0,0,1,189.09,24a6.32,6.32,0,0,1-4.48,1.65A6,6,0,0,1,180.3,24a5.57,5.57,0,0,1-1.72-4.16,5.62,5.62,0,0,1,1.74-4.23A6,6,0,0,1,184.7,13.88Zm.06,1.55a4.43,4.43,0,0,0-3.22,1.23,4.18,4.18,0,0,0-1.26,3.13,4.12,4.12,0,0,0,1.26,3.08,4.7,4.7,0,0,0,6.37,0,4.18,4.18,0,0,0,1.28-3.11,4.11,4.11,0,0,0-1.28-3.06A4.39,4.39,0,0,0,184.76,15.43Z"/><path class="cls-1" d="M212.42,19.84h3.84v4.85a10.46,10.46,0,0,1-4.19.91A6.22,6.22,0,0,1,207.54,24a5.47,5.47,0,0,1-1.7-4.09,5.68,5.68,0,0,1,1.76-4.26A6.06,6.06,0,0,1,212,13.9a8.34,8.34,0,0,1,1.83.2,15.11,15.11,0,0,1,2.19.77v1.67A8,8,0,0,0,212,15.35a4.3,4.3,0,0,0-3.15,1.28,4.22,4.22,0,0,0-1.29,3.13,4.2,4.2,0,0,0,1.29,3.18,4.52,4.52,0,0,0,3.3,1.24,7.68,7.68,0,0,0,2.35-.45l.15-.05V21.3h-2.2Z"/><path class="cls-1" d="M223,14h6.48V15.5h-4.84V19h4.68v1.47h-4.68V24h5v1.45H223Z"/><path class="cls-1" d="M241.34,13.88a6.12,6.12,0,0,1,4.41,1.68,5.54,5.54,0,0,1,1.77,4.2A5.51,5.51,0,0,1,245.74,24a6.35,6.35,0,0,1-4.49,1.65A6,6,0,0,1,237,24a5.53,5.53,0,0,1-1.72-4.16A5.65,5.65,0,0,1,237,15.56,6.05,6.05,0,0,1,241.34,13.88Zm.07,1.55a4.41,4.41,0,0,0-3.22,1.23,4.15,4.15,0,0,0-1.27,3.13,4.12,4.12,0,0,0,1.27,3.08,4.68,4.68,0,0,0,6.36,0,4.18,4.18,0,0,0,1.28-3.11,4.11,4.11,0,0,0-1.28-3.06A4.36,4.36,0,0,0,241.41,15.43Z"/><polygon class="cls-2" points="0 22.46 13.91 0 13.92 8.6 27.77 17.04 13.97 40.04 13.9 31.53 0 22.46"/><polygon class="cls-3" points="13.21 21.05 19.65 19.55 21.14 26 13.21 21.05"/><polygon class="cls-4" points="6.77 22.54 13.21 21.05 14.7 27.49 6.77 22.54"/><polygon class="cls-4" points="11.72 14.61 18.16 13.11 19.65 19.55 11.72 14.61"/><polygon class="cls-3" points="5.27 16.1 11.72 14.61 13.21 21.05 5.27 16.1"/></g></g></svg>