<svg xmlns="http://www.w3.org/2000/svg" viewBox="0 0 32 32"><defs><style>.cls-1{fill:#57bd8d;}.cls-2{fill:#5045b3;}</style></defs><g id="Capa_2" data-name="Capa 2"><g id="Arte"><circle class="cls-1" cx="16" cy="16" r="16"/><path class="cls-2" d="M20.88,22.45h-9.6V22.2c.37-.36.77-.79,1.22-1.28l1.71-2c.32-.37.63-.74.91-1.1a8.88,8.88,0,0,0,.72-1,6,6,0,0,0,.51-1.12,3.77,3.77,0,0,0,.21-1.25,2,2,0,0,0-.5-1.41,1.71,1.71,0,0,0-1.29-.55,4.34,4.34,0,0,0-3.08,1.61v-3l.88-.56a8.42,8.42,0,0,1,.8-.41,5.87,5.87,0,0,1,1.07-.34,5.67,5.67,0,0,1,1.34-.15,4.69,4.69,0,0,1,2.1.47,3.52,3.52,0,0,1,1.5,1.36,3.89,3.89,0,0,1,.54,2.07,4.74,4.74,0,0,1-.25,1.57,5.84,5.84,0,0,1-.51,1.18c-.18.29-.41.66-.7,1.1a23.07,23.07,0,0,1-1.68,2.22h4.1Z"/></g></g></svg>