<svg xmlns="http://www.w3.org/2000/svg" viewBox="0 0 32 32"><defs><style>.cls-1{fill:#5045b3;}.cls-2{fill:#f4a833;}</style></defs><g id="Capa_2" data-name="Capa 2"><g id="Arte"><circle class="cls-1" cx="16" cy="16" r="16"/><path class="cls-2" d="M19.68,18.74a3.29,3.29,0,0,1-1.42,2.84,4.59,4.59,0,0,1-1.37.63,4.92,4.92,0,0,1-1.39.2,9.46,9.46,0,0,1-2.12-.27,9.79,9.79,0,0,1-1.94-.64V18.66a6.76,6.76,0,0,0,1.38.89,3.43,3.43,0,0,0,1.52.36,2,2,0,0,0,1-.22,1.56,1.56,0,0,0,.61-.55,1.26,1.26,0,0,0,.2-.7,1.47,1.47,0,0,0-.25-.86,1.79,1.79,0,0,0-.74-.6A2.6,2.6,0,0,0,14,16.76h-.41v-2h.48a2.1,2.1,0,0,0,1.06-.25,1.52,1.52,0,0,0,.59-.59,1.3,1.3,0,0,0-.26-1.66,1.54,1.54,0,0,0-1.14-.44,3.91,3.91,0,0,0-1.31.24,5.41,5.41,0,0,0-1.27.64V10.24a15.56,15.56,0,0,1,1.68-.59,6.93,6.93,0,0,1,1.77-.21,4.74,4.74,0,0,1,2.4.55A3.65,3.65,0,0,1,19,11.34a3,3,0,0,1,.44,1.48A2.87,2.87,0,0,1,19.23,14a3.59,3.59,0,0,1-.65,1,3.24,3.24,0,0,1-.82.69,4.54,4.54,0,0,1,1.34,1.11A3,3,0,0,1,19.68,18.74Z"/></g></g></svg>