<svg xmlns="http://www.w3.org/2000/svg" xmlns:xlink="http://www.w3.org/1999/xlink" viewBox="0 0 1707.23 1080.31"><defs><style>.cls-1{fill:none;}.cls-2{fill:#a09f9f;}.cls-3{fill:#fdf6e6;}.cls-4{fill:#424241;}.cls-5{fill:#5b578a;}.cls-13,.cls-6{fill:#bfbfbf;}.cls-7{fill:#efefef;}.cls-8{fill:#1d323a;}.cls-9{fill:#6b6a6a;}.cls-10{fill:#606060;}.cls-11{fill:#e0e0e0;}.cls-12{clip-path:url(#clip-path);}.cls-13{fill-rule:evenodd;}</style><clipPath id="clip-path"><path class="cls-1" d="M1299.59,729.19c199.73,0,366,143.43,401.33,332.91H898.25C933.63,872.62,1099.85,729.19,1299.59,729.19Z"/></clipPath></defs><g id="Capa_2" data-name="Capa 2"><g id="Arte"><path class="cls-2" d="M30.79,1058.59h1363.6s158.35-44.64,85.74-249.06-210.73-116.23-170.82-295c52.63-235.73-170.23-396-415.24-330.75S612.89,321.64,325,248.56C127,198.3,31.22,294.35,0,409.74"/><path class="cls-2" d="M101.84,409.74C77.72,498.9,92.11,599.61,127.6,653.28,209,776.41-94.63,794.16,30.79,1058.59"/><path class="cls-3" d="M983.68,241c0-114.57-92.88-207.44-207.44-207.44S568.8,126.43,568.8,241s92.88,207.43,207.44,207.43S983.68,355.56,983.68,241"/><polygon class="cls-2" points="780.07 0 766.91 97.21 793.24 97.21 780.07 0"/><path class="cls-4" d="M798.82,95.81a18.89,18.89,0,0,0-37.78,0l.27,38.27H799.1Z"/><path class="cls-4" d="M822.48,168.21a42.72,42.72,0,0,0-85.43,0l.61,86.54H823.1Z"/><rect class="cls-5" x="759.44" y="125.5" width="41.27" height="9.08"/><rect class="cls-4" x="736.94" y="201.95" width="86.26" height="129.03"/><rect class="cls-6" x="628.74" y="420.72" width="302.67" height="312.83"/><polygon class="cls-7" points="674.19 383.93 674.19 331.88 721.34 331.88 721.34 279.85 837.4 279.85 837.4 331.88 887.4 331.88 887.4 383.93 909.81 383.93 909.81 449.44 650.33 449.44 650.33 383.93 674.19 383.93"/><rect class="cls-8" x="596.8" y="449.44" width="366.54" height="24.11"/><path class="cls-2" d="M809.49,351.43c0-16.25-29.42-29.42-29.42-29.42s-29.41,13.17-29.41,29.42v98h58.83Z"/><rect class="cls-7" x="733.41" y="191.68" width="93.32" height="20.55"/><rect class="cls-7" x="746.42" y="119.77" width="67.3" height="20.55"/><path class="cls-2" d="M642.89,214.42h9.94V172.94a40.55,40.55,0,0,0-37.31-40.37c-1-.09-29.64-.13-30.71-.13v9.94c1.39,0,30.28.09,31.63.28a30.6,30.6,0,0,1,26.45,30.28Z"/><rect class="cls-2" x="642.89" y="113.6" width="9.94" height="333.34"/><path class="cls-2" d="M633.17,269.36a45.76,45.76,0,0,0-33.3-8.17l51.64,37.14a45.76,45.76,0,0,0-18.34-29"/><path class="cls-2" d="M665.76,350.34a45.84,45.84,0,0,1,33.3-8.17l-51.65,37.14a45.85,45.85,0,0,1,18.35-29"/><path class="cls-2" d="M665.85,184.42a45.8,45.8,0,0,0-14.94,30.86L698,172.52a45.82,45.82,0,0,0-32.16,11.9"/><path class="cls-2" d="M567.62,160.51a23.13,23.13,0,0,0,0-46.25H539.3l-8.61-5.75v19.16l-9.85,9.85,9.09,9.1v20.75l10.2-6.11Z"/><path class="cls-2" d="M624.21,97a23.13,23.13,0,0,0,46.25,0V68.63l5.75-8.6H657.05l-9.85-9.86-9.1,9.09H617.35l6.11,10.2Z"/><path class="cls-3" d="M512.5,142.1a4.15,4.15,0,1,0-2.53-5.29,4.15,4.15,0,0,0,2.53,5.29"/><path class="cls-3" d="M518.25,123.75a4.15,4.15,0,1,0-2.53-5.29,4.15,4.15,0,0,0,2.53,5.29"/><path class="cls-3" d="M518.25,157.84a4.15,4.15,0,1,0-2.53-5.29,4.15,4.15,0,0,0,2.53,5.29"/><path class="cls-2" d="M649.91,316.08V326H608.43a40.56,40.56,0,0,1-40.38-37.31c-.08-1-.12-29.64-.12-30.71h9.93c0,1.39.1,30.29.28,31.63a30.6,30.6,0,0,0,30.29,26.45Z"/><path class="cls-2" d="M596,240.81a23.12,23.12,0,0,1-46.24,0V212.49l-5.75-8.6h19.16L573,194l9.09,9.09h20.76l-6.11,10.21Z"/><path class="cls-3" d="M577.58,185.69a4.15,4.15,0,1,1-5.29-2.53,4.15,4.15,0,0,1,5.29,2.53"/><path class="cls-3" d="M559.23,191.44a4.15,4.15,0,1,1-5.29-2.53,4.15,4.15,0,0,1,5.29,2.53"/><path class="cls-3" d="M593.32,191.44a4.14,4.14,0,1,1-5.29-2.53,4.14,4.14,0,0,1,5.29,2.53"/><path class="cls-3" d="M643.3,37.82a4.15,4.15,0,1,0,5.29-2.53,4.15,4.15,0,0,0-5.29,2.53"/><path class="cls-3" d="M661.65,43.57A4.15,4.15,0,1,0,666.94,41a4.15,4.15,0,0,0-5.29,2.53"/><path class="cls-3" d="M627.56,43.57A4.15,4.15,0,1,0,632.85,41a4.14,4.14,0,0,0-5.29,2.53"/><rect class="cls-2" y="403.46" width="1305.31" height="658.64" transform="translate(1305.31 1465.55) rotate(-180)"/><rect class="cls-6" y="403.46" width="400.11" height="658.64" transform="translate(400.11 1465.55) rotate(-180)"/><rect class="cls-6" x="905.2" y="661.38" width="400.11" height="400.11" transform="translate(2210.51 1722.87) rotate(-180)"/><rect class="cls-9" x="653.17" y="769.35" width="252.04" height="292.88"/><rect class="cls-7" x="653.17" y="403.46" width="252.04" height="367.46"/><path class="cls-7" d="M200.05,462.58a173.9,173.9,0,0,0,0,347.79"/><path class="cls-2" d="M200.05,810.37a173.9,173.9,0,1,0,0-347.79"/><polygon class="cls-10" points="200.05 636.47 0 933.06 400.11 933.06 200.05 636.47"/><path class="cls-4" d="M175.54,638.36H11.29s1.22-19.87,31.63-19.87c0,0,7.71-24.74,38.94-24.74,14.65,0,23.92,2.43,35.28,12.16C117.14,605.91,175.54,598.93,175.54,638.36Z"/><path class="cls-9" d="M200.05,636.47s39.74,106.85,7.17,139.42c-47.95,48-90.87,9.58-105.79,67.37s-77.6,54.44-77.6,54.44Z"/><rect class="cls-11" y="933.06" width="382.79" height="129.03" transform="translate(382.79 1995.16) rotate(-180)"/><path class="cls-10" d="M1293,740.91c192.71,0,353.07,138.38,387.21,321.19H905.75C939.88,879.29,1100.25,740.91,1293,740.91Z"/><g class="cls-12"><path class="cls-11" d="M1694.64,944.26H1038.19c-16.35.22-29.55,14.14-29.55,31.27s13.4,31.28,29.94,31.28h76.75l0,.05c19.41,0,35.15,16.44,35.15,36.72s-15.74,36.73-35.15,36.73H931.72l775.51-1.2S1693.89,945.05,1694.64,944.26Z"/><path class="cls-2" d="M911.44,788.54h286.7c12.1.16,21.86,10.46,21.86,23.14s-9.92,23.14-22.15,23.14h-56.79l0,0c-14.36,0-26,12.17-26,27.18s11.64,27.17,26,27.17H1620l-27.2,28.41H902.13S912,789.12,911.44,788.54Z"/></g><rect class="cls-6" x="905.2" y="403.46" width="400.11" height="257.93" transform="translate(2210.51 1064.84) rotate(-180)"/><rect class="cls-10" x="1159.2" y="403.46" width="146.11" height="259.33" transform="translate(2464.51 1066.24) rotate(-180)"/><path class="cls-10" d="M1063.3,485.74a2.42,2.42,0,0,0,2.42-2.42V435.81a2.42,2.42,0,1,0-4.84,0v47.51A2.42,2.42,0,0,0,1063.3,485.74Z"/><rect class="cls-10" x="905.75" y="403.46" width="144.28" height="259.33" transform="translate(1955.78 1066.24) rotate(-180)"/><path class="cls-3" d="M959.78,631c37.69-.65,43.54,0,43.54,0s15.59-33.14,56.53-32.49,45.49,20.14,45.49,20.14,4.55-19.49,45.48-20.14S1207.36,631,1207.36,631s5.84-.65,43.53,0c28,.48,46.67,21.16,54.42,31.76H905.36C913.11,652.18,931.78,631.5,959.78,631Z"/><path class="cls-10" d="M1131.2,570.1a2.42,2.42,0,0,0,2.42-2.42V486.33a2.42,2.42,0,1,0-4.84,0v81.35A2.42,2.42,0,0,0,1131.2,570.1Z"/><path class="cls-10" d="M1138.13,450a2.42,2.42,0,0,0,2.42-2.42V431a2.42,2.42,0,1,0-4.84,0v16.61A2.42,2.42,0,0,0,1138.13,450Z"/><path class="cls-10" d="M1102.13,523.72a2.41,2.41,0,0,0,2.42-2.41V488.08a2.42,2.42,0,1,0-4.84,0v33.23A2.42,2.42,0,0,0,1102.13,523.72Z"/><path class="cls-10" d="M1104.62,465a2.42,2.42,0,0,0,2.41-2.42V415.94a2.42,2.42,0,1,0-4.83,0v46.64A2.42,2.42,0,0,0,1104.62,465Z"/><path class="cls-2" d="M1071,602.7c-11.3-18.69-11.38,31.19-11.38,31.19s-13.61-64.34,9.81-108.81l7.11,77.17Z"/><path class="cls-2" d="M1083.57,602.7c11.3-18.69,11.38,31.19,11.38,31.19s16.12-65-7.3-109.48L1078,602.25Z"/><path class="cls-10" d="M1072.71,599.12c-8.6,15.35-2.86,38.43-2.86,38.43s5.22-12.91,7.85-15.81c0,0,6,8.68,8,15.81,0,0,4.5-22-3.39-38.43Z"/><path class="cls-10" d="M1077.51,610.21s-32.27-61.57,3-103.48C1080.48,506.73,1106.93,548.36,1077.51,610.21Z"/><path class="cls-10" d="M1080.48,506.73l-3,103.48C1106.93,548.36,1080.48,506.73,1080.48,506.73Z"/><path class="cls-6" d="M967.06,531.35V670.92h14.6v-169l39.26-39.29h15.67a1.12,1.12,0,0,0,0-2.23h-13.44l18.51-18.52a1.11,1.11,0,0,0-1.58-1.57L1006,474.34l-17.47-17.42,26.11-26a1.11,1.11,0,0,0-1.57-1.57l-26.12,26-11-11a1.12,1.12,0,0,0-1.58,1.58l30.08,30-30,30-44.11-44,18.69-18.64a1.08,1.08,0,0,0,.45-.26,1,1,0,0,0,.26-.45l11.84-11.8a1.11,1.11,0,0,0,0-1.58,1.13,1.13,0,0,0-1.58,0l-11.4,11.37-12-11.92a1.11,1.11,0,0,0-1.58,1.57l12,11.93L928.8,460.26l-16.06-16-1.58,1.58,55.9,55.82Z"/><path class="cls-2" d="M908.2,403.39h5.22c0-.16,0-.32,0-.48A21.57,21.57,0,0,1,935,381.37l75.7-.25a21.56,21.56,0,0,1,21.59,21.53c0,.17,0,.35,0,.52l14.91,0a21.54,21.54,0,1,1,0,43.07h0a21.55,21.55,0,0,1-21.58,21l-94.81.25a21.57,21.57,0,0,1-21.59-21h-1a21.54,21.54,0,1,1,0-43.07Z"/><rect class="cls-3" x="501.52" y="339.89" width="2.42" height="111.39"/><rect class="cls-3" x="465.52" y="396.81" width="111.39" height="2.42" transform="matrix(0.26, -0.97, 0.97, 0.26, 1.85, 798.46)"/><rect class="cls-3" x="482.75" y="403.95" width="111.39" height="2.42" transform="translate(-81.66 668.88) rotate(-60)"/><rect class="cls-3" x="497.54" y="415.3" width="111.39" height="2.42" transform="translate(-132.48 513.19) rotate(-45)"/><rect class="cls-3" x="508.89" y="430.09" width="111.39" height="2.42" transform="translate(-140.01 340.08) rotate(-30)"/><rect class="cls-3" x="516.03" y="447.32" width="111.39" height="2.42" transform="translate(-96.61 163.26) rotate(-15)"/><rect class="cls-3" x="439.65" y="375.61" width="2.42" height="111.39" transform="translate(-153.07 597.5) rotate(-60.01)"/><rect class="cls-3" x="431.86" y="395.48" width="2.42" height="111.39" transform="translate(-102.85 773.51) rotate(-77.2)"/><rect class="cls-3" x="451" y="360.81" width="2.42" height="111.39" transform="translate(-162.07 441.76) rotate(-45)"/><rect class="cls-3" x="465.8" y="349.46" width="2.42" height="111.39" transform="translate(-140 287.73) rotate(-29.99)"/><rect class="cls-3" x="483.03" y="342.33" width="2.42" height="111.39" transform="matrix(0.97, -0.26, 0.26, 0.97, -86.51, 138.89)"/><circle class="cls-2" cx="502.14" cy="464.57" r="23.13"/><path class="cls-9" d="M502.14,586.56a253.45,253.45,0,0,1-216.82-122H719A253.48,253.48,0,0,1,502.14,586.56Z"/><path class="cls-9" d="M513.07,333.87a10.35,10.35,0,1,0-10.34,10.35A10.34,10.34,0,0,0,513.07,333.87Z"/><path class="cls-9" d="M480.17,344.22a10.35,10.35,0,1,0-10.35,10.35A10.35,10.35,0,0,0,480.17,344.22Z"/><path class="cls-9" d="M449.51,356.92a10.35,10.35,0,1,0-10.35,10.35A10.35,10.35,0,0,0,449.51,356.92Z"/><path class="cls-9" d="M423.18,377.13a10.35,10.35,0,1,0-10.35,10.34A10.35,10.35,0,0,0,423.18,377.13Z"/><path class="cls-9" d="M403,403.46a10.35,10.35,0,1,0-10.35,10.34A10.35,10.35,0,0,0,403,403.46Z"/><path class="cls-9" d="M389.11,438.83a10.35,10.35,0,1,0-10.35,10.34A10.35,10.35,0,0,0,389.11,438.83Z"/><path class="cls-9" d="M546,344.22a10.35,10.35,0,1,0-10.35,10.35A10.36,10.36,0,0,0,546,344.22Z"/><path class="cls-9" d="M576.64,356.92a10.35,10.35,0,1,0-10.35,10.35A10.35,10.35,0,0,0,576.64,356.92Z"/><path class="cls-9" d="M603,377.13a10.35,10.35,0,1,0-10.35,10.34A10.35,10.35,0,0,0,603,377.13Z"/><path class="cls-9" d="M623.17,403.46a10.35,10.35,0,1,0-10.35,10.35A10.35,10.35,0,0,0,623.17,403.46Z"/><path class="cls-9" d="M635.87,434.12a10.35,10.35,0,1,0-10.35,10.34A10.35,10.35,0,0,0,635.87,434.12Z"/><polygon class="cls-10" points="653.16 902.78 811.41 771.08 653.16 642.18 653.16 902.78"/><path class="cls-3" d="M905.75,479.86S785,540.61,785,749.71L905.75,621.88Z"/><path class="cls-3" d="M905.75,1061.35S785,1002.15,785,793.06L905.75,915.59Z"/><path class="cls-4" d="M935.51,766.44a38.06,38.06,0,0,0-11.59,30.91,38.49,38.49,0,1,1,62-33.42,38.26,38.26,0,0,0-50.45,2.51Z"/><path class="cls-3" d="M968.09,737.12a70.73,70.73,0,0,1-62.34,70.23V734.5h62.34Z"/><path class="cls-10" d="M950.56,736.38a50.84,50.84,0,0,1-44.81,50.48V734.5h44.81Z"/><path class="cls-7" d="M905.75,734.49a32.89,32.89,0,0,1,62.34,0"/><rect class="cls-3" x="722.32" y="640.23" width="2.42" height="174.31" transform="translate(-267.21 993.86) rotate(-60.21)"/><rect class="cls-3" x="722.32" y="667.75" width="2.42" height="158.5" transform="translate(-205.58 1214.19) rotate(-72.61)"/><rect class="cls-3" x="647.9" y="769.6" width="151.25" height="2.42" transform="translate(-1.12 1.06) rotate(-0.08)"/><rect class="cls-3" x="634.9" y="815.71" width="177.26" height="2.42" transform="translate(-319.83 497.15) rotate(-31.43)"/><rect class="cls-3" x="643.76" y="794.86" width="159.54" height="2.42" transform="translate(-215.64 271.49) rotate(-18.55)"/><path class="cls-10" d="M819.57,770.92a288.58,288.58,0,0,1,86.18-206.44V977.37A288.62,288.62,0,0,1,819.57,770.92Z"/><polygon class="cls-7" points="905.75 622.5 905.75 916.2 785.01 793.06 785.01 749.71 905.75 622.5"/><polygon class="cls-10" points="827.3 836.25 905.75 770.23 827.3 705.15 827.3 836.25"/><polygon class="cls-10" points="861.53 872.02 905.75 839.44 861.53 807.33 861.53 872.02"/><polygon class="cls-10" points="861.53 734.67 905.75 702.09 861.53 669.98 861.53 734.67"/><path class="cls-3" d="M562.85,915.71a17.36,17.36,0,1,1,17.36,17.35A17.35,17.35,0,0,1,562.85,915.71Z"/><path class="cls-3" d="M562.85,959.09a17.36,17.36,0,1,1,17.36,17.35A17.35,17.35,0,0,1,562.85,959.09Z"/><path class="cls-3" d="M562.85,1044.88a17.36,17.36,0,1,1,17.36,17.35A17.35,17.35,0,0,1,562.85,1044.88Z"/><path class="cls-3" d="M484.27,900l12-12h75.1s23.91-.47,29.65-30.13h-131l-37,36.53"/><polyline class="cls-10" points="511.04 562.68 511.07 755 493.25 755 493.21 566.18"/><path class="cls-9" d="M429.66,620.83a81.5,81.5,0,0,1,81.5,81.5h0v25.73l-154-107.23Z"/><path class="cls-10" d="M511.16,728.06l.07,318.57H493.41l-.08-307V728.06H438.7a81.68,81.68,0,0,1-22.8-3.23q-3.61-1.05-7.09-2.42a81.81,81.81,0,0,1-21.95-13,81.5,81.5,0,0,1-29.66-62.89V620.83Z"/><path class="cls-9" d="M506.8,682.69a77.47,77.47,0,0,1,77.48-77.47h68.89L506.8,707.16Z"/><path class="cls-10" d="M510.59,704.52l142.58-99.3v23.83a75.29,75.29,0,0,1-9.11,36,75.56,75.56,0,0,1-23,25.83q-2.29,1.62-4.72,3.06a75,75,0,0,1-38.59,10.61Z"/><path class="cls-9" d="M458.05,750.94a50.86,50.86,0,0,1,50.86,50.86h0v16.06l-96.08-66.92Z"/><path class="cls-10" d="M508.91,817.86l0,198.81H497.84l0-191.58v-7.23h-34.1a50.9,50.9,0,0,1-14.22-2c-1.51-.44-3-1-4.43-1.51A51,51,0,0,1,412.83,767V750.94Z"/><path class="cls-9" d="M506.19,789.55a48.35,48.35,0,0,1,48.35-48.35h43l-91.34,63.62Z"/><path class="cls-10" d="M508.56,803.17l89-62v14.87a47,47,0,0,1-2.12,14,46.24,46.24,0,0,1-3.56,8.44,47.15,47.15,0,0,1-14.38,16.12c-1,.68-1.94,1.31-3,1.91a46.8,46.8,0,0,1-24.09,6.62Z"/><polyline class="cls-3" points="485.25 898.5 580.91 898.5 580.91 1062.09 400.11 1062.09 400.11 933.06 432.88 894.42"/><circle class="cls-6" cx="400.07" cy="1001.66" r="34.25"/><polygon class="cls-2" points="380.75 1012.85 406.81 1007.8 400.97 979.47 396.13 980.47 400.95 1003.9 379.81 1007.99 380.75 1012.85"/><circle class="cls-3" cx="580.21" cy="1001.5" r="17.35"/><path class="cls-3" d="M1526,549.4l7.1,16.43,2.16-9.07-6.52-15.09A6.14,6.14,0,0,0,1526,549.4Z"/><path class="cls-5" d="M1526.23,544.73l7.46,17.28,2.16-9.07L1529,537A6.13,6.13,0,0,0,1526.23,544.73Z"/><path class="cls-10" d="M1527.41,614.38,1514,601.32v0a3.49,3.49,0,0,1-1.24-3.56l4.94-20.75,2.24-9.41a6.12,6.12,0,0,1,4,7.13l-.85,3.57-2.33,9.77a2.25,2.25,0,0,0,1.66,2.69l.21,0a2.24,2.24,0,0,0,2.69-1.66l7.94-33.34-6.79-15.72a6.12,6.12,0,0,1,2.74-7.72l10.86,25.14h0a3.47,3.47,0,0,1,.35,2.5l-6.6,27.71,7.06,3.9A89.72,89.72,0,0,1,1527.41,614.38Z"/><path class="cls-3" d="M1152.06,987.4l17.63-3.09-8.32-4.21L1145.18,983A6.13,6.13,0,0,0,1152.06,987.4Z"/><path class="cls-10" d="M1147.58,986.08l18.55-3.26-8.33-4.21-17.11,3A6.16,6.16,0,0,0,1147.58,986.08Z"/><path class="cls-3" d="M1215.61,1001.06l-15.82,10.06,0,0a3.48,3.48,0,0,1-3.75.38l-19-9.61-8.64-4.36a6.13,6.13,0,0,1,7.88-2.27l3.27,1.65,9,4.52a2.24,2.24,0,0,0,3-1l.1-.2a2.24,2.24,0,0,0-1-3L1160,981.78l-16.87,3a6.12,6.12,0,0,1-6.88-4.46l27-4.74h0a3.52,3.52,0,0,1,2.52.24l25.42,12.84,5.43-6A89.81,89.81,0,0,1,1215.61,1001.06Z"/><path class="cls-13" d="M1500.79,658s-110.55-61-106.64,56.29c3,88.87-63.69,90.35-100.72,80s-97.34,23.56-87,96.13l279.45,2.45,6.72-19.94Z"/><path class="cls-7" d="M1473.06,775.7s12.29-19.24,36.47-24.31S1567,737.18,1572,707.71c6.13-36.6-30.7-36.91-47.3-68-9.69-18.14,4.16-64.65,48.59-55.17s78.29,80.55,64.51,130c-9.39,33.72-26.33,50.68-64.2,71.39-41.2,22.52-86.23,22.28-86.23,22.28Z"/><path class="cls-3" d="M1472.58,679.69l-1,87.59s24.81,17.23,23,32a116.52,116.52,0,0,0,0,27.69l-135-17.26s-3.47-23.35,11.3-40,70.77,27.87,76.16-46c0,0-11.54,2.07-18.46-7.16s-4.39-36.69-4.39-36.69Z"/><path class="cls-7" d="M1376.7,762.12s-61.53,70.94-111.06,104.44c-45,30.41-78,56.38-78,85.94,0,27.77,19.83,67.42,71.39,58.18,33.37-6,51.15-66,72.72-99.16,21.68-33.35,72.72-101.81,72.72-101.81Z"/><path class="cls-10" d="M1482.92,805.29c9.34.85,34.43,11.11,5.55,40,0,0-7.78,30-20,47.77h-57.76l-5.56-48.88s-20.26-21.15-1.24-35,45,10.57,45,10.57S1470.7,804.18,1482.92,805.29Z"/><path class="cls-4" d="M1471.59,761l.32-25,7.83,31.28c73.39,66.86-1.43,136.67-1.43,136.67l-11.27-.63"/><path class="cls-4" d="M1411.26,896.13h16.67L1429.86,733,1421,759s-25.58-16.21-44.34,3.08l20.12,57S1379.05,885,1411.26,896.13Z"/></g></g></svg>