<svg xmlns="http://www.w3.org/2000/svg" xmlns:xlink="http://www.w3.org/1999/xlink" viewBox="0 0 109.97 119.66"><defs><style>.cls-1{fill:none;}.cls-2{clip-path:url(#clip-path);}.cls-3{fill:#038d71;}.cls-4{fill:#5045b3;}.cls-5{fill:#002735;}.cls-6{fill:#face33;}.cls-7{fill:#fde89a;}.cls-8{fill:#fff;}</style><clipPath id="clip-path"><rect class="cls-1" width="109.97" height="119.66" rx="5"/></clipPath></defs><g id="Capa_2" data-name="Capa 2"><g id="Arte"><g class="cls-2"><rect class="cls-3" width="109.97" height="119.66"/><circle class="cls-4" cx="21.42" cy="72.43" r="10.03"/><circle class="cls-4" cx="21.42" cy="102.86" r="10.03"/><circle class="cls-4" cx="49.04" cy="102.86" r="10.03"/><polygon class="cls-5" points="0 58.43 54.12 58.43 54.12 0 0 58.43"/><polygon class="cls-6" points="54.12 58.43 109.97 58.43 109.97 116.86 54.12 58.43"/><polygon class="cls-7" points="0 0 54.12 0 54.12 58.43 0 0"/><polygon class="cls-4" points="54.12 0 109.97 0 109.97 58.43 54.12 0"/></g><path class="cls-8" d="M62.83,66.61a5.68,5.68,0,0,1-.65,2.8,5.55,5.55,0,0,1-1.71,1.89,7.1,7.1,0,0,1-2.25,1,8.58,8.58,0,0,1-2.3.33,18,18,0,0,1-6.7-1.51V66.49A11.6,11.6,0,0,0,51.49,68a5.74,5.74,0,0,0,2.51.59,3.41,3.41,0,0,0,1.65-.36,2.5,2.5,0,0,0,1-.91A2.18,2.18,0,0,0,57,66.11a2.44,2.44,0,0,0-.42-1.41,2.89,2.89,0,0,0-1.22-1,4.3,4.3,0,0,0-1.85-.37h-.68V60h.8a3.4,3.4,0,0,0,1.74-.4,2.56,2.56,0,0,0,1-1,2.25,2.25,0,0,0,.3-1.06,2.31,2.31,0,0,0-.73-1.68A2.56,2.56,0,0,0,54,55.13a6.59,6.59,0,0,0-2.16.39,9.86,9.86,0,0,0-2.1,1.06v-4a23.87,23.87,0,0,1,2.78-1,11.48,11.48,0,0,1,2.93-.35,7.7,7.7,0,0,1,4,.92,5.93,5.93,0,0,1,2.32,2.22,5,5,0,0,1,.73,2.44,4.63,4.63,0,0,1-.4,1.87A6,6,0,0,1,61,60.36a5.6,5.6,0,0,1-1.36,1.13,7.28,7.28,0,0,1,2.22,1.84A5,5,0,0,1,62.83,66.61Z"/></g></g></svg>