<svg xmlns="http://www.w3.org/2000/svg" xmlns:xlink="http://www.w3.org/1999/xlink" viewBox="0 0 109.97 119.66"><defs><style>.cls-1{fill:none;}.cls-2{clip-path:url(#clip-path);}.cls-3{fill:#5045b3;}.cls-4{fill:#038d71;}.cls-5{fill:#002735;}.cls-6{fill:#face33;}.cls-7{fill:#f5ce44;}.cls-8{fill:#fff;}</style><clipPath id="clip-path"><rect class="cls-1" width="109.97" height="119.66" rx="5"/></clipPath></defs><g id="Capa_2" data-name="Capa 2"><g id="Arte"><g class="cls-2"><rect class="cls-3" width="109.97" height="119.66"/><polygon class="cls-4" points="59.52 59.68 0 59.68 0 119.36 59.52 59.68"/><polygon class="cls-5" points="0 59.68 59.52 59.68 59.52 0 0 59.68"/><polygon class="cls-4" points="59.52 59.68 109.97 59.68 109.97 0 59.52 59.68"/><polygon class="cls-6" points="59.52 59.68 109.97 59.68 109.97 119.36 59.52 59.68"/><path class="cls-7" d="M32.16,119.36c0-.14,0-.28,0-.42,0-17.53,13-31.75,29-31.75s29,14.22,29,31.75c0,.14,0,.28,0,.42Z"/></g><path class="cls-8" d="M62.85,69.46H57.14V48.58h5.71Z"/></g></g></svg>