<svg xmlns="http://www.w3.org/2000/svg" xmlns:xlink="http://www.w3.org/1999/xlink" viewBox="0 0 110.32 119.66"><defs><style>.cls-1{fill:#face33;}.cls-2{clip-path:url(#clip-path);}.cls-3{fill:#f5ce44;}.cls-4{fill:#5045b3;}.cls-5{fill:#002735;}.cls-6{fill:#fde89a;}.cls-7{fill:#038d71;}.cls-8{fill:#fff;}</style><clipPath id="clip-path" transform="translate(0.35)"><rect class="cls-1" width="109.97" height="119.66" rx="5"/></clipPath></defs><g id="Capa_2" data-name="Capa 2"><g id="Arte"><rect class="cls-1" x="0.35" width="109.97" height="119.66" rx="5"/><g class="cls-2"><rect class="cls-3" x="0.35" width="109.97" height="119.66"/><path class="cls-4" d="M38.6,73.63a7.82,7.82,0,1,1-7.82,7.82,7.81,7.81,0,0,1,7.82-7.82" transform="translate(0.35)"/><path class="cls-4" d="M101.44,73.63a7.82,7.82,0,1,1-7.82,7.82,7.82,7.82,0,0,1,7.82-7.82" transform="translate(0.35)"/><path class="cls-4" d="M89.67,13.16A7.82,7.82,0,1,1,81.85,21a7.81,7.81,0,0,1,7.82-7.81" transform="translate(0.35)"/><path class="cls-4" d="M30.78,13.16A7.82,7.82,0,1,1,23,21a7.82,7.82,0,0,1,7.81-7.81" transform="translate(0.35)"/><polygon class="cls-4" points="54.8 64.86 0 64.86 0 10.06 54.8 64.86"/><polygon class="cls-5" points="109.6 64.86 44.74 64.86 44.74 0 109.6 64.86"/><polygon class="cls-6" points="54.8 119.66 0 119.66 0 64.86 54.8 119.66"/><polygon class="cls-7" points="109.6 119.66 54.8 119.66 54.8 64.86 109.6 119.66"/></g><path class="cls-8" d="M57.59,65H55.12v4.51H49.56V65H41.08V61l9.56-12.4h4.48V61.37h2.47Zm-8-3.58V54.68l-5.18,6.69Z" transform="translate(0.35)"/></g></g></svg>