<svg xmlns="http://www.w3.org/2000/svg" xmlns:xlink="http://www.w3.org/1999/xlink" viewBox="0 0 110.3 119.66"><defs><style>.cls-1{fill:none;}.cls-2{clip-path:url(#clip-path);}.cls-3{fill:#038d71;}.cls-4{fill:#5045b3;}.cls-5{fill:#002735;}.cls-6{fill:#face33;}.cls-7{fill:#fde89a;}.cls-8{fill:#fff;}</style><clipPath id="clip-path" transform="translate(0.33 0)"><rect class="cls-1" width="109.97" height="119.66" rx="5"/></clipPath></defs><g id="Capa_2" data-name="Capa 2"><g id="Arte"><g class="cls-2"><polygon class="cls-3" points="0.33 0 0.33 58.43 0.33 58.43 0.33 119.66 54.23 119.66 110.3 119.66 56.4 58.43 56.4 58.43 110.3 119.66 110.3 0 0.33 0"/><rect class="cls-4" x="55.15" width="55.15" height="55.15"/><path class="cls-5" d="M110,55.15h0C81.77,60,59.69,91.47,54.82,119.66h0C50,91.47,27.87,60-.33,55.15h0" transform="translate(0.33 0)"/><path class="cls-6" d="M-.33,55.15h0A67.67,67.67,0,0,0,54.82,0h0A67.67,67.67,0,0,0,110,55.15h0" transform="translate(0.33 0)"/><circle class="cls-4" cx="20.14" cy="21.85" r="7.04"/><path class="cls-4" d="M26.86,88.45a7,7,0,1,1-7-7A7,7,0,0,1,26.86,88.45Z" transform="translate(0.33 0)"/><path class="cls-7" d="M96.87,21.85a7,7,0,1,1-7.05-7A7,7,0,0,1,96.87,21.85Z" transform="translate(0.33 0)"/><path class="cls-4" d="M96.87,88.45a7,7,0,1,1-7.05-7A7,7,0,0,1,96.87,88.45Z" transform="translate(0.33 0)"/></g><path class="cls-8" d="M61.33,62.92a7.11,7.11,0,0,1-.83,3.36A6.28,6.28,0,0,1,58,68.79a8.33,8.33,0,0,1-4.09.94,13.64,13.64,0,0,1-3.69-.5A10.9,10.9,0,0,1,47,67.72v-4.5a13.27,13.27,0,0,0,2.72,1.46,8.14,8.14,0,0,0,3,.74,2.57,2.57,0,0,0,2.16-.81,2.56,2.56,0,0,0-1-4,5.77,5.77,0,0,0-2.37-.41,8.4,8.4,0,0,0-3.15.6V48.58H60.47V53H53v3.58l.51-.05.37,0h.45a7.5,7.5,0,0,1,3.7.89,6.33,6.33,0,0,1,2.45,2.36A6.26,6.26,0,0,1,61.33,62.92Z" transform="translate(0.33 0)"/></g></g></svg>