<svg xmlns="http://www.w3.org/2000/svg" xmlns:xlink="http://www.w3.org/1999/xlink" viewBox="0 0 109.97 119.66"><defs><style>.cls-1{fill:none;}.cls-2{clip-path:url(#clip-path);}.cls-3{fill:#5045b3;}.cls-4{fill:#face33;}.cls-5{fill:#038d71;}.cls-6{fill:#f5ce44;}.cls-7{fill:#002735;}.cls-8{fill:#fff;}</style><clipPath id="clip-path"><rect class="cls-1" width="109.97" height="119.66" rx="5"/></clipPath></defs><g id="Capa_2" data-name="Capa 2"><g id="Arte"><g class="cls-2"><polygon class="cls-3" points="0 0 0 58.43 56.07 58.43 109.97 119.66 109.97 119.66 109.97 0 0 0"/><polygon class="cls-4" points="0 119.66 53.9 119.66 0 58.43 0 119.66"/><polygon class="cls-5" points="0 58.43 53.9 119.66 109.97 119.66 56.07 58.43 0 58.43"/><polygon class="cls-6" points="53.9 58.43 0 0 56.07 0 109.97 58.43 53.9 58.43"/><path class="cls-7" d="M41.46,0c0,.49-.06,1-.06,1.48,0,20.12,15.35,36.44,34.28,36.44S110,21.6,110,1.48c0-.5,0-1-.06-1.48Z"/></g><path class="cls-8" d="M62.42,69.46H46.56v-.41c.61-.59,1.28-1.3,2-2.12s1.67-1.92,2.83-3.27c.53-.61,1-1.22,1.49-1.81a15.94,15.94,0,0,0,1.2-1.72A10.84,10.84,0,0,0,55,58.28a6.31,6.31,0,0,0,.34-2.06,3.3,3.3,0,0,0-.83-2.34,2.79,2.79,0,0,0-2.13-.9q-2.56,0-5.1,2.65V50.71c.6-.39,1.08-.69,1.47-.92A12.18,12.18,0,0,1,50,49.11a10.25,10.25,0,0,1,1.77-.57A9.75,9.75,0,0,1,54,48.3a7.86,7.86,0,0,1,3.48.77,5.94,5.94,0,0,1,2.46,2.25,6.39,6.39,0,0,1,.89,3.42,8,8,0,0,1-.4,2.59,9.53,9.53,0,0,1-.85,1.94c-.29.5-.67,1.1-1.16,1.83a40.06,40.06,0,0,1-2.77,3.67h6.77Z"/></g></g></svg>