<svg xmlns="http://www.w3.org/2000/svg" viewBox="0 0 107.55 119.66"><defs><style>.cls-1{fill:#57bd8d;}.cls-2{fill:#5045b3;}.cls-3{fill:#fdf6e6;}.cls-4{fill:#153140;}.cls-5{fill:#1c313a;}.cls-6{fill:#002735;}</style></defs><g id="Capa_2" data-name="Capa 2"><g id="Arte"><rect class="cls-1" width="107.55" height="119.66" rx="6.82"/><path class="cls-2" d="M11.88,95.7V24H94.07V46.9H49.37v6.79h28v11h-28v6.14h44.7V95.7Z"/><path class="cls-3" d="M59,71.79,47.07,85.65V96H71.89V85.19S59,71.86,59,71.79Z"/><polygon class="cls-4" points="58.81 72.7 71.9 85.2 77.69 85.2 61.77 69.86 58.81 72.7"/><polygon class="cls-4" points="4.35 85.67 46.98 85.67 61.81 69.85 19.18 69.85 4.35 85.67"/><rect class="cls-5" x="58.03" y="88.69" width="4.23" height="7.19" transform="translate(120.29 184.56) rotate(-180)"/><rect class="cls-3" x="36.97" y="89.08" width="3.7" height="3.09" transform="translate(77.63 181.26) rotate(-180)"/><rect class="cls-3" x="27.73" y="89.08" width="3.7" height="3.09" transform="translate(59.16 181.26) rotate(-180)"/><rect class="cls-3" x="18.5" y="89.08" width="3.7" height="3.09" transform="translate(40.69 181.26) rotate(-180)"/><polygon class="cls-3" points="75.25 53.5 55.87 53.5 54.6 31.58 76.52 31.58 75.25 53.5"/><path class="cls-6" d="M53.75,35.81a2.43,2.43,0,0,1,2.46-2.45,3.14,3.14,0,0,1,3,2.45l.5,9.14h3.57v3.89s-8.56.68-9.49-.67S53.75,35.81,53.75,35.81Z"/><path class="cls-6" d="M77.36,35.47A2.42,2.42,0,0,0,74.91,33a3.12,3.12,0,0,0-3,2.45l-.51,9.14H67.88V48.5s8.55.68,9.48-.67S77.36,35.47,77.36,35.47Z"/><path class="cls-6" d="M65.52,47.3c0,2.89-1,2.11-2.28,2.11S61,50.19,61,47.3s1-5.23,2.29-5.23S65.52,44.41,65.52,47.3Z"/><path class="cls-6" d="M70.16,47.3c0,2.89-1,2.11-2.28,2.11s-2.29.78-2.29-2.11,1-5.23,2.29-5.23S70.16,44.41,70.16,47.3Z"/><path class="cls-3" d="M54.42,20.94H76.69a0,0,0,0,1,0,0v10.6a5.87,5.87,0,0,1-5.87,5.87H60.29a5.87,5.87,0,0,1-5.87-5.87V20.94A0,0,0,0,1,54.42,20.94Z"/><path class="cls-6" d="M52.73,22h1.69a0,0,0,0,1,0,0v7.19a0,0,0,0,1,0,0H52.73A1.69,1.69,0,0,1,51,27.48V23.67A1.69,1.69,0,0,1,52.73,22Z"/><path class="cls-6" d="M78.38,22h1.69a0,0,0,0,1,0,0v7.19a0,0,0,0,1,0,0H78.38a1.69,1.69,0,0,1-1.69-1.69V23.67A1.69,1.69,0,0,1,78.38,22Z" transform="translate(156.76 51.15) rotate(180)"/><path class="cls-6" d="M62.93,26.31h5.51a0,0,0,0,1,0,0v4.36a2.65,2.65,0,0,1-2.65,2.65h-.21a2.65,2.65,0,0,1-2.65-2.65V26.31A0,0,0,0,1,62.93,26.31Z"/><path class="cls-6" d="M69,32.3H62.61a1.56,1.56,0,0,1-1.56-1.56h0a1.56,1.56,0,0,1,1.56-1.57H69a1.56,1.56,0,0,1,1.56,1.57h0A1.56,1.56,0,0,1,69,32.3Z"/><circle class="cls-6" cx="59.73" cy="26.05" r="1.39"/><circle class="cls-6" cx="71.39" cy="26.31" r="1.39"/><path class="cls-6" d="M78.1,20.94H53a5.64,5.64,0,0,1,5.64-5.64H72.46a5.64,5.64,0,0,1,5.64,5.64Z"/><rect class="cls-2" x="50.78" y="18" width="29.56" height="2.94"/></g></g></svg>