<svg xmlns="http://www.w3.org/2000/svg" xmlns:xlink="http://www.w3.org/1999/xlink" viewBox="0 0 107.55 119.66"><defs><style>.cls-1{fill:none;}.cls-2{fill:#57bd8d;}.cls-3{fill:#5045b3;}.cls-4{fill:#153140;}.cls-5{fill:#fdf6e6;}.cls-6{fill:#99c3e1;}.cls-7{clip-path:url(#clip-path);}</style><clipPath id="clip-path"><path class="cls-1" d="M67.27,74.86A26.62,26.62,0,0,0,41.12,96.55h52.3A26.61,26.61,0,0,0,67.27,74.86Z"/></clipPath></defs><g id="Capa_2" data-name="Capa 2"><g id="Fondo"><rect class="cls-2" width="107.55" height="119.66" rx="6.82"/><path class="cls-3" d="M52.69,96.74H8.84V28.5H52.69C83,28.5,99,43.46,99,61.91v1.23c0,18.34-16,33.6-46.31,33.6m10-35c0-6.86-3.38-12.6-12.6-12.6H44.49V75.94h5.64c9.22,0,12.6-5.73,12.6-12.6Z"/><path class="cls-4" d="M26.3,58.41v26H8.84V60.29l9.21-9.21S26.3,58.48,26.3,58.41Z"/><polyline class="cls-4" points="26.3 58.41 26.3 96.55 8.84 96.55 8.84 60.29"/><rect class="cls-4" x="38.28" y="64.88" width="2.34" height="4.48" transform="translate(78.91 134.23) rotate(-180)"/><rect class="cls-4" x="31.39" y="64.88" width="2.34" height="4.48" transform="translate(65.11 134.23) rotate(-180)"/><polygon class="cls-5" points="26.32 60.05 44.97 60.05 36.1 51.01 18.04 51.01 26.32 60.05"/><path class="cls-6" d="M41.13,62H17.25s.17-2.88,4.6-2.88a5.67,5.67,0,0,1,5.66-3.6,6.83,6.83,0,0,1,5.13,1.77S41.13,56.29,41.13,62Z"/><path class="cls-5" d="M67.27,75.52A25.68,25.68,0,0,0,42,96.44H92.5A25.66,25.66,0,0,0,67.27,75.52Z"/><g class="cls-7"><path class="cls-4" d="M39.09,88.67H80.15a2.74,2.74,0,0,1,0,5.47H73.41a3.22,3.22,0,0,0,0,6.43H89.47l-3.21,3.36H38S39.16,88.74,39.09,88.67Z"/><path class="cls-4" d="M91.25,75H66.16a2,2,0,0,0,0,4h5a2.38,2.38,0,0,1,0,4.76H43.32l2.38,2.48H92.06S91.2,75.09,91.25,75Z"/></g></g></g></svg>