<svg xmlns="http://www.w3.org/2000/svg" viewBox="0 0 107.55 119.66"><defs><style>.cls-1{fill:#f09433;}.cls-2{fill:#3595e0;}.cls-3{fill:#f5ce44;}.cls-4{fill:#1d323a;}.cls-5{fill:#5b578a;}.cls-6{fill:#fde89a;}.cls-7{fill:#002735;}.cls-8{fill:#f4f5d3;}</style></defs><g id="Capa_2" data-name="Capa 2"><g id="Arte"><rect class="cls-1" width="107.55" height="119.66" rx="6.82"/><path class="cls-2" d="M65.41,96.28l-3.73-11.8H42.25l-4.31,11.8H8.84L37,28.5H71.25L100,96.28Zm-12.63-40L48.09,69h8.8Z"/><polygon class="cls-3" points="81.56 21.1 82.91 31.07 80.21 31.07 81.56 21.1"/><path class="cls-4" d="M79.64,30.92a1.94,1.94,0,0,1,3.87,0l0,3.93H79.61Z"/><path class="cls-4" d="M77.21,38.35a4.38,4.38,0,1,1,8.76,0l-.06,8.88H77.15Z"/><rect class="cls-5" x="79.44" y="33.97" width="4.23" height="0.93"/><rect class="cls-4" x="77.13" y="41.81" width="8.85" height="13.23"/><rect class="cls-4" x="66.04" y="64.25" width="31.04" height="32.09"/><polygon class="cls-6" points="92.42 60.48 92.42 55.14 87.58 55.14 87.58 49.8 75.68 49.8 75.68 55.14 70.55 55.14 70.55 60.48 68.25 60.48 68.25 67.2 94.87 67.2 94.87 60.48 92.42 60.48"/><rect class="cls-4" x="62.76" y="67.2" width="37.59" height="2.47"/><path class="cls-1" d="M78.54,57.14c0-1.66,3-3,3-3s3,1.35,3,3V67.2h-6Z"/><path class="cls-1" d="M73.79,83.5a7.77,7.77,0,1,1,7.77,7.77,7.77,7.77,0,0,1-7.77-7.77"/><rect class="cls-6" x="76.77" y="40.76" width="9.57" height="2.11"/><rect class="cls-6" x="78.11" y="33.38" width="6.9" height="2.11"/><path class="cls-7" d="M29.74,10.47s-5.73-3.25-5-4.16S29.74,10.47,29.74,10.47Z"/><path class="cls-7" d="M29.66,10.46s-2-5.65-.77-6S29.66,10.46,29.66,10.46Z"/><path class="cls-7" d="M29.77,10.1S32,4.5,33.18,4.88,29.77,10.1,29.77,10.1Z"/><path class="cls-7" d="M29.68,10.49s-4.35-4.57-3.34-5.25S29.68,10.49,29.68,10.49Z"/><path class="cls-7" d="M29.62,10.39s.22-5.9,1.51-5.84S29.62,10.39,29.62,10.39Z"/><path class="cls-6" d="M34.85,14.09s1-4.81-4.53-5.13c-8-.41-8.55,8.75-8.24,11.19C22.77,27,25.94,29,27.84,30.54s16,2.81,16,2.81S46.54,27,41.78,22.66c-3.25-2.51-12-1.88-12-1.88s-2.39.25-2.39-3.07,1.95-3.37,1.95-3.37Z"/><path class="cls-4" d="M35,27.41l.21,36.78s1.42,6,4.73,8.94a15.91,15.91,0,0,0,7.2,3.57V31.47l-6.83-8.88Z"/><path class="cls-3" d="M31,20.65s3.92,14.83,16.43,11.64C47.87,16.71,31,20.65,31,20.65Z"/><path class="cls-8" d="M37.71,36.29H41.6v4.13S38.46,40.54,37.71,36.29Z"/><path class="cls-8" d="M39.66,36.29H41.6v2.06S40,38.41,39.66,36.29Z"/><path class="cls-8" d="M37.71,43H41.6v4.13S38.46,47.22,37.71,43Z"/><path class="cls-8" d="M39.66,43H41.6V45S40,45.09,39.66,43Z"/><path class="cls-8" d="M37.71,49.64H41.6v4.13S38.46,53.89,37.71,49.64Z"/><path class="cls-8" d="M39.66,49.63H41.6V51.7S40,51.76,39.66,49.63Z"/><path class="cls-8" d="M38.3,56h3.3v3.5S38.94,59.58,38.3,56Z"/><path class="cls-8" d="M40,56H41.6v1.75S40.27,57.78,40,56Z"/><path class="cls-8" d="M38.93,61.47h2.78v3S39.47,64.51,38.93,61.47Z"/><path class="cls-8" d="M40.32,61.47h1.39v1.47S40.59,63,40.32,61.47Z"/><path class="cls-8" d="M39.56,66.42H41.7v2.27S40,68.76,39.56,66.42Z"/><path class="cls-8" d="M40.63,66.42H41.7v1.13S40.84,67.59,40.63,66.42Z"/><path class="cls-8" d="M43.23,36.18h3.89v4.13S44,40.44,43.23,36.18Z"/><path class="cls-8" d="M45.17,36.18h1.95v2.06S45.55,38.3,45.17,36.18Z"/><path class="cls-8" d="M43.23,42.85h3.89V47S44,47.11,43.23,42.85Z"/><path class="cls-8" d="M45.17,42.85h1.95v2.06S45.55,45,45.17,42.85Z"/><path class="cls-8" d="M43.23,49.53h3.89v4.13S44,53.78,43.23,49.53Z"/><path class="cls-8" d="M45.17,49.52h1.95v2.07S45.55,51.65,45.17,49.52Z"/><path class="cls-8" d="M43.82,55.87h3.3v3.5S44.46,59.47,43.82,55.87Z"/><path class="cls-8" d="M45.47,55.86h1.65v1.75S45.79,57.67,45.47,55.86Z"/><path class="cls-8" d="M44.45,61.36h2.78v3S45,64.4,44.45,61.36Z"/><path class="cls-8" d="M45.84,61.36h1.39v1.48S46.11,62.88,45.84,61.36Z"/><path class="cls-8" d="M45.08,66.31h2.14v2.27S45.49,68.65,45.08,66.31Z"/><path class="cls-8" d="M46.15,66.31h1.07v1.13S46.36,67.48,46.15,66.31Z"/><path class="cls-7" d="M32.89,14.17a8.87,8.87,0,0,1,3.75.79c1.38.81-2.49-4.29-2.49-4.29l-.07,1.85S32.83,13.26,32.89,14.17Z"/><path class="cls-7" d="M31.7,11a.59.59,0,0,1-.59.59.6.6,0,1,1,0-1.19A.59.59,0,0,1,31.7,11Z"/></g></g></svg>