<svg xmlns="http://www.w3.org/2000/svg" viewBox="0 0 110.56 34.57"><defs><style>.cls-1{fill:#008e71;}.cls-2{fill:#ec6754;}.cls-3{fill:#4f90cc;}.cls-4{fill:#fbd634;}.cls-5{fill:#292929;}</style></defs><g id="Capa_2" data-name="Capa 2"><g id="Arte"><rect class="cls-1" x="76.87" y="2.46" width="11.89" height="11.89"/><path class="cls-2" d="M28.59,2.46A5.95,5.95,0,1,0,34.53,8.4a5.94,5.94,0,0,0-5.94-5.94"/><rect class="cls-3" x="59.29" y="7.05" width="11.89" height="2.71" transform="translate(13.16 48.59) rotate(-45)"/><rect class="cls-3" x="63.88" y="2.46" width="2.71" height="11.89" transform="translate(13.16 48.59) rotate(-45)"/><path class="cls-4" d="M47.66,3.83l4.57,4.58L47.66,13,43.08,8.41Zm0-3.83L39.25,8.41l8.41,8.4,8.4-8.4Z"/><path class="cls-5" d="M6.09,32.92V34a5.14,5.14,0,0,1-2.46.58,3.74,3.74,0,0,1-1.92-.46A3.33,3.33,0,0,1,.46,32.86,3.37,3.37,0,0,1,0,31.13a3.3,3.3,0,0,1,1.05-2.48,3.64,3.64,0,0,1,2.6-1A6,6,0,0,1,6,28.2v1a4.7,4.7,0,0,0-2.32-.68,2.66,2.66,0,0,0-1.93.73A2.44,2.44,0,0,0,1,31.13,2.4,2.4,0,0,0,1.76,33a2.67,2.67,0,0,0,1.93.72,4.33,4.33,0,0,0,2.4-.76"/><path class="cls-5" d="M11.58,27.63a3.62,3.62,0,0,1,2.61,1,3.28,3.28,0,0,1,1.05,2.49,3.23,3.23,0,0,1-1.06,2.48,3.74,3.74,0,0,1-2.65,1,3.55,3.55,0,0,1-2.55-1,3.29,3.29,0,0,1-1-2.46,3.36,3.36,0,0,1,1-2.51,3.58,3.58,0,0,1,2.59-1m0,.92a2.62,2.62,0,0,0-1.91.73A2.49,2.49,0,0,0,9,31.13,2.42,2.42,0,0,0,9.72,33a2.56,2.56,0,0,0,1.87.73,2.59,2.59,0,0,0,1.89-.74,2.47,2.47,0,0,0,.76-1.85,2.42,2.42,0,0,0-.76-1.81,2.55,2.55,0,0,0-1.86-.73"/><polygon class="cls-5" points="17.41 27.73 18.38 27.73 18.38 33.61 21.42 33.61 21.42 34.49 17.41 34.49 17.41 27.73"/><path class="cls-5" d="M26.57,27.63a3.62,3.62,0,0,1,2.61,1,3.45,3.45,0,0,1,0,5,3.74,3.74,0,0,1-2.65,1,3.55,3.55,0,0,1-2.55-1,3.29,3.29,0,0,1-1-2.46,3.33,3.33,0,0,1,1-2.51,3.58,3.58,0,0,1,2.59-1m0,.92a2.62,2.62,0,0,0-1.91.73A2.46,2.46,0,0,0,24,31.13,2.42,2.42,0,0,0,24.7,33a2.78,2.78,0,0,0,3.77,0,2.47,2.47,0,0,0,.76-1.85,2.42,2.42,0,0,0-.76-1.81,2.55,2.55,0,0,0-1.86-.73"/><polygon class="cls-5" points="37.78 27.73 38.68 27.73 38.68 34.49 37.71 34.49 37.71 29.23 35.63 31.84 35.45 31.84 33.35 29.23 33.35 34.49 32.38 34.49 32.38 27.73 33.3 27.73 35.54 30.5 37.78 27.73"/><path class="cls-5" d="M43.42,34.49H41.13V27.73H42.9a3.09,3.09,0,0,1,1.31.22,1.75,1.75,0,0,1,.72.62,1.72,1.72,0,0,1,.24.91,1.46,1.46,0,0,1-1,1.43,2.13,2.13,0,0,1,1.18.61,1.68,1.68,0,0,1,.17,2.05,1.84,1.84,0,0,1-.78.66,2.87,2.87,0,0,1-1.29.26m-.49-5.9H42.1v2h.64a1.7,1.7,0,0,0,1.11-.29,1,1,0,0,0,.32-.77c0-.65-.41-1-1.24-1M43,31.48H42.1v2.15h.95a2.91,2.91,0,0,0,1.08-.13,1.06,1.06,0,0,0,.46-.38,1,1,0,0,0,.17-.56,1,1,0,0,0-.18-.57,1.07,1.07,0,0,0-.52-.38A3.27,3.27,0,0,0,43,31.48"/><rect class="cls-5" x="47.72" y="27.73" width="0.97" height="6.76"/><path class="cls-5" d="M53.34,27.69H54l3,6.8h-1l-.9-2H52.27l-.84,2h-1Zm1.42,3.93-1.09-2.45-1,2.45Z"/><polygon class="cls-5" points="83.28 27.73 84.18 27.73 84.18 34.49 83.21 34.49 83.21 29.23 81.13 31.84 80.95 31.84 78.85 29.23 78.85 34.49 77.88 34.49 77.88 27.73 78.79 27.73 81.04 30.5 83.28 27.73"/><path class="cls-5" d="M88.79,27.69h.68l3,6.8h-1l-.9-2H87.72l-.84,2h-1Zm1.42,3.93-1.09-2.45-1,2.45Z"/><path class="cls-5" d="M94.18,34.49V27.72h2.15a2.19,2.19,0,0,1,1.54.52,1.79,1.79,0,0,1,.58,1.4,1.85,1.85,0,0,1-.3,1.05,1.66,1.66,0,0,1-.81.66,4,4,0,0,1-1.47.21h-.71v2.93Zm2-5.91h-1v2.11h1.06a1.39,1.39,0,0,0,.91-.27,1,1,0,0,0,.32-.8c0-.69-.43-1-1.29-1"/><path class="cls-5" d="M101.64,27.69h.68l3,6.8h-1l-.9-2h-2.88l-.85,2h-1Zm1.42,3.93L102,29.17l-1,2.45Z"/><path class="cls-5" d="M108.76,31.66l-.74-.45a3.28,3.28,0,0,1-1-.83,1.57,1.57,0,0,1-.3-.94,1.66,1.66,0,0,1,.56-1.3,2.08,2.08,0,0,1,1.44-.5,2.8,2.8,0,0,1,1.56.47v1.1a2.3,2.3,0,0,0-1.58-.7,1.28,1.28,0,0,0-.78.22.67.67,0,0,0-.3.56.87.87,0,0,0,.22.57,2.9,2.9,0,0,0,.72.56l.74.44a2.16,2.16,0,0,1,1.24,1.88,1.73,1.73,0,0,1-.54,1.32,2,2,0,0,1-1.42.51,3,3,0,0,1-1.82-.62V32.72a2.25,2.25,0,0,0,1.81,1,1.15,1.15,0,0,0,.76-.26.8.8,0,0,0,.3-.63c0-.41-.3-.8-.89-1.17"/><polygon class="cls-5" points="63.92 29.39 65.97 29.39 65.97 29.85 64.44 29.85 64.44 30.95 65.92 30.95 65.92 31.41 64.44 31.41 64.44 32.53 66.02 32.53 66.02 32.99 63.92 32.99 63.92 29.39"/><polygon class="cls-5" points="69.64 29.39 70.14 29.39 70.14 33 69.69 33 67.28 30.22 67.28 33 66.79 33 66.79 29.39 67.21 29.39 69.64 32.19 69.64 29.39"/></g></g></svg>