<svg xmlns="http://www.w3.org/2000/svg" viewBox="0 0 107.55 119.66"><defs><style>.cls-1{fill:#5045b3;}.cls-2{fill:#f5ce44;}.cls-3{fill:#fde89a;}.cls-4{fill:#038d71;}.cls-5{fill:#002735;}</style></defs><g id="Capa_2" data-name="Capa 2"><g id="Arte"><rect class="cls-1" width="107.55" height="119.66" rx="6.82"/><path class="cls-2" d="M65.85,95.45,43.79,73.58l-2.37-2.75V95.45H11.88V32.38h26.7L62.26,54.45l2.17,2.36V32.38H94.07V95.45Z"/><rect class="cls-3" x="20.96" y="44.38" width="3.08" height="51.07"/><path class="cls-3" d="M16.93,77a14.16,14.16,0,0,1,4.62,9.55L7,73.33a14.15,14.15,0,0,1,10,3.68"/><path class="cls-4" d="M29.82,39.23a7.16,7.16,0,0,1-14.31,0V30.46L13.73,27.8h5.93l3-3.05,2.82,2.81h6.42l-1.89,3.16Z"/><path class="cls-4" d="M23.91,20.93a1.28,1.28,0,0,1-.78,1.64,1.29,1.29,0,0,1-1.64-.79,1.28,1.28,0,0,1,2.42-.85"/><path class="cls-4" d="M18.23,22.71a1.28,1.28,0,0,1-.78,1.64,1.28,1.28,0,0,1-.86-2.42,1.28,1.28,0,0,1,1.64.78"/><path class="cls-4" d="M28.78,22.71A1.28,1.28,0,0,1,28,24.35a1.28,1.28,0,0,1-.86-2.42,1.28,1.28,0,0,1,1.64.78"/><path class="cls-3" d="M69,56.46h37.12S105.81,52,98.94,52c0,0-1.74-5.59-8.8-5.59-3.31,0-5.41.55-8,2.75C82.17,49.13,69,47.55,69,56.46Z"/><path class="cls-3" d="M103.17,74.85c.74-.47-5.85-21.49-20.13-13-4.85,4-5.66,11.31-.53,16.78,2.43,2.38,8.35,9.55,2.07,11.64-8.37,2.79.15,3.89.15,3.89,4.44-1.31,7.89-3.35,7.64-8.15-.9-6.28-2.5-10.35,1.1-13.44C96.48,70.88,100,71.85,103.17,74.85Z"/><path class="cls-5" d="M76.67,73.87a4.87,4.87,0,0,1-2.27,2.31,4.07,4.07,0,0,1,2.15-5.55A4.85,4.85,0,0,1,76.67,73.87Z"/><path class="cls-5" d="M86.91,90.31a8.77,8.77,0,0,1,0,.9,6.81,6.81,0,0,0-8.19-9.83A9,9,0,0,1,86.91,90.31Z"/><path class="cls-4" d="M74.05,87.85a6.84,6.84,0,0,0,12.82,3.36,8.77,8.77,0,0,0,0-.9,9,9,0,0,0-8.23-8.93A6.86,6.86,0,0,0,74.05,87.85Z"/><path class="cls-5" d="M71.43,95.41a4.22,4.22,0,0,1,3.09-2.93C76.94,92,85,93.35,85,93.35S83.85,95.78,71.43,95.41Z"/><path class="cls-5" d="M77.91,75.31c-1.61-1.77-4.7-1.22-7.21,1.33-2,2-1.78,5.8-1.65,7.06a8.88,8.88,0,0,1,2.12-5.41C73.34,76.09,75.87,75,77.91,75.31Z"/><path class="cls-4" d="M76.71,83.28c2.54-2.3,2.89-5.37,1.6-7.49-.12-.18-.27-.32-.4-.48-2-.27-4.57.78-6.74,3a8.88,8.88,0,0,0-2.12,5.41l0,.42S74.17,85.58,76.71,83.28Z"/><path class="cls-3" d="M78.11,74.4a4.91,4.91,0,0,1-2.28,2.31A4.09,4.09,0,0,1,78,71.16,4.88,4.88,0,0,1,78.11,74.4Z"/></g></g></svg>