<svg xmlns="http://www.w3.org/2000/svg" viewBox="0 0 27 29.78"><defs><style>.cls-1{fill:#03aed7;}</style></defs><g id="Capa_2" data-name="Capa 2"><g id="Arte"><path class="cls-1" d="M12.11,29.78a1.14,1.14,0,0,1-.4-.08,1,1,0,0,1-.59-1.05l1.25-10H1a1,1,0,0,1-.91-.58A1,1,0,0,1,.23,17L14.12.36A1,1,0,0,1,15.29.08a1,1,0,0,1,.59,1l-1.25,10H26a1,1,0,0,1,.91.58,1,1,0,0,1-.14,1.06L12.88,29.42A1,1,0,0,1,12.11,29.78Zm-9-13.11H13.5a1,1,0,0,1,.75.34,1,1,0,0,1,.24.78l-1,7.73L23.86,13.11H13.5a1,1,0,0,1-.75-.34,1,1,0,0,1-.24-.78l1-7.73Z"/></g></g></svg>