<?xml version="1.0" encoding="UTF-8"?><svg xmlns="http://www.w3.org/2000/svg" viewBox="0 0 948.1 578.06"><defs><style>.d{fill:#f4f5d2;}.e{fill:#fdf6e6;}.f{fill:#6b6a6a;}.g{fill:#a09f9f;}.h{fill:#bfbfbf;}.i,.j{fill:#878787;}.j{mix-blend-mode:multiply;opacity:.23;}.k{isolation:isolate;}.l{fill:#ffeddb;opacity:.37;}.m{fill:none;stroke:#878787;stroke-miterlimit:10;stroke-width:.5px;}</style></defs><g class="k"><g id="a"/><g id="b"><g id="c"><path class="h" d="M772.72,304.57c-9.26,8.06-8.77,23.77-8.77,23.77,0,0,15.5,2.66,24.76-5.4,9.26-8.06,8.77-23.77,8.77-23.77,0,0-15.5-2.66-24.76,5.4Z"/><path class="i" d="M319.71,132.52v202.8h29.61v51.01h-29.61v98.29h-63.7v-98.29H113.93v-40.81l169.21-213h36.58Zm-65.19,105.51l-76.89,97.29h78.38v-97.29h-1.49Z"/><path class="i" d="M857.7,132.52v202.8h29.61v51.01h-29.61v98.29h-63.7v-98.29h-142.08v-40.81l169.21-213h36.58Zm-65.19,105.51l-76.89,97.29h78.38v-97.29h-1.49Z"/><g><path class="g" d="M755.17,282.61c9.26,8.06,8.77,23.77,8.77,23.77,0,0-15.5,2.66-24.76-5.4-9.26-8.06-8.77-23.77-8.77-23.77,0,0,15.5-2.66,24.76,5.4Z"/><path class="i" d="M765.19,335.26v-66.79c0-.69-.56-1.24-1.24-1.24s-1.24,.56-1.24,1.24v66.79"/><circle class="g" cx="763.95" cy="228.89" r="42.9"/><g><path class="i" d="M763.95,280.01c.69,0,1.24-.56,1.24-1.24v-97.9c0-.69-.56-1.24-1.24-1.24s-1.24,.56-1.24,1.24v97.9c0,.69,.56,1.24,1.24,1.24Z"/><path class="i" d="M715,231.06h97.9c.69,0,1.24-.56,1.24-1.24,0-.69-.56-1.24-1.24-1.24h-97.9c-.69,0-1.24,.56-1.24,1.24,0,.69,.56,1.24,1.24,1.24Z"/><path class="i" d="M798.56,265.67c.32,0,.64-.12,.88-.36,.49-.49,.49-1.27,0-1.76l-69.22-69.22c-.49-.49-1.27-.49-1.76,0s-.49,1.27,0,1.76l69.22,69.22c.24,.24,.56,.36,.88,.36Z"/><path class="i" d="M729.33,265.67c.32,0,.64-.12,.88-.36l69.22-69.22c.49-.49,.49-1.27,0-1.76s-1.27-.49-1.76,0l-69.22,69.22c-.49,.49-.49,1.27,0,1.76,.24,.24,.56,.36,.88,.36Z"/></g><circle class="e" cx="763.95" cy="228.89" r="18.03"/><circle class="f" cx="763.95" cy="228.89" r="11.59"/></g><path class="j" d="M149.31,156l107.66,328.55,263.09,.29c.25-.79-366.96-332.62-366.96-332.62l-3.78,3.78Z"/><g><g><path class="g" d="M131.84,58.77l-15.52,10.98c-.71,.5-.88,1.48-.37,2.19,.5,.71,1.48,.88,2.19,.37l15.52-10.98c.71-.5,.88-1.48,.37-2.19-.5-.71-1.48-.88-2.19-.37Z"/><path class="g" d="M121.04,43.51l-15.52,10.98c-.71,.5-.88,1.48-.37,2.19,.5,.71,1.48,.88,2.19,.37l15.52-10.98c.71-.5,.88-1.48,.37-2.19-.5-.71-1.48-.88-2.19-.37Z"/></g><rect class="h" x="121.43" y="14.25" width="64.44" height="39.12" rx="1.94" ry="1.94" transform="translate(8.69 94.96) rotate(-35.28)"/><polygon class="d" points="155.84 34.19 166.23 48.87 163.66 50.68 153.27 36 128.25 53.7 126.44 51.14 151.46 33.44 141.07 18.75 141.07 18.75 143.63 16.94 143.63 16.94 154.02 31.62 179.04 13.92 180.86 16.48 155.84 34.19"/><g><path class="g" d="M58.65,91.51l15.52-10.98c.71-.5,.88-1.48,.37-2.19-.5-.71-1.48-.88-2.19-.37l-15.52,10.98c-.71,.5-.88,1.48-.37,2.19s1.48,.88,2.19,.37Z"/><path class="g" d="M69.44,106.76l15.52-10.98c.71-.5,.88-1.48,.37-2.19-.5-.71-1.48-.88-2.19-.37l-15.52,10.98c-.71,.5-.88,1.48-.37,2.19s1.48,.88,2.19,.37Z"/></g><g><path class="i" d="M114.95,103c7.84-5.55,12.48-12.48,10.37-15.47-2.12-2.99-10.19-.92-18.03,4.64-7.84,5.55-12.48,12.48-10.37,15.47,2.12,2.99,10.19,.92,18.03-4.63Z"/><path class="i" d="M96.99,107.72c.04,.06,.09,.11,.13,.16v.02c.07,.06,.12,.11,.18,.16l.04,.04s.09,.08,.14,.12l.03,.02c.06,.04,.12,.09,.18,.13,.02,.01,.03,.02,.05,.03,.05,.03,.1,.06,.15,.08,.02,0,.04,.02,.06,.03,.07,.03,.13,.07,.2,.1h.01c.07,.03,.13,.06,.2,.09,.02,0,.04,.02,.07,.02,.06,.02,.11,.04,.17,.06,.02,0,.04,.01,.06,.02,.08,.02,.16,.04,.24,.06h.03c.07,.02,.14,.04,.22,.05h.08c.07,.02,.13,.03,.2,.04,.02,0,.04,0,.07,0,.09,.01,.18,.02,.27,.03h.05c.08,0,.16,.01,.24,.02h.09c.09,0,.17,0,.26,0,.01,0,.03,0,.04,0,.1,0,.21,0,.32,0h.08c.09,0,.18-.01,.27-.02h.07c.12-.01,.24-.02,.36-.04h.08c.11-.02,.23-.04,.34-.05h.04c.14-.03,.28-.05,.42-.07h.08c.14-.04,.28-.07,.43-.1h.07c.17-.05,.35-.09,.53-.13l.07-.02c.18-.04,.36-.09,.54-.14l.1-.03c.08-.02,.17-.05,.25-.07,.04-.01,.08-.02,.13-.04,.09-.03,.17-.05,.26-.08,.04-.01,.07-.02,.11-.03,.12-.04,.25-.08,.37-.12l.06-.02c.11-.04,.21-.07,.32-.11l.09-.03c.21-.08,.42-.15,.64-.24l.08-.03c.21-.08,.43-.17,.64-.26l.08-.03c.22-.09,.44-.19,.67-.29l.06-.03c.23-.1,.47-.21,.7-.32l.04-.02c.25-.12,.49-.24,.74-.37h.01c.25-.13,.49-.26,.74-.39l.05-.03c.24-.13,.47-.25,.71-.39l.08-.04c.23-.13,.46-.26,.7-.4l.07-.04c.39-.23,.77-.46,1.16-.71l.04-.03c.3-.19,.61-.39,.91-.6l.07-.05c.26-.17,.52-.35,.77-.53,.05-.03,.1-.07,.15-.1,.23-.16,.45-.32,.67-.48l.03-.03c.25-.19,.5-.37,.75-.56l.03-.02c.23-.18,.47-.36,.69-.54l.06-.05c.22-.18,.43-.35,.65-.53l.07-.06c.21-.18,.42-.36,.62-.53l.07-.06c.21-.19,.42-.37,.62-.56l.04-.04c.22-.21,.44-.41,.66-.62l.03-.03c.22-.21,.43-.42,.64-.63l.05-.05c.23-.23,.45-.46,.66-.69l.07-.07c.09-.1,.18-.2,.27-.3l.07-.08c.11-.12,.21-.24,.31-.35l.05-.06c.12-.14,.24-.28,.35-.41l.02-.03c.12-.14,.23-.28,.34-.42l.05-.07c.15-.19,.29-.37,.43-.56l.02-.03c.14-.19,.28-.38,.41-.57,.03-.04,.05-.08,.08-.11,.03-.05,.07-.1,.1-.15,.03-.04,.05-.08,.08-.12,.03-.05,.06-.1,.09-.14,.03-.04,.05-.08,.08-.12,.03-.05,.06-.09,.09-.14,.03-.04,.05-.08,.07-.12,.03-.05,.06-.09,.08-.14,.02-.04,.05-.08,.07-.12,.03-.05,.05-.09,.08-.14,.02-.04,.05-.08,.07-.12,.02-.04,.05-.09,.07-.13,.02-.04,.04-.08,.07-.12,.02-.04,.05-.09,.07-.13,.02-.04,.04-.08,.06-.12,.02-.04,.04-.09,.07-.13,.02-.04,.04-.08,.06-.12,.02-.04,.04-.09,.06-.13,.02-.04,.04-.08,.05-.12,.02-.04,.04-.09,.06-.13,.02-.04,.03-.08,.05-.12,.02-.04,.04-.08,.05-.13,.02-.04,.03-.08,.05-.11,.02-.04,.03-.08,.05-.12,.01-.04,.03-.08,.04-.11,.01-.04,.03-.08,.04-.12,.01-.04,.03-.07,.04-.11,.01-.04,.03-.08,.04-.12,.01-.04,.02-.07,.03-.11,.01-.04,.02-.08,.03-.12,.01-.04,.02-.07,.03-.11,.01-.04,.02-.08,.03-.12,0-.04,.02-.07,.03-.11,0-.04,.02-.08,.03-.11,0-.04,.01-.07,.02-.1,0-.04,.01-.07,.02-.11,0-.03,.01-.07,.02-.1,0-.04,.01-.07,.02-.11,0-.03,0-.07,.01-.1,0-.04,0-.07,.01-.11,0-.03,0-.07,0-.1,0-.04,0-.07,0-.11,0-.03,0-.06,0-.1,0-.03,0-.07,0-.1,0-.03,0-.06,0-.09,0-.03,0-.07,0-.1,0-.03,0-.06,0-.09,0-.03,0-.07,0-.1,0-.03,0-.06,0-.09,0-.03,0-.07-.01-.1,0-.03,0-.06-.01-.09,0-.03-.01-.06-.02-.1,0-.03-.01-.05-.02-.08,0-.03-.02-.06-.02-.09,0-.03-.01-.05-.02-.08,0-.03-.02-.06-.03-.09,0-.03-.02-.05-.03-.08-.01-.03-.02-.06-.04-.09,0-.02-.02-.05-.03-.07-.01-.03-.03-.06-.04-.09-.01-.02-.02-.04-.03-.06-.02-.03-.04-.07-.06-.1,0-.02-.02-.03-.03-.05-.03-.05-.06-.1-.1-.15l14.18,20.01s.07,.1,.1,.15c.01,.02,.02,.03,.03,.05,.02,.03,.04,.07,.06,.1,.01,.02,.02,.04,.03,.06,.02,.03,.03,.06,.04,.09,.01,.02,.02,.05,.03,.07,.01,.03,.03,.06,.04,.09,0,.02,.02,.05,.03,.08,.01,.03,.02,.06,.03,.09,0,.03,.01,.05,.02,.08,0,.03,.02,.06,.02,.09,0,.03,.01,.05,.02,.08,0,.03,.01,.06,.02,.1,0,.03,0,.06,.01,.09,0,.03,0,.06,.01,.1,0,.03,0,.06,0,.09,0,.03,0,.07,0,.1,0,.03,0,.06,0,.09,0,.03,0,.07,0,.1,0,.03,0,.06,0,.09,0,.03,0,.07,0,.1,0,.03,0,.06,0,.1,0,.04,0,.07,0,.11,0,.03,0,.06,0,.1,0,.04,0,.07-.01,.11,0,.03,0,.07-.01,.1,0,.04-.01,.07-.02,.11,0,.03-.01,.07-.02,.1,0,.04-.01,.07-.02,.11,0,.03-.01,.07-.02,.1,0,.04-.02,.08-.03,.11,0,.04-.02,.07-.03,.11,0,.04-.02,.08-.03,.12,0,.04-.02,.07-.03,.11-.01,.04-.02,.08-.03,.12-.01,.04-.02,.07-.03,.11-.01,.04-.03,.08-.04,.12-.01,.04-.03,.07-.04,.11-.01,.04-.03,.08-.04,.12-.01,.04-.03,.08-.04,.11-.02,.04-.03,.08-.05,.12-.02,.04-.03,.08-.05,.11-.02,.04-.03,.08-.05,.13-.02,.04-.03,.08-.05,.12-.02,.04-.04,.09-.06,.13-.02,.04-.04,.08-.05,.12-.02,.04-.04,.09-.06,.13-.02,.04-.04,.08-.06,.12-.02,.04-.04,.09-.07,.13-.02,.04-.04,.08-.06,.12-.02,.04-.05,.09-.07,.13-.02,.04-.04,.08-.07,.12-.02,.04-.05,.09-.07,.13-.02,.04-.05,.08-.07,.12-.03,.05-.05,.09-.08,.14-.02,.04-.05,.08-.07,.12-.03,.05-.06,.09-.08,.14-.02,.04-.05,.08-.07,.12-.03,.05-.06,.09-.09,.14-.03,.04-.05,.08-.08,.12-.03,.05-.06,.1-.1,.14-.03,.04-.05,.08-.08,.12-.03,.05-.07,.1-.1,.15-.02,.03-.05,.07-.07,.1h0c-.13,.2-.27,.39-.41,.58l-.02,.03c-.14,.18-.28,.37-.42,.55l-.02,.02-.04,.04c-.11,.14-.22,.28-.34,.42l-.02,.03c-.11,.14-.23,.27-.35,.41l-.03,.04-.02,.02c-.1,.12-.21,.24-.31,.35l-.07,.08c-.09,.1-.18,.2-.27,.3l-.05,.05-.02,.02c-.21,.23-.43,.46-.66,.69l-.02,.02-.03,.03c-.21,.21-.42,.42-.64,.63l-.02,.02h-.01c-.21,.22-.43,.43-.66,.63h-.01l-.03,.04c-.2,.19-.41,.37-.62,.56l-.03,.03-.04,.03c-.2,.18-.41,.36-.62,.53l-.04,.03-.03,.03c-.21,.18-.43,.35-.65,.53l-.04,.03-.02,.02c-.23,.18-.46,.36-.69,.54l-.02,.02h-.01c-.25,.2-.5,.38-.75,.57h0l-.03,.03c-.22,.16-.44,.32-.67,.48l-.11,.07-.04,.03c-.26,.18-.51,.36-.77,.53l-.04,.03-.03,.02c-.3,.2-.61,.4-.91,.6h-.02l-.02,.03c-.39,.25-.77,.48-1.16,.71l-.03,.02-.04,.02c-.23,.14-.46,.27-.7,.4l-.08,.04c-.24,.13-.47,.26-.71,.39l-.05,.03c-.25,.13-.49,.26-.74,.38h-.01c-.25,.13-.5,.25-.74,.37l-.04,.02c-.23,.11-.47,.22-.7,.32l-.06,.03c-.22,.1-.45,.2-.67,.29l-.08,.03c-.22,.09-.43,.18-.65,.26l-.08,.03c-.21,.08-.43,.16-.64,.24h-.04l-.04,.03c-.11,.04-.22,.08-.33,.11l-.05,.02c-.12,.04-.25,.08-.37,.12-.04,.01-.07,.02-.1,.03-.09,.03-.18,.06-.27,.08-.04,.01-.08,.02-.12,.04-.09,.03-.17,.05-.26,.07l-.08,.02h-.02c-.18,.06-.37,.1-.54,.15l-.06,.02c-.18,.04-.35,.08-.53,.12h-.07c-.14,.04-.29,.07-.43,.1h-.08c-.14,.04-.29,.06-.43,.08h-.04c-.11,.02-.23,.04-.34,.05h-.08c-.12,.02-.24,.03-.36,.04h-.06c-.09,.01-.19,.02-.28,.02h-.08c-.11,0-.21,.01-.32,.01h0s-.02,0-.03,0c-.09,0-.18,0-.26,0-.03,0-.06,0-.08,0-.08,0-.16,0-.24-.01h-.05c-.09-.01-.18-.02-.27-.03h-.07c-.07-.02-.14-.03-.2-.04h-.08c-.07-.03-.15-.04-.22-.06h-.03c-.08-.03-.16-.05-.24-.07h-.02s-.03-.01-.04-.02c-.06-.02-.12-.04-.17-.06l-.07-.02c-.07-.02-.14-.05-.2-.08h-.01c-.07-.04-.14-.07-.2-.1-.02,0-.04-.02-.06-.03-.05-.03-.1-.06-.15-.08l-.03-.02h-.02c-.06-.05-.12-.09-.18-.14l-.03-.02s-.1-.08-.14-.12l-.03-.02-.02-.02c-.06-.05-.11-.1-.16-.16v-.02c-.06-.05-.11-.11-.15-.16l-.02-.02s-.03-.04-.04-.06l-14.18-20.01s.04,.06,.06,.08Z"/></g><g><path class="h" d="M100.64,82.77c9.87-6.99,15.9-15.43,13.48-18.86-2.42-3.43-12.39-.55-22.25,6.44-9.87,6.99-15.9,15.43-13.47,18.86,2.42,3.43,12.39,.55,22.25-6.44Z"/><path class="g" d="M78.45,89.3c.05,.06,.1,.13,.16,.18l.02,.02c.06,.06,.12,.12,.19,.18,.02,.01,.03,.03,.05,.04,.05,.05,.11,.09,.17,.13l.04,.03c.07,.05,.14,.09,.22,.14,.02,.01,.04,.02,.06,.03,.06,.03,.12,.06,.18,.09,.02,.01,.04,.02,.07,.03,.08,.04,.16,.07,.24,.1h.02c.08,.04,.16,.06,.24,.09,.03,0,.05,.02,.08,.02,.07,.02,.14,.04,.21,.06,.02,0,.05,.01,.07,.02,.09,.02,.19,.04,.29,.06h.04c.09,.02,.17,.04,.26,.05,.03,0,.06,0,.09,.01,.08,0,.16,.02,.25,.03,.03,0,.05,0,.08,0,.11,0,.22,.01,.33,.02,.02,0,.04,0,.07,0,.1,0,.19,0,.29,0h.1c.1,0,.21,0,.32,0h.05c.13,0,.26-.02,.39-.03h.1c.11-.02,.22-.03,.34-.04,.03,0,.05,0,.08,0,.14-.02,.29-.04,.44-.06,.03,0,.07-.01,.1-.02,.14-.02,.28-.04,.42-.07h.05c.17-.04,.35-.08,.52-.11l.1-.02c.17-.04,.35-.08,.53-.12l.08-.02c.21-.05,.43-.11,.65-.17l.08-.02c.22-.06,.44-.13,.67-.2,.04-.01,.08-.03,.13-.04,.1-.03,.21-.07,.31-.1,.05-.02,.1-.03,.16-.05,.11-.04,.22-.07,.32-.11,.04-.02,.09-.03,.13-.05,.15-.05,.3-.11,.46-.16l.07-.03c.13-.05,.26-.1,.39-.15l.11-.04c.26-.1,.52-.2,.79-.31l.1-.04c.26-.11,.53-.22,.8-.34l.1-.04c.27-.12,.55-.25,.83-.38l.08-.04c.29-.14,.58-.28,.87-.42l.05-.02c.31-.15,.62-.31,.93-.47h.02c.31-.17,.61-.33,.92-.5l.07-.04c.29-.16,.59-.33,.89-.5l.09-.05c.29-.17,.58-.34,.87-.51l.09-.05c.48-.29,.97-.59,1.45-.9l.05-.03c.38-.24,.76-.5,1.15-.75l.09-.06c.32-.22,.65-.44,.97-.67,.06-.04,.12-.08,.18-.13,.28-.2,.57-.4,.84-.61l.04-.03c.32-.23,.63-.47,.94-.71l.04-.03c.3-.23,.59-.45,.87-.68l.08-.06c.28-.22,.55-.44,.82-.66l.09-.08c.27-.22,.53-.44,.79-.66l.09-.07c.27-.23,.53-.46,.79-.69l.05-.05c.29-.26,.56-.51,.84-.77l.04-.04c.28-.26,.55-.52,.81-.78l.07-.07c.29-.28,.57-.57,.84-.85,.03-.03,.06-.06,.09-.09,.12-.12,.23-.24,.34-.36,.03-.03,.06-.07,.09-.1,.13-.15,.27-.29,.4-.43l.07-.08c.15-.17,.3-.34,.45-.51l.03-.03c.15-.17,.29-.34,.44-.51l.07-.08c.19-.23,.37-.46,.55-.68l.03-.03c.18-.24,.36-.47,.53-.7,.03-.05,.07-.09,.1-.14,.04-.06,.09-.12,.13-.18,.03-.05,.07-.1,.1-.15,.04-.06,.08-.12,.12-.18,.03-.05,.07-.1,.1-.15,.04-.06,.08-.11,.12-.17,.03-.05,.07-.1,.1-.15,.04-.06,.07-.11,.11-.17,.03-.05,.06-.1,.09-.15,.03-.06,.07-.11,.1-.16,.03-.05,.06-.1,.09-.15,.03-.05,.07-.11,.1-.16,.03-.05,.06-.1,.09-.15,.03-.05,.06-.11,.09-.16,.03-.05,.05-.1,.08-.15,.03-.05,.06-.11,.09-.16,.03-.05,.05-.1,.08-.14,.03-.05,.06-.11,.08-.16,.02-.05,.05-.09,.07-.14,.03-.05,.05-.1,.08-.16,.02-.05,.04-.09,.07-.14,.02-.05,.05-.1,.07-.15,.02-.05,.04-.09,.06-.14,.02-.05,.04-.1,.07-.15,.02-.05,.04-.09,.06-.14,.02-.05,.04-.1,.06-.15,.02-.05,.04-.09,.05-.13,.02-.05,.04-.1,.05-.14,.02-.04,.03-.09,.05-.13,.02-.05,.03-.1,.05-.14,.01-.04,.03-.09,.04-.13,.01-.05,.03-.09,.04-.14,.01-.04,.03-.09,.04-.13,.01-.05,.03-.09,.04-.14,.01-.04,.02-.08,.03-.13,.01-.04,.02-.09,.03-.13,0-.04,.02-.08,.03-.12,0-.04,.02-.09,.03-.13,0-.04,.01-.08,.02-.12,0-.04,.01-.09,.02-.13,0-.04,.01-.08,.02-.12,0-.04,0-.08,.01-.12,0-.04,0-.08,.01-.11,0-.04,0-.08,0-.12,0-.04,0-.07,0-.11,0-.04,0-.08,0-.12,0-.04,0-.07,0-.11,0-.04,0-.08,0-.12,0-.03,0-.07,0-.1,0-.04,0-.08-.01-.11,0-.03,0-.07-.01-.1,0-.04-.01-.08-.02-.11,0-.03-.01-.06-.02-.1,0-.04-.02-.07-.03-.11,0-.03-.01-.06-.02-.09,0-.04-.02-.07-.03-.11,0-.03-.02-.06-.03-.09-.01-.04-.03-.07-.04-.11-.01-.03-.02-.06-.03-.08-.02-.04-.03-.07-.05-.11-.01-.02-.02-.05-.03-.07-.02-.04-.04-.08-.06-.12-.01-.02-.02-.04-.03-.06-.03-.06-.07-.11-.11-.17l22.21,31.37c.04,.05,.07,.11,.11,.17,.01,.02,.02,.04,.03,.06,.02,.04,.04,.08,.06,.12,.01,.02,.02,.05,.03,.07,.02,.04,.03,.07,.05,.11,.01,.03,.02,.05,.03,.08,.01,.04,.03,.07,.04,.11,0,.03,.02,.06,.03,.09,.01,.04,.02,.07,.03,.11,0,.03,.01,.06,.02,.09,0,.04,.02,.07,.03,.11,0,.03,.01,.06,.02,.1,0,.04,.01,.07,.02,.11,0,.03,0,.07,.01,.1,0,.04,0,.08,.01,.11,0,.03,0,.07,0,.1,0,.04,0,.08,0,.12,0,.04,0,.07,0,.11,0,.04,0,.08,0,.12,0,.04,0,.07,0,.11,0,.04,0,.08,0,.12,0,.04,0,.08-.01,.11,0,.04,0,.08-.01,.13,0,.04-.01,.08-.02,.12,0,.04-.01,.09-.02,.13,0,.04-.01,.08-.02,.12,0,.04-.02,.09-.03,.13,0,.04-.02,.08-.03,.12-.01,.04-.02,.09-.03,.13-.01,.04-.02,.08-.03,.13-.01,.05-.02,.09-.04,.14-.01,.04-.02,.08-.04,.13-.01,.05-.03,.09-.04,.14-.01,.04-.03,.09-.04,.13-.02,.05-.03,.09-.05,.14-.02,.04-.03,.09-.05,.13-.02,.05-.04,.1-.05,.14-.02,.04-.03,.09-.05,.13-.02,.05-.04,.1-.06,.15-.02,.05-.04,.09-.06,.14-.02,.05-.04,.1-.07,.15-.02,.05-.04,.09-.06,.14-.02,.05-.05,.1-.07,.15-.02,.05-.04,.09-.07,.14-.03,.05-.05,.1-.08,.15-.02,.05-.05,.09-.07,.14-.03,.05-.05,.1-.08,.16-.03,.05-.05,.1-.08,.14-.03,.05-.06,.11-.09,.16-.03,.05-.05,.1-.08,.15-.03,.05-.06,.11-.09,.16-.03,.05-.06,.1-.09,.15-.03,.05-.06,.11-.1,.16-.03,.05-.06,.1-.09,.15-.03,.05-.07,.11-.1,.17-.03,.05-.06,.1-.09,.15-.04,.06-.07,.11-.11,.17-.03,.05-.06,.1-.1,.15-.04,.06-.08,.11-.12,.17-.03,.05-.07,.1-.1,.15-.04,.06-.08,.12-.12,.18-.03,.05-.07,.1-.1,.15-.04,.06-.09,.12-.13,.18-.03,.04-.06,.08-.09,.13h0c-.17,.24-.35,.48-.53,.71l-.03,.04c-.18,.23-.36,.45-.55,.68l-.02,.03s-.03,.04-.05,.05c-.14,.17-.29,.34-.43,.51l-.03,.03c-.15,.17-.3,.34-.45,.51l-.04,.05-.02,.03c-.13,.15-.26,.29-.4,.44-.03,.03-.06,.07-.09,.1-.11,.12-.23,.24-.35,.37-.02,.02-.04,.04-.06,.07l-.02,.02c-.27,.28-.55,.57-.84,.85l-.03,.03-.04,.04c-.26,.26-.53,.52-.81,.78l-.03,.03-.02,.02c-.27,.26-.55,.51-.84,.77l-.02,.02-.04,.03c-.26,.23-.52,.46-.79,.7l-.04,.03-.05,.04c-.26,.22-.52,.44-.79,.67l-.05,.04-.04,.03c-.27,.22-.54,.44-.82,.66l-.05,.04-.03,.02c-.29,.23-.58,.45-.87,.68l-.03,.02h-.01c-.31,.25-.62,.48-.94,.72h-.01l-.03,.03c-.28,.2-.56,.41-.84,.61l-.13,.09-.05,.03c-.32,.23-.65,.45-.97,.67l-.05,.04-.04,.03c-.38,.26-.76,.51-1.14,.75l-.03,.02-.03,.02c-.49,.31-.97,.61-1.45,.9l-.03,.02-.05,.03c-.29,.17-.58,.34-.87,.51l-.1,.05c-.3,.17-.59,.33-.89,.5l-.07,.04c-.31,.17-.62,.33-.92,.49h-.02c-.31,.17-.62,.33-.93,.48l-.05,.02c-.29,.14-.58,.28-.87,.42l-.08,.04c-.28,.13-.55,.25-.83,.38l-.1,.04c-.27,.12-.54,.23-.8,.34l-.09,.04c-.27,.11-.53,.21-.79,.31l-.05,.02-.05,.02c-.14,.05-.27,.1-.4,.15l-.06,.02c-.15,.06-.31,.11-.46,.16-.04,.02-.09,.03-.13,.04-.11,.04-.22,.08-.33,.11-.05,.02-.1,.03-.15,.05-.11,.03-.21,.07-.32,.1-.03,0-.06,.02-.09,.03h-.03c-.23,.08-.45,.14-.67,.21l-.08,.02c-.22,.06-.44,.12-.65,.17h-.05l-.04,.02c-.18,.04-.35,.08-.53,.12l-.1,.02c-.18,.04-.35,.07-.52,.1h-.05c-.14,.03-.28,.06-.42,.08-.03,0-.07,.01-.1,.02-.15,.02-.29,.04-.44,.06h-.08c-.11,.02-.23,.03-.34,.04-.03,0-.07,0-.1,0-.13,.01-.26,.02-.39,.02h-.05c-.11,0-.21,0-.32,0-.03,0-.07,0-.1,0-.1,0-.19,0-.29,0h-.07c-.11,0-.22-.01-.33-.02-.03,0-.05,0-.08,0-.08,0-.16-.02-.25-.03-.02,0-.04,0-.05,0h-.04c-.09-.02-.18-.03-.26-.05h-.04c-.1-.02-.19-.04-.29-.07h-.03s-.03-.01-.05-.02c-.07-.02-.14-.04-.21-.06-.03,0-.05-.02-.08-.02-.08-.03-.16-.05-.24-.08h-.02c-.08-.04-.17-.07-.24-.11-.02-.01-.04-.02-.07-.03-.06-.03-.12-.06-.18-.09-.01,0-.03-.01-.04-.02h-.02c-.07-.06-.15-.1-.22-.15l-.04-.03c-.06-.04-.11-.09-.17-.13,0,0-.02-.02-.03-.02l-.02-.02c-.07-.06-.13-.12-.19-.18l-.02-.02c-.05-.06-.11-.12-.16-.18,0,0-.02-.02-.02-.03-.02-.02-.03-.04-.05-.07l-22.21-31.37s.05,.06,.07,.09Z"/></g><path class="i" d="M110.49,67.82c.78-.55,.97-1.64,.42-2.42l-8.03-11.35c-.55-.78-1.64-.97-2.42-.42-.78,.55-.97,1.64-.42,2.42l8.03,11.35c.55,.78,1.64,.97,2.42,.42Z"/><path class="i" d="M83.3,87.05c.78-.55,.97-1.64,.42-2.42l-8.03-11.35c-.55-.78-1.64-.97-2.42-.42-.78,.55-.97,1.64-.42,2.42l8.03,11.35c.55,.78,1.64,.97,2.42,.42Z"/><path class="i" d="M98.86,79.77c.78-.55,.97-1.64,.42-2.42l-8.03-11.35c-.55-.78-1.64-.97-2.42-.42-.78,.55-.97,1.64-.42,2.42l8.03,11.35c.55,.78,1.64,.97,2.42,.42Z"/><g><path class="h" d="M79.65,53.11c9.87-6.99,15.9-15.43,13.48-18.86-2.42-3.43-12.39-.55-22.25,6.44-9.87,6.99-15.9,15.43-13.47,18.86,2.42,3.43,12.39,.55,22.25-6.44Z"/><path class="g" d="M57.47,59.65c.05,.06,.1,.13,.16,.18l.02,.02c.06,.06,.12,.12,.19,.18,.02,.01,.03,.03,.05,.04,.05,.05,.11,.09,.17,.13l.04,.03c.07,.05,.14,.09,.22,.14,.02,.01,.04,.02,.06,.03,.06,.03,.12,.06,.18,.09,.02,.01,.04,.02,.07,.03,.08,.04,.16,.07,.24,.1h.02c.08,.04,.16,.06,.24,.09,.03,0,.05,.02,.08,.02,.07,.02,.14,.04,.21,.06,.03,0,.05,.01,.07,.02,.09,.02,.19,.04,.29,.06h.04c.09,.02,.17,.04,.26,.05,.03,0,.06,0,.09,.01,.08,0,.16,.02,.25,.03,.03,0,.05,0,.08,0,.11,0,.22,.01,.33,.02h.07c.1,0,.19,0,.29,0h.1c.1,0,.21,0,.32,0h.05c.13,0,.26-.02,.39-.03h.1c.11-.02,.22-.03,.34-.04,.03,0,.05,0,.08,0,.14-.02,.29-.04,.44-.06,.03,0,.07-.01,.1-.02,.14-.02,.28-.04,.42-.07h.05c.17-.04,.35-.08,.52-.11l.1-.02c.17-.04,.35-.08,.53-.12l.08-.02c.21-.05,.43-.11,.65-.17l.08-.02c.22-.06,.44-.13,.67-.2,.04-.01,.08-.03,.13-.04,.1-.03,.21-.07,.31-.1,.05-.02,.1-.03,.16-.05,.11-.04,.22-.07,.32-.11,.04-.02,.09-.03,.13-.05,.15-.05,.3-.11,.46-.16l.07-.03c.13-.05,.26-.1,.39-.15,.04-.01,.07-.03,.11-.04,.26-.1,.52-.2,.79-.31l.1-.04c.26-.11,.53-.22,.8-.34l.1-.04c.27-.12,.55-.25,.83-.38l.08-.04c.29-.14,.58-.28,.87-.42l.05-.02c.31-.15,.62-.31,.93-.47h.02c.31-.17,.61-.33,.92-.5l.07-.04c.29-.16,.59-.33,.89-.5l.09-.05c.29-.17,.58-.34,.87-.51l.09-.05c.48-.29,.97-.59,1.45-.9l.05-.03c.38-.24,.76-.5,1.15-.75l.09-.06c.32-.22,.65-.44,.97-.67,.06-.04,.12-.08,.18-.13,.28-.2,.57-.4,.84-.61l.04-.03c.32-.23,.63-.47,.94-.71l.04-.03c.3-.23,.59-.45,.87-.68l.08-.06c.28-.22,.55-.44,.82-.66l.09-.08c.27-.22,.53-.44,.79-.66l.09-.07c.27-.23,.53-.46,.79-.69l.05-.05c.29-.26,.56-.51,.84-.77l.04-.04c.28-.26,.55-.52,.81-.78l.07-.07c.29-.28,.57-.57,.84-.85,.03-.03,.06-.06,.09-.09,.12-.12,.23-.24,.34-.36,.03-.03,.06-.07,.09-.1,.13-.15,.27-.29,.4-.43l.07-.08c.15-.17,.3-.34,.45-.51l.03-.03c.15-.17,.29-.34,.44-.51l.07-.08c.19-.23,.37-.46,.55-.68l.03-.03c.18-.24,.36-.47,.53-.7,.03-.05,.07-.09,.1-.14,.04-.06,.09-.12,.13-.18,.03-.05,.07-.1,.1-.15,.04-.06,.08-.12,.12-.18,.03-.05,.07-.1,.1-.15,.04-.06,.08-.11,.12-.17,.03-.05,.07-.1,.1-.15,.04-.06,.07-.11,.11-.17,.03-.05,.06-.1,.09-.15,.03-.06,.07-.11,.1-.16,.03-.05,.06-.1,.09-.15,.03-.05,.07-.11,.1-.16,.03-.05,.06-.1,.09-.15,.03-.05,.06-.11,.09-.16,.03-.05,.05-.1,.08-.15,.03-.05,.06-.11,.09-.16,.03-.05,.05-.1,.08-.14,.03-.05,.06-.11,.08-.16,.02-.05,.05-.09,.07-.14,.03-.05,.05-.1,.08-.16,.02-.05,.04-.09,.07-.14,.02-.05,.05-.1,.07-.15,.02-.05,.04-.09,.06-.14,.02-.05,.04-.1,.07-.15,.02-.05,.04-.09,.06-.14,.02-.05,.04-.1,.06-.15,.02-.05,.04-.09,.05-.13,.02-.05,.04-.1,.05-.14,.02-.04,.03-.09,.05-.13,.02-.05,.03-.1,.05-.14,.01-.04,.03-.09,.04-.13,.01-.05,.03-.09,.04-.14,.01-.04,.03-.09,.04-.13,.01-.05,.03-.09,.04-.14,.01-.04,.02-.08,.03-.13,.01-.04,.02-.09,.03-.13,0-.04,.02-.08,.03-.12,0-.04,.02-.09,.03-.13,0-.04,.01-.08,.02-.12,0-.04,.01-.09,.02-.13,0-.04,.01-.08,.02-.12,0-.04,0-.08,.01-.12,0-.04,0-.08,.01-.11,0-.04,0-.08,0-.12,0-.04,0-.07,0-.11,0-.04,0-.08,0-.12,0-.04,0-.07,0-.11,0-.04,0-.08,0-.12,0-.03,0-.07,0-.1,0-.04,0-.08-.01-.11,0-.03,0-.07-.01-.1,0-.04-.01-.08-.02-.11,0-.03-.01-.06-.02-.1,0-.04-.02-.07-.03-.11,0-.03-.01-.06-.02-.09,0-.04-.02-.07-.03-.11,0-.03-.02-.06-.03-.09-.01-.04-.03-.07-.04-.11-.01-.03-.02-.06-.03-.08-.02-.04-.03-.07-.05-.11-.01-.02-.02-.05-.03-.07-.02-.04-.04-.08-.06-.12-.01-.02-.02-.04-.03-.06-.03-.06-.07-.11-.11-.17l16.25,22.94c.04,.05,.07,.11,.11,.17,.01,.02,.02,.04,.03,.06,.02,.04,.04,.08,.06,.12,.01,.02,.02,.05,.03,.07,.02,.04,.03,.07,.05,.11,.01,.03,.02,.05,.03,.08,.01,.04,.03,.07,.04,.11,0,.03,.02,.06,.03,.09,.01,.04,.02,.07,.03,.11,0,.03,.01,.06,.02,.09,0,.04,.02,.07,.03,.11,0,.03,.01,.06,.02,.1,0,.04,.01,.07,.02,.11,0,.03,0,.07,.01,.1,0,.04,0,.08,.01,.11,0,.03,0,.07,0,.1,0,.04,0,.08,0,.12,0,.04,0,.07,0,.11,0,.04,0,.08,0,.12,0,.04,0,.07,0,.11,0,.04,0,.08,0,.12,0,.04,0,.08-.01,.11,0,.04,0,.08-.01,.13,0,.04-.01,.08-.02,.12,0,.04-.01,.09-.02,.13,0,.04-.01,.08-.02,.12,0,.04-.02,.09-.03,.13,0,.04-.02,.08-.03,.12-.01,.04-.02,.09-.03,.13-.01,.04-.02,.08-.03,.13-.01,.05-.02,.09-.04,.14-.01,.04-.02,.08-.04,.13-.01,.05-.03,.09-.04,.14-.01,.04-.03,.09-.04,.13-.02,.05-.03,.09-.05,.14-.02,.04-.03,.09-.05,.13-.02,.05-.04,.1-.05,.14-.02,.04-.03,.09-.05,.13-.02,.05-.04,.1-.06,.15-.02,.05-.04,.09-.06,.14-.02,.05-.04,.1-.07,.15-.02,.05-.04,.09-.06,.14-.02,.05-.05,.1-.07,.15-.02,.05-.04,.09-.07,.14-.03,.05-.05,.1-.08,.15-.02,.05-.05,.09-.07,.14-.03,.05-.05,.1-.08,.16-.03,.05-.05,.1-.08,.14-.03,.05-.06,.11-.09,.16-.03,.05-.05,.1-.08,.15-.03,.05-.06,.11-.09,.16-.03,.05-.06,.1-.09,.15-.03,.05-.06,.11-.1,.16-.03,.05-.06,.1-.09,.15-.03,.05-.07,.11-.1,.17-.03,.05-.06,.1-.09,.15-.04,.06-.07,.11-.11,.17-.03,.05-.06,.1-.1,.15-.04,.06-.08,.11-.12,.17-.03,.05-.07,.1-.1,.15-.04,.06-.08,.12-.12,.18-.03,.05-.07,.1-.1,.15-.04,.06-.09,.12-.13,.18-.03,.04-.06,.08-.09,.13h0c-.17,.24-.35,.48-.53,.71l-.03,.04c-.18,.23-.36,.45-.55,.68l-.02,.03s-.03,.04-.05,.05c-.14,.17-.29,.34-.43,.51l-.03,.03c-.15,.17-.3,.34-.45,.51l-.04,.05-.02,.03c-.13,.15-.26,.29-.4,.44-.03,.03-.06,.07-.09,.1-.11,.12-.23,.24-.35,.37-.02,.02-.04,.04-.06,.07l-.02,.02c-.27,.28-.55,.57-.84,.85l-.03,.03-.04,.04c-.26,.26-.53,.52-.81,.78l-.03,.03-.02,.02c-.27,.26-.55,.51-.84,.77l-.02,.02-.04,.03c-.26,.23-.52,.46-.79,.7l-.04,.03-.05,.04c-.26,.22-.52,.44-.79,.67l-.05,.04-.04,.03c-.27,.22-.54,.44-.82,.66l-.05,.04-.03,.02c-.29,.23-.58,.45-.87,.68l-.03,.02h-.01c-.31,.25-.62,.48-.94,.72h-.01l-.03,.03c-.28,.2-.56,.41-.84,.61l-.13,.09-.05,.03c-.32,.23-.65,.45-.97,.67l-.05,.04-.04,.03c-.38,.26-.76,.51-1.14,.75l-.03,.02-.03,.02c-.49,.31-.97,.61-1.45,.9l-.03,.02-.05,.03c-.29,.17-.58,.34-.87,.51l-.1,.05c-.3,.17-.59,.33-.89,.5l-.07,.04c-.31,.17-.62,.33-.92,.49h-.02c-.31,.17-.62,.33-.93,.48l-.05,.02c-.29,.14-.58,.28-.87,.42l-.08,.04c-.28,.13-.55,.25-.83,.38l-.1,.04c-.27,.12-.54,.23-.8,.34l-.09,.04c-.27,.11-.53,.21-.79,.31l-.05,.02-.05,.02c-.14,.05-.27,.1-.4,.15l-.06,.02c-.15,.06-.31,.11-.46,.16-.04,.02-.09,.03-.13,.04-.11,.04-.22,.08-.33,.11-.05,.02-.1,.03-.15,.05-.11,.03-.21,.07-.32,.1-.03,0-.06,.02-.09,.03h-.03c-.23,.08-.45,.14-.67,.21l-.08,.02c-.22,.06-.44,.12-.65,.17h-.05l-.04,.02c-.18,.04-.35,.08-.53,.12l-.1,.02c-.18,.04-.35,.07-.52,.1h-.05c-.14,.03-.28,.06-.42,.08-.03,0-.07,.01-.1,.02-.15,.02-.29,.04-.44,.06h-.08c-.11,.02-.23,.03-.34,.04-.03,0-.07,0-.1,0-.13,.01-.26,.02-.39,.02h-.05c-.11,0-.21,0-.32,0-.03,0-.07,0-.1,0-.1,0-.19,0-.29,0h-.07c-.11,0-.22-.01-.33-.02-.03,0-.05,0-.08,0-.08,0-.16-.02-.25-.03-.02,0-.04,0-.05,0h-.04c-.09-.02-.18-.03-.26-.05h-.04c-.1-.02-.19-.04-.29-.07h-.03s-.03-.01-.05-.02c-.07-.02-.14-.04-.21-.06-.03,0-.05-.02-.08-.02-.08-.03-.16-.05-.24-.08h-.02c-.08-.04-.17-.07-.25-.11-.02-.01-.04-.02-.07-.03-.06-.03-.12-.06-.18-.09-.01,0-.03-.01-.04-.02h-.02c-.07-.06-.15-.1-.22-.15l-.04-.03c-.06-.04-.11-.09-.17-.13,0,0-.02-.02-.03-.02l-.02-.02c-.07-.06-.13-.12-.19-.18l-.02-.02c-.05-.06-.11-.12-.16-.18,0,0-.02-.02-.02-.03-.02-.02-.03-.04-.05-.07l-16.25-22.94s.05,.06,.07,.09Z"/></g><rect class="h" x="4.61" y="96.91" width="64.44" height="39.12" rx="1.94" ry="1.94" transform="translate(-60.5 42.67) rotate(-35.28)"/><ellipse class="g" cx="137.22" cy="133.98" rx="48.16" ry="11.72" transform="translate(-52.18 103.86) rotate(-35.28)"/><path class="h" d="M155.23,159.92c.3-.21,.53-.54,.62-.93,.2-.84-.33-1.69-1.17-1.88l-49.86-11.56c-.84-.2-1.69,.33-1.88,1.17-.2,.84,.33,1.69,1.17,1.88l49.86,11.56c.45,.11,.91,0,1.26-.25Z"/><path class="h" d="M155.23,159.92c.35-.25,.6-.64,.65-1.11l5.69-51.01c.1-.86-.52-1.64-1.39-1.73-.86-.1-1.64,.52-1.73,1.39l-5.69,51.01c-.1,.86,.52,1.64,1.39,1.73,.4,.04,.78-.06,1.08-.28Z"/><path class="h" d="M155.23,159.92c.71-.5,.88-1.48,.37-2.19l-24.11-34.07c-.5-.71-1.48-.88-2.19-.37-.71,.5-.88,1.48-.37,2.19l24.11,34.07c.5,.71,1.48,.88,2.19,.37Z"/><ellipse class="g" cx="154.33" cy="158.64" rx="5.64" ry="2.38" transform="translate(-63.28 118.28) rotate(-35.28)"/><path class="h" d="M130.45,124.41c-21.71,15.36-36.28,32.1-32.54,37.38-6.29-8.89,5.03-30.22,26.74-45.59,21.71-15.36,45.6-18.93,51.89-10.05-3.74-5.28-24.37,2.89-46.08,18.25Z"/><polygon class="d" points="34.65 116.09 24.26 101.4 26.82 99.59 37.21 114.27 62.23 96.57 64.04 99.13 39.02 116.84 49.41 131.52 49.41 131.52 46.85 133.34 46.85 133.34 36.46 118.65 11.44 136.36 9.63 133.79 34.65 116.09"/></g><line class="m" x1="170.45" y1="484.62" x2="948.1" y2="484.62"/><g><g><path class="i" d="M778.69,409.96s1.55-5.79-2.42-8.75c0,0-2.74,5.47,2.42,8.75Z"/><path class="i" d="M680.9,425.93s2.58,6.13-1.94,10.24c0,0-3.92-5.4,1.94-10.24Z"/><path class="i" d="M623.16,414.14s2.58,6.13-1.94,10.24c0,0-3.92-5.4,1.94-10.24Z"/></g><path class="i" d="M591.1,407.38c9.89,3.82,22.28,7.27,33.8,10.16,19.23,4.84,38.11,7.26,56.42,7.26,11.69,0,23.15-.99,34.33-2.96,28.97-5.11,55.8-16.33,80.54-34.32l-1.01-4.92c-24.58,18.23-51.7,30.78-80.07,35.8-28.22,4.99-58.25,3.58-89.26-4.21-11.56-2.9-24.87-7.26-34.76-11.1"/><g><path class="f" d="M755.21,417.33l1.45-7.13s-1.24-5.94-1.45-5.79c-.22,.15,0-3.37,0-3.37,0,0,9.33-7.2,10.48-6.94,1.15,.25,2.9,7.7,1.3,11.61-1.6,3.91-4.36,8.27-4.36,8.27l-2.91,5.38-4.51-2.04Z"/><path class="f" d="M654.2,432.47l-3.38-4.66c.29-1.89,1.42-2.19,1-3.79-.43-1.6,1.17-8.14,.59-8.87-.58-.73-13.95-1.45-13.95-1.45,0,0,.28,8.58,.87,10.03,.58,1.45,5.09,5,5.09,5l7.56,9.83,2.23-6.09Z"/><path class="g" d="M776.46,531.9c-3.38,8.53-11.13,12.53-19.14,12.96-2.15,.12-4.32-.02-6.44-.41-.96-.16-1.91-.39-2.83-.66-12.96-3.77-23.47-15.36-28.85-31.78-.42-1.27,.27-2.63,1.54-3.04,1.26-.41,2.62,.27,3.04,1.54,2.31,7.04,9.42,23.93,25.61,28.64,.12,.04,.23,.06,.35,.09,8.4,2.31,18.64-.07,22.23-9.13,4.15-10.47-2.71-16.3-10.65-23.05-3.07-2.6-6.24-5.3-8.68-8.32-7.67-9.46-8.06-25.32-.85-34.62,3.22-4.15,9.59-7.12,15.03-4.42,1.2,.59,1.69,2.04,1.1,3.23-.59,1.19-2.04,1.68-3.24,1.09-3.04-1.5-7,.38-9.08,3.06-5.84,7.53-5.47,20.9,.79,28.62,2.16,2.67,5.02,5.1,8.06,7.68,8.17,6.94,17.44,14.82,12.01,28.51Z"/><path class="f" d="M720.44,556.42c-.36,.54-2.56,9.42-2.56,9.42l.27,5.08,2.35-3.66-.48,9.96,1.58,.83,2.13-1.68,5.54-1.6,.99-16.4-9.82-1.96Z"/><path class="f" d="M710.19,543.37s5.07,1.69,6.17,2.68c1.1,.99,.6,11.21,.68,12.78,.08,1.56-2.6,3.41-2.6,3.41l-.24-4.43-1.45,8.84-2.29,1.17-3.26-7.15,3.29-11.68-2.76-2.86,2.46-2.75Z"/><path class="g" d="M762.91,417.92c-1.23-1.03-7.22-4.95-7.23-5.67-6.71,17.47-18.93,32.16-30.94,46.51-3.23,3.86-6.72,7.9-11.52,9.44-7,2.25-14.42-1.48-20.59-5.47-13.7-8.86-26.08-19.59-38.41-30.28l-4.77,3.77c13.72,16.57,28.54,32.22,44.32,46.83,1.4,1.3,11.58,28.93,8.12,37.23-.02,.05-2.26-.15-2.49-.15-.92,0-1.85,.05-2.76,.16-1.5,.19-2.99,.5-4.42,.97-2.28,.74-4.45,1.85-6.39,3.27-2.06,1.5-4.86,4.19-2.05,6.41,4.71,3.72,9.42,7.42,14.38,10.82,3.67,2.52,7.43,4.91,11.26,7.17l1.93-6.21-6.18-6.28,9.14,2.36c.69,8.73,3.12,17.33,7.11,25.13,.87,1.7,1.96,3.49,3.76,4.12,2.11,.74,4.53-.46,5.84-2.28,1.32-1.81,1.77-4.1,2.12-6.31,1.86-12.02,1.39-24.4-1.37-36.25-.82-3.52-1.85-7.03-1.86-10.64-.01-2.74,18.99-62.24,30.3-88.41,.9-2.08,1.8-4.17,2.71-6.25Z"/><g><path class="e" d="M702.3,459.03c5.66-4.91,13.25-1.4,15.44,1.22,2.19,2.62,1.05,17.6-3.29,21.57-2.27,2.08-6.08,4.53-9.95,2.05-2.19-1.4-4.06-4.16-3.54-7.24,.52-3.08-4.55-12.5,1.33-17.6Z"/><path class="f" d="M699.9,471.19s.79-1.38,1.56-1.32c.5,.04,2.26,.82,2.6,.76,.55-.09,1.26-1.15,2.55-1.38,1.3-.22,4.97,.74,5.38,1.28,.41,.54,.83,1.22,.41,2.67-.12,.39-1.93,3.48-1.93,3.48,0,0,.21,5.31-.18,6.42-.39,1.11-7.29-.52-7.85-1.49-.65-1.12-1.46-4.53-1.4-5.48,0,0-.51,2.62,.34,4.97,5.6,15.51,17.13-.48,16.98-.84s1.1-5.65,.95-6.03,.24-2.67,.99-4.14c.75-1.46-.25-2.18-.53-2.74-.29-.56,.7-1.7,.59-2.34s.96-5.88-1.94-7.26c-2.9-1.38-6.42-1.37-6.42-1.37,0,0,1.73-.79-1.37-1.21-14.36-1.94-12.79,15.45-10.74,16.02Z"/><path class="e" d="M715.95,465.38s2.11-3.57,3.91-2.32c1.8,1.25,3.49,6.58,1.58,7.92-1.91,1.34-2.78,3.19-3.9,2.63l-1.59-8.23Z"/></g></g></g><path class="i" d="M509.33,132.52c35.17,0,63.08,15.84,83.73,47.53,20.65,31.69,30.98,74.98,30.98,129.89s-10.2,99.12-30.61,131.14c-20.4,32.02-48.27,48.03-83.61,48.03s-64.16-15.88-84.98-47.65c-20.82-31.77-31.23-75.27-31.23-130.51s10.36-98.58,31.1-130.51c20.73-31.93,48.93-47.9,84.6-47.9Zm-51.01,180.41c0,79.46,17,119.19,51.01,119.19s49.77-41.8,49.77-125.41c0-78.13-16.76-117.2-50.26-117.2s-50.51,41.14-50.51,123.42Z"/><g><g><g><path class="g" d="M370.23,260.58l.17,.03h.01c13.83,2.89,25.62,10.87,37.32,19.29,.25,.17,.49,.35,.74,.53,7.29,5.26,14.56,10.65,22.26,15.03,3.96,2.26,8.04,4.25,12.21,6.09,.28,.12,.55,.23,.83,.37,10,4.36,20.39,7.91,30.42,12.22,4.16,1.79,8.25,3.71,12.28,5.79,.31,.16,.62,.31,.92,.48,.2,.1,.4,.21,.6,.32,1.03,.54,2.04,1.07,3.04,1.64h.01c1.73,.94,3.44,1.91,5.14,2.92,.92,.54,1.82,1.07,2.72,1.63,5.92,3.61,11.64,7.55,17.1,11.81,.28,.2,.56,.42,.84,.64,6.56,5.17,10.21,17.72,18.46,16.8,7.05-.79,7.5,5.21,22.01-3.11l1.87-32.81c1.1-4.13-7.4-3.92-8.75-5.84-.94-1.35-1.9-2.68-2.9-4h0c-1.1-1.46-2.21-2.91-3.37-4.32-.2-.26-.41-.5-.62-.76-1.98-2.38-4.04-4.7-6.18-6.93-2.87-3.04-5.92-5.94-9.07-8.7-15.23-13.36-33.35-23.49-52.6-29.85-.74-.25-1.46-.48-2.19-.7-6.25-2-12.36-3.68-18.4-5.01h-.01c-1.69-.38-3.35-.73-5.03-1.04-2.78-.54-5.56-1.01-8.33-1.39h-.01c-8.2-1.15-16.35-1.66-24.67-1.48-.41,.01-.83,.02-1.23,.03-8.81,.27-17.79,1.29-27.18,3.1-8.64,1.67-14.29,4.73-18.48,6.37-.01,0-.02,.02-.03,.03-.37,.17-.31,.72,.1,.79Z"/><path class="i" d="M554.25,350v-1.7c-3.05-5.09-6.32-10.02-9.81-14.79h0c-.1-.17-.21-.32-.34-.47h-.01c-2.15-2.96-4.41-5.87-6.73-8.69-.21-.28-.44-.55-.67-.83h0c-2.08-2.52-4.22-4.97-6.41-7.35-.02-.03-.06-.07-.08-.09-4.15-4.53-8.49-8.83-13.02-12.9-3.03-2.75-6.14-5.38-9.31-7.89-.03-.03-.08-.06-.11-.09-2.4-1.9-4.85-3.73-7.34-5.5-.01-.01-.02-.02-.03-.02s-.01,0-.02-.02c-.07-.06-.15-.1-.21-.15-4.06-2.89-8.22-5.59-12.47-8.12-.02,0-.03-.01-.04-.02-1.38-.82-2.74-1.6-4.13-2.37-2.63-1.45-5.3-2.85-8-4.16h-.01c-.32-.16-.64-.31-.96-.47-.28-.15-.57-.29-.86-.42h-.01c-4.18-1.98-8.44-3.79-12.77-5.41,0,0-.01,0-.02-.01-2.05-.78-4.14-1.53-6.22-2.23-.7-.25-1.41-.48-2.11-.7h-.01c-9.1-2.94-18.41-5.12-27.79-6.54-.39-.07-.79-.12-1.2-.18-17.95-2.58-36.1-2.34-53.43,.93-.02,0-.06,.01-.08,.01-.23,.04-.39,.27-.35,.5,.04,.23,.26,.39,.5,.35,.06-.01,.13-.02,.19-.03h.01c17.5-3.28,35.86-3.47,53.98-.75,.04,.01,.09,.02,.13,.02h.01c4.54,.67,9.07,1.53,13.56,2.59h.01c.44,.09,.86,.19,1.29,.3,4.93,1.17,9.81,2.58,14.63,4.19,6.43,2.15,12.74,4.67,18.89,7.56,.29,.13,.58,.28,.88,.41,.85,.4,1.69,.82,2.54,1.23,2.28,1.14,4.53,2.33,6.77,3.57,6,3.33,11.84,7.06,17.47,11.12,.09,.04,.17,.11,.26,.18,2.06,1.48,4.09,3.01,6.08,4.6,.07,.04,.13,.09,.19,.15,3.14,2.47,6.21,5.05,9.19,7.74,2.25,2.02,4.46,4.09,6.62,6.24,.01,0,.02,.01,.03,.02h.01c.08,.08,.17,.17,.25,.25,2.07,2.05,4.09,4.15,6.06,6.3,.03,.03,.07,.07,.09,.1,4.86,5.28,9.45,10.85,13.73,16.67,.21,.27,.41,.54,.59,.81"/></g><path class="i" d="M407.73,279.9c.24,.17,.49,.35,.73,.53,9.28-7.37,19.59-13.22,30.71-17.45,.1-.03,.19-.12,.23-.21,.06-.1,.07-.23,.02-.35-.09-.23-.34-.35-.57-.25-.25,.09-.51,.2-.75,.3-10.99,4.25-21.18,10.1-30.37,17.42Z"/><path class="i" d="M415.83,250.28c2.85,2.6,5.45,5.47,7.73,8.57,.21,.28,.42,.56,.61,.84,.06,.08,.14,.14,.22,.16,.05,.01,.08,.02,.13,.02h.01c.09,0,.16-.02,.24-.08,.2-.14,.24-.4,.1-.6-.03-.06-.08-.1-.12-.16-2.26-3.18-4.85-6.13-7.69-8.79-.42,.01-.83,.02-1.24,.03Z"/><path class="i" d="M442.93,301.55c.28,.13,.56,.24,.83,.37,4.58-4.95,9.5-9.34,13.84-13.21,5.37-4.79,10.66-9.45,16.19-13.76,.25-.21,.51-.4,.76-.59,.12-.1,.23-.18,.35-.28,.2-.15,.23-.42,.08-.61-.15-.19-.42-.22-.6-.08-.23,.17-.46,.36-.69,.54h-.01c-.25,.2-.51,.39-.76,.6-5.44,4.25-10.62,8.83-15.89,13.52-4.42,3.95-9.43,8.42-14.09,13.49Z"/><path class="i" d="M536.79,324.83s.07,.01,.1,.01c.2,0,.37-.13,.43-.32,.01-.06,.03-.12,.05-.17,1.63-6.29,3.91-12.4,6.8-18.23-.2-.25-.4-.51-.61-.76-2.89,5.81-5.19,11.89-6.86,18.16-.08,.27-.15,.53-.22,.8-.06,.23,.08,.46,.31,.52Z"/></g><g><path class="h" d="M448.92,261.95c10.33,10.93,34.26,29.54,34.26,29.54l14.77,11.81s-.28,.56-.53,1.52h0c-.67,2.58-1.09,7.96,4.81,13.11,5.78,5.06,17.28,1.04,35.3-3.69,13.58-3.56,24.38-11.66,4.43-16.54,0,0,1.48-28.06-17.72-40.17-19.19-12.11-40.17-19.8-44.9-23.34-4.72-3.54-4.13-9.75-10.92-12.99-6.79-3.25-10.04,.88-15.65,.88-5.46,0-15.67-4.45-17.85,1.53-.07,.17-.13,.35-.17,.54-1.77,6.79,3.84,26.88,14.18,37.81Z"/><path class="l" d="M448.92,261.95c10.33,10.93,34.26,29.54,34.26,29.54l14.77,11.81s-.28,.56-.53,1.52c3.12-3.97,6.95-7.38,11.25-10.03-13.72-8.36-27.32-17.07-39.63-27.43-12.3-10.35-23.32-22.46-31.04-36.56-1.26-2.29-2.43-4.69-3.09-7.2-.07,.17-.13,.35-.17,.54-1.77,6.79,3.84,26.88,14.18,37.81Z"/><circle class="e" cx="461.71" cy="252.09" r="12.11"/><path class="i" d="M505.04,318.22s-9.9,14.92-10.93,13.59c-1.03-1.33,5.61-13.44,5.61-13.44,0,0-12.41,6.5-13.59,4.87-1.18-1.62,10.93-8.27,10.93-8.27,0,0-13.88,.44-14.18-1.33-.3-1.77,16.69-6.2,16.69-6.2l5.46,10.78Z"/><path class="h" d="M490.41,270.81s12.55,18.91,10.49,25.26-30.43,2.51-37.22,1.48c-6.79-1.03-15.36-5.32-15.21-6.2,.15-.89,12.55,1.92,12.55,1.92,0,0-11.37-8.86-9.75-10.34,1.62-1.48,12.85,6.5,12.85,6.5,0,0-5.76-11.22-4.58-11.82,1.18-.59,9.01,10.04,9.01,10.04l15.36,1.18-12.41-20.68,15.95,1.03,2.95,1.62Z"/><path class="h" d="M498.75,302.31c-4.49,3.82-1.63,11.23,2.64,14.94,4.78,4.16,11.57,3.17,17.2,1.71,10.3-2.67,21.91-3.71,31.1-9.51,3.89-2.46,4.4-6.05,.2-8.7-8.6-5.43-18.17-2.42-26.8,1.17-1.26,.52-6.17,3.47-7.7,2.9,0,0,7.84-23.32-16.62-2.51Z"/></g></g></g></g></g></svg>