<svg xmlns="http://www.w3.org/2000/svg" viewBox="0 0 110.87 172.51"><defs><style>.cls-1{fill:#f2efe9;}.cls-2{fill:#ff9100;}.cls-3{fill:#4473fd;}.cls-4{fill:#1a2e35;}.cls-5,.cls-6{fill:none;}.cls-5{stroke:#ff9100;stroke-miterlimit:10;}</style></defs><g id="Capa_2" data-name="Capa 2"><g id="Layer_1" data-name="Layer 1"><path class="cls-1" d="M36.7,79.1s-1.82,3.24-4.35,3.24H9.81c-5.73,0-5.76,2.27-9.81,6.32H41.46Z"/><path class="cls-2" d="M36,78.31a8,8,0,0,1,.17,11.9l3.16.33c4.22.45,8.46,1,8.46,1V76.26S41,77.56,36,78.31Z"/><path class="cls-3" d="M38.73,84.34a8.06,8.06,0,0,0-2.72-6c-1.5.23-2.83.4-3.74.48a5.71,5.71,0,0,0-5.55,5.55A5.37,5.37,0,0,0,28,87.8a6,6,0,0,0,4.3,2.09c.94,0,2.34.17,3.91.32A8,8,0,0,0,38.73,84.34Z"/><path class="cls-4" d="M61,92.85H97.85a8,8,0,0,0,0-16.06H59.05"/><polygon class="cls-2" points="64.77 92.85 89.26 84.68 64.77 76.79 64.77 92.85"/><polyline class="cls-5" points="101.5 96.34 89.26 84.68 100.81 74.07"/><line class="cls-5" x1="110.87" y1="84.66" x2="86.99" y2="84.66"/><path class="cls-6" d="M64.77,79V93.52a60.72,60.72,0,0,1,6.41-7.27A59.86,59.86,0,0,1,64.77,79Z"/><path class="cls-3" d="M64.77,93.52V79a60.12,60.12,0,0,1,.37-72.36C56.11,11,47,17.2,47,24.68V147.83c0,7.48,9.14,13.71,18.17,18a60.12,60.12,0,0,1-.37-72.36Z"/><path class="cls-4" d="M71.22,165.1a26.23,26.23,0,0,1-6.45-17.16V93.52a60.12,60.12,0,0,0,.37,72.36,120.88,120.88,0,0,0,17.44,6.63A22.25,22.25,0,0,1,71.22,165.1Z"/><path class="cls-4" d="M64.77,79V24.57A26.23,26.23,0,0,1,71.22,7.41,22.25,22.25,0,0,1,82.58,0,120.88,120.88,0,0,0,65.14,6.63,60.12,60.12,0,0,0,64.77,79Z"/></g></g></svg>