<svg xmlns="http://www.w3.org/2000/svg" viewBox="0 0 132.75 62"><defs><style>.cls-1{fill:#fff;}</style></defs><g id="Capa_2" data-name="Capa 2"><g id="Capa_1-2" data-name="Capa 1"><polygon class="cls-1" points="65.58 8.22 65.58 0.8 47.38 0.8 47.38 34.26 16.15 0.8 0 0.8 0 61.2 18.03 61.2 18.03 27.56 49.34 61.2 65.58 61.2 65.58 12.69 63.37 12.69 63.37 18.35 58.9 18.35 58.9 12.69 53.24 12.69 53.24 8.22 58.9 8.22 58.9 2.56 63.37 2.56 63.37 8.22 65.58 8.22"/><path class="cls-1" d="M108.67,27.92V40.06h8.21v7.13a32.06,32.06,0,0,1-7.42.9c-12.66,0-19-8-19-17,0-6.34,3.93-18.12,21-18.12a37.44,37.44,0,0,1,20.07,5.62V4.37A72.39,72.39,0,0,0,107.06,0C98.94,0,90.37.9,81.72,7.67c-7,5.54-9.81,15.17-9.81,23.2C71.91,52.64,88.33,62,106.07,62a75.22,75.22,0,0,0,17-2,75.12,75.12,0,0,0,9.71-3.13v-29Z"/></g></g></svg>