<svg xmlns="http://www.w3.org/2000/svg" viewBox="0 0 132.75 62.01"><defs><style>.cls-1{fill:#fff;}</style></defs><g id="Capa_2" data-name="Capa 2"><g id="Capa_1-2" data-name="Capa 1"><polygon class="cls-1" points="16.15 0.8 47.37 34.26 47.37 0.8 65.57 0.8 65.57 61.2 49.34 61.2 18.02 27.57 18.02 61.2 0 61.2 0 0.8 16.15 0.8"/><path class="cls-1" d="M131.59,18.65A37.29,37.29,0,0,0,111.52,13C94.39,13,90.46,24.8,90.46,31.14c0,8.92,6.34,17,19,17a32.57,32.57,0,0,0,7.4-.89V40.06h-8.21V27.93h24.09v29A76.27,76.27,0,0,1,123,60a75.05,75.05,0,0,1-17,2c-17.76,0-34.17-9.37-34.17-31.14,0-8,2.76-17.67,9.81-23.2C90.38.89,98.94,0,107.06,0a72.39,72.39,0,0,1,24.53,4.37Z"/></g></g></svg>