<svg xmlns="http://www.w3.org/2000/svg" viewBox="0 0 129.18 77.98"><defs><style>.cls-1{fill:#fff;}</style></defs><g id="Capa_2" data-name="Capa 2"><g id="Capa_1-2" data-name="Capa 1"><path class="cls-1" d="M71.85,66.26,59,78a108.28,108.28,0,0,1-30-11.45A38.41,38.41,0,0,1,20.1,60.4C10.82,57.06,0,47.87,0,31.28,0,15.51,10.73,0,34.62,0S69.23,15.51,69.23,31.28c0,15.51-9.37,24.79-19.2,28.85,4.15,1.89,11.63,5.23,21.28,5.14ZM34.62,47c10.18,0,15.86-6.58,15.86-15.69S44.8,15.69,34.62,15.69c-10,0-15.87,6.4-15.87,15.59S24.61,47,34.62,47"/><path class="cls-1" d="M106.82.81c17,0,22.36,11.09,22.36,19.2s-5.32,18.93-22.36,18.93H94.74v22.9H76.35V.81ZM94.74,12.53V27.22h4c8.65,0,11.72-1.26,11.72-7.12s-3.07-7.57-11.81-7.57Z"/></g></g></svg>