<svg xmlns="http://www.w3.org/2000/svg" viewBox="0 0 126.52 61.32"><defs><style>.cls-1{fill:#fff;}</style></defs><g id="Capa_2" data-name="Capa 2"><g id="Capa_1-2" data-name="Capa 1"><polygon class="cls-1" points="61.76 0.79 61.76 15.35 39.88 15.35 39.88 60.52 21.88 60.52 21.88 15.35 0 15.35 0 0.79 61.76 0.79"/><path class="cls-1" d="M125.38,18.44a37,37,0,0,0-19.85-5.56c-16.94,0-20.83,11.65-20.83,17.91,0,8.82,6.27,16.76,18.8,16.76a32,32,0,0,0,7.32-.88V39.61H102.7v-12h23.82V56.29a78.37,78.37,0,0,1-9.61,3.09,74.8,74.8,0,0,1-16.77,1.94c-17.55,0-33.79-9.27-33.79-30.79,0-7.94,2.74-17.47,9.71-22.94C84.62.88,93.09,0,101.11,0a71.83,71.83,0,0,1,24.27,4.32Z"/></g></g></svg>