<svg xmlns="http://www.w3.org/2000/svg" viewBox="0 0 208.42 11.24"><defs><style>.cls-1{fill:#666;}</style></defs><g id="Capa_2" data-name="Capa 2"><g id="Capa_1-2" data-name="Capa 1"><path class="cls-1" d="M9.68,2.22a7.61,7.61,0,0,0-3.8-1.08,4.45,4.45,0,0,0-4.6,4.51A4.37,4.37,0,0,0,5.83,10.1a7.66,7.66,0,0,0,4-1.16v1.31a8.43,8.43,0,0,1-3.94,1A5.59,5.59,0,0,1,0,5.65,5.66,5.66,0,0,1,5.78,0a9.61,9.61,0,0,1,3.9.92Z"/><path class="cls-1" d="M14.14,5.62A5.59,5.59,0,0,1,20,0a5.63,5.63,0,1,1-.06,11.24A5.61,5.61,0,0,1,14.14,5.62Zm10.42,0A4.45,4.45,0,0,0,20,1.14a4.43,4.43,0,0,0-4.56,4.5A4.43,4.43,0,0,0,19.9,10.1,4.47,4.47,0,0,0,24.56,5.59Z"/><path class="cls-1" d="M32.31,10h5.17V11.1H31.1V.14h1.21Z"/><path class="cls-1" d="M41.07,5.62A5.58,5.58,0,0,1,46.91,0a5.63,5.63,0,1,1-.06,11.24A5.61,5.61,0,0,1,41.07,5.62Zm10.42,0a4.57,4.57,0,0,0-9.14,0,4.57,4.57,0,0,0,9.14,0Z"/><path class="cls-1" d="M68.13,11.1h-1.2V2L63.16,6.65H63L59.24,2V11.1H58V.14h1.16L63.09,5,67,.14h1.15Z"/><path class="cls-1" d="M76.67.14c1.62,0,3.48.63,3.48,2.85a2.48,2.48,0,0,1-1.62,2.36,2.82,2.82,0,0,1,2.59,2.81,3,3,0,0,1-3.23,2.94h-4V.14ZM75.13,1.2V5h1.19c1.83,0,2.55-.76,2.55-1.95,0-1.35-.79-1.88-2.55-1.88Zm0,4.89V10h1.94c2.36,0,2.76-1,2.76-2s-.61-2-2.79-2Z"/><path class="cls-1" d="M87.24,11.1H86V.14h1.2Z"/><path class="cls-1" d="M102.49,11.1h-1.26L99.64,7.58h-5L93.07,11.1H91.82l4.87-11h.8ZM97.09,2l-2,4.54h4.05Z"/><path class="cls-1" d="M120.35,1.2h-4.89V5h4.75V6.1h-4.75V10h5V11.1h-6.23V.14h6.1Z"/><path class="cls-1" d="M135.5,11.1h-1l-7.82-9v9h-1.17V.14h1l7.82,9v-9h1.17Z"/><path class="cls-1" d="M158.62,11.1h-1.2V2l-3.78,4.67h-.12L149.73,2V11.1h-1.21V.14h1.16L153.58,5,157.47.14h1.15Z"/><path class="cls-1" d="M173.82,11.1h-1.25L171,7.58h-5l-1.56,3.52h-1.25L168,.08h.8ZM168.43,2l-2,4.54h4Z"/><path class="cls-1" d="M181.49.14c2.75,0,3.61,1.51,3.61,3s-.86,3-3.61,3h-1.93V11.1h-1.2V.14ZM179.56,1.2V5.09h1.8c2.2,0,2.46-1.16,2.46-1.94s-.26-1.95-2.46-1.95Z"/><path class="cls-1" d="M198.36,11.1H197.1l-1.59-3.52h-5L189,11.1h-1.26l4.87-11h.8ZM193,2l-2,4.54H195Z"/><path class="cls-1" d="M208,2.09a4.26,4.26,0,0,0-2.49-1,1.81,1.81,0,0,0-2,1.69c0,1.11,1.11,1.67,2.07,2.15,2.14,1.06,2.91,1.69,2.91,3.31a3,3,0,0,1-3.2,3,5.1,5.1,0,0,1-2.87-1V8.77a4.25,4.25,0,0,0,2.84,1.38,1.89,1.89,0,0,0,2-1.83c0-.69-.21-1.35-2.46-2.41-1.85-.87-2.52-1.78-2.52-3A3,3,0,0,1,205.49,0,4.76,4.76,0,0,1,208,.72Z"/></g></g></svg>