<?xml version="1.0" encoding="utf-8"?>
<!-- Generator: Adobe Illustrator 24.1.3, SVG Export Plug-In . SVG Version: 6.00 Build 0)  -->
<svg version="1.1" id="Capa_1" xmlns="http://www.w3.org/2000/svg" xmlns:xlink="http://www.w3.org/1999/xlink" x="0px" y="0px"
	 viewBox="0 0 481.9 41.4" style="enable-background:new 0 0 481.9 41.4;" xml:space="preserve">
<style type="text/css">
	.st0{fill:#666666;}
</style>
<g id="a">
</g>
<g>
	<path class="st0" d="M11.2,23.6v1.8c-1.2,0.6-2.6,1-4.2,1c-1.3,0-2.4-0.3-3.2-0.8s-1.6-1.2-2.1-2.1s-0.8-1.9-0.8-2.9
		c0-1.7,0.6-3.1,1.8-4.2s2.7-1.7,4.4-1.7c1.2,0,2.5,0.3,4,0.9v1.8c-1.3-0.8-2.6-1.1-3.9-1.1s-2.4,0.4-3.3,1.2s-1.3,1.9-1.3,3.1
		s0.4,2.3,1.3,3.1s1.9,1.2,3.3,1.2S9.9,24.4,11.2,23.6L11.2,23.6z"/>
	<path class="st0" d="M16.5,14.8H23v1.5h-4.8v3.5h4.7v1.5h-4.7v3.5h5v1.5h-6.6L16.5,14.8L16.5,14.8z"/>
	<path class="st0" d="M37.4,14.8h1.6v11.4h-1.4l-7.6-8.8v8.8h-1.5V14.8h1.3l7.7,8.9V14.8z"/>
	<path class="st0" d="M43.7,14.8h9.6v1.5h-4v10h-1.6v-10h-3.9L43.7,14.8L43.7,14.8z"/>
	<path class="st0" d="M58.2,26.3V14.8h2.9c1.2,0,2.1,0.3,2.8,0.9c0.7,0.6,1,1.3,1,2.3c0,0.7-0.2,1.2-0.5,1.7s-0.8,0.9-1.4,1.1
		c0.4,0.2,0.7,0.6,1.1,1c0.3,0.4,0.8,1.1,1.5,2.2c0.4,0.6,0.7,1.1,1,1.5l0.6,0.8h-1.9l-0.5-0.8c0,0-0.1-0.1-0.1-0.1l-0.3-0.5
		l-0.5-0.8l-0.6-0.9c-0.3-0.5-0.7-0.8-0.9-1.1s-0.5-0.5-0.8-0.6s-0.6-0.2-1.1-0.2h-0.4v5L58.2,26.3L58.2,26.3z M60.3,16.2h-0.5v3.6
		h0.6c0.8,0,1.4-0.1,1.7-0.2s0.6-0.4,0.7-0.6s0.3-0.6,0.3-1s-0.1-0.7-0.3-1c-0.2-0.3-0.5-0.5-0.8-0.6S61.1,16.2,60.3,16.2z"/>
	<path class="st0" d="M76.2,14.7c1.8,0,3.2,0.6,4.4,1.7c1.2,1.1,1.8,2.5,1.8,4.2s-0.6,3.1-1.8,4.2s-2.7,1.7-4.5,1.7
		s-3.2-0.5-4.3-1.7c-1.2-1.1-1.7-2.5-1.7-4.1s0.6-3.1,1.7-4.2C73,15.2,74.5,14.7,76.2,14.7L76.2,14.7z M76.3,16.2
		c-1.3,0-2.4,0.4-3.2,1.2c-0.8,0.8-1.3,1.9-1.3,3.1s0.4,2.3,1.3,3.1c0.8,0.8,1.9,1.2,3.2,1.2s2.3-0.4,3.2-1.2
		c0.8-0.8,1.3-1.9,1.3-3.1s-0.4-2.2-1.3-3.1S77.6,16.2,76.3,16.2L76.3,16.2z"/>
	<path class="st0" d="M95.8,26.2V14.8h3.9c1.6,0,2.8,0.2,3.7,0.7s1.6,1.2,2.2,2.1c0.5,0.9,0.8,1.9,0.8,3c0,0.8-0.1,1.5-0.4,2.2
		c-0.3,0.7-0.7,1.3-1.3,1.8c-0.6,0.5-1.2,1-1.9,1.2c-0.4,0.2-0.8,0.3-1.2,0.3s-1.1,0.1-2.1,0.1H95.8L95.8,26.2z M99.5,16.3h-2v8.5
		h2.1c0.8,0,1.4-0.1,1.9-0.2s0.8-0.2,1.1-0.4s0.6-0.4,0.8-0.6c0.8-0.8,1.2-1.9,1.2-3.1s-0.4-2.2-1.2-3c-0.3-0.3-0.7-0.5-1.1-0.7
		c-0.4-0.2-0.8-0.3-1.1-0.4S100.3,16.3,99.5,16.3L99.5,16.3z"/>
	<path class="st0" d="M111.7,14.8h6.5v1.5h-4.8v3.5h4.7v1.5h-4.7v3.5h5v1.5h-6.6L111.7,14.8L111.7,14.8z"/>
	<path class="st0" d="M141.3,23.6v1.8c-1.2,0.6-2.6,1-4.2,1c-1.3,0-2.4-0.3-3.2-0.8s-1.6-1.2-2.1-2.1s-0.8-1.9-0.8-2.9
		c0-1.7,0.6-3.1,1.8-4.2s2.6-1.7,4.4-1.7c1.2,0,2.5,0.3,4,0.9v1.8c-1.3-0.8-2.6-1.1-3.9-1.1s-2.4,0.4-3.3,1.2s-1.3,1.9-1.3,3.1
		s0.4,2.3,1.3,3.1s1.9,1.2,3.3,1.2S139.9,24.4,141.3,23.6L141.3,23.6z"/>
	<path class="st0" d="M152.2,14.7c1.8,0,3.2,0.6,4.4,1.7s1.8,2.5,1.8,4.2s-0.6,3.1-1.8,4.2s-2.7,1.7-4.5,1.7s-3.2-0.5-4.3-1.7
		c-1.1-1.1-1.7-2.5-1.7-4.1s0.6-3.1,1.7-4.2C149,15.2,150.5,14.7,152.2,14.7L152.2,14.7z M152.3,16.2c-1.3,0-2.4,0.4-3.2,1.2
		s-1.3,1.9-1.3,3.1s0.4,2.3,1.3,3.1c0.8,0.8,1.9,1.2,3.2,1.2s2.3-0.4,3.2-1.2s1.3-1.9,1.3-3.1s-0.4-2.2-1.3-3.1
		S153.6,16.2,152.3,16.2L152.3,16.2z"/>
	<path class="st0" d="M172.9,14.8h1.6v11.4H173l-7.6-8.8v8.8h-1.5V14.8h1.3l7.7,8.9L172.9,14.8L172.9,14.8z"/>
	<path class="st0" d="M179.2,14.8h9.6v1.5h-4v10h-1.6v-10h-3.9L179.2,14.8L179.2,14.8z"/>
	<path class="st0" d="M193.7,26.3V14.8h2.9c1.2,0,2.1,0.3,2.8,0.9c0.7,0.6,1,1.3,1,2.3c0,0.7-0.2,1.2-0.5,1.7s-0.8,0.9-1.4,1.1
		c0.4,0.2,0.7,0.6,1.1,1s0.8,1.1,1.5,2.2c0.4,0.6,0.7,1.1,1,1.5l0.6,0.8h-1.9l-0.5-0.8c0,0-0.1-0.1-0.1-0.1l-0.3-0.5l-0.5-0.8
		l-0.6-0.9c-0.3-0.5-0.6-0.8-0.9-1.1s-0.5-0.5-0.8-0.6s-0.6-0.2-1.1-0.2h-0.4v5L193.7,26.3L193.7,26.3z M195.9,16.2h-0.5v3.6h0.6
		c0.8,0,1.4-0.1,1.7-0.2s0.6-0.4,0.7-0.6s0.3-0.6,0.3-1s-0.1-0.7-0.3-1c-0.2-0.3-0.5-0.5-0.8-0.6C197.2,16.3,196.7,16.2,195.9,16.2z
		"/>
	<path class="st0" d="M211.8,14.7c1.8,0,3.2,0.6,4.4,1.7s1.8,2.5,1.8,4.2s-0.6,3.1-1.8,4.2s-2.7,1.7-4.5,1.7s-3.2-0.5-4.3-1.7
		c-1.1-1.1-1.7-2.5-1.7-4.1s0.6-3.1,1.7-4.2C208.5,15.2,210,14.7,211.8,14.7L211.8,14.7z M211.8,16.2c-1.3,0-2.4,0.4-3.2,1.2
		s-1.3,1.9-1.3,3.1s0.4,2.3,1.3,3.1c0.8,0.8,1.9,1.2,3.2,1.2s2.3-0.4,3.2-1.2s1.3-1.9,1.3-3.1s-0.4-2.2-1.3-3.1
		S213.1,16.2,211.8,16.2L211.8,16.2z"/>
	<path class="st0" d="M223.3,14.8h1.6v9.9h5.1v1.5h-6.8L223.3,14.8L223.3,14.8z"/>
	<path class="st0" d="M249,20.6h3.8v4.8c-1.4,0.6-2.8,0.9-4.2,0.9c-1.9,0-3.4-0.5-4.5-1.7c-1.1-1.1-1.7-2.5-1.7-4.1
		c0-1.7,0.6-3.1,1.8-4.3s2.6-1.7,4.4-1.7c0.6,0,1.2,0.1,1.8,0.2s1.3,0.4,2.2,0.8v1.7c-1.4-0.8-2.7-1.2-4.1-1.2
		c-1.2,0-2.3,0.4-3.2,1.3c-0.9,0.9-1.3,1.9-1.3,3.1s0.4,2.4,1.3,3.2c0.9,0.8,2,1.2,3.3,1.2c0.6,0,1.4-0.1,2.4-0.5l0.2,0v-2.4H249
		L249,20.6L249,20.6z"/>
	<path class="st0" d="M258.6,14.8h6.5v1.5h-4.8v3.5h4.7v1.5h-4.7v3.5h5v1.5h-6.6L258.6,14.8L258.6,14.8z"/>
	<path class="st0" d="M275.9,14.7c1.8,0,3.2,0.6,4.4,1.7s1.8,2.5,1.8,4.2s-0.6,3.1-1.8,4.2s-2.7,1.7-4.5,1.7s-3.2-0.5-4.3-1.7
		c-1.1-1.1-1.7-2.5-1.7-4.1s0.6-3.1,1.7-4.2C272.7,15.2,274.2,14.7,275.9,14.7L275.9,14.7z M276,16.2c-1.3,0-2.4,0.4-3.2,1.2
		s-1.3,1.9-1.3,3.1s0.4,2.3,1.3,3.1c0.8,0.8,1.9,1.2,3.2,1.2s2.3-0.4,3.2-1.2s1.3-1.9,1.3-3.1s-0.4-2.2-1.3-3.1S277.3,16.2,276,16.2
		L276,16.2z"/>
	<path class="st0" d="M287.5,26.2V14.8h3.9c1.5,0,2.8,0.2,3.7,0.7s1.6,1.2,2.2,2.1c0.5,0.9,0.8,1.9,0.8,3c0,0.8-0.1,1.5-0.4,2.2
		s-0.7,1.3-1.3,1.8c-0.6,0.5-1.2,1-1.9,1.2c-0.4,0.2-0.8,0.3-1.2,0.3c-0.4,0.1-1,0.1-2.1,0.1H287.5L287.5,26.2z M291.2,16.3h-2v8.5
		h2.1c0.8,0,1.5-0.1,1.9-0.2s0.8-0.2,1.1-0.4s0.6-0.4,0.8-0.6c0.8-0.8,1.2-1.9,1.2-3.1s-0.4-2.2-1.2-3c-0.3-0.3-0.7-0.5-1-0.7
		c-0.4-0.2-0.8-0.3-1.1-0.4S292,16.3,291.2,16.3L291.2,16.3z"/>
	<path class="st0" d="M303.4,14.8h6.5v1.5H305v3.5h4.7v1.5H305v3.5h5v1.5h-6.6L303.4,14.8L303.4,14.8z M308.1,11.5l-1.9,2.4h-0.9
		l1.1-2.4H308.1L308.1,11.5z"/>
	<path class="st0" d="M317.9,21.5l-1.2-0.8c-0.8-0.5-1.3-0.9-1.7-1.4c-0.3-0.5-0.5-1-0.5-1.6c0-0.9,0.3-1.6,0.9-2.2
		c0.6-0.6,1.4-0.8,2.4-0.8s1.8,0.3,2.6,0.8v1.9c-0.8-0.8-1.7-1.2-2.7-1.2c-0.5,0-1,0.1-1.3,0.4s-0.5,0.6-0.5,1c0,0.3,0.1,0.7,0.4,1
		s0.7,0.6,1.2,0.9l1.2,0.7c1.4,0.8,2.1,1.9,2.1,3.2c0,0.9-0.3,1.7-0.9,2.2c-0.6,0.6-1.4,0.9-2.4,0.9c-1.1,0-2.2-0.4-3.1-1v-2.1
		c0.9,1.1,1.9,1.7,3.1,1.7c0.5,0,0.9-0.1,1.3-0.4s0.5-0.6,0.5-1.1C319.5,22.7,319,22.1,317.9,21.5L317.9,21.5z"/>
	<path class="st0" d="M326.2,14.8h1.6v11.4h-1.6V14.8z"/>
	<path class="st0" d="M343.5,23.6v1.8c-1.2,0.6-2.6,1-4.2,1c-1.3,0-2.4-0.3-3.2-0.8s-1.6-1.2-2.1-2.1s-0.8-1.9-0.8-2.9
		c0-1.7,0.6-3.1,1.8-4.2s2.6-1.7,4.4-1.7c1.2,0,2.5,0.3,4,0.9v1.8c-1.3-0.8-2.6-1.1-3.9-1.1s-2.4,0.4-3.3,1.2s-1.3,1.9-1.3,3.1
		s0.4,2.3,1.3,3.1s1.9,1.2,3.3,1.2S342.2,24.4,343.5,23.6L343.5,23.6z"/>
	<path class="st0" d="M354.5,14.7c1.8,0,3.2,0.6,4.4,1.7s1.8,2.5,1.8,4.2s-0.6,3.1-1.8,4.2s-2.7,1.7-4.5,1.7s-3.2-0.5-4.3-1.7
		c-1.1-1.1-1.7-2.5-1.7-4.1s0.6-3.1,1.7-4.2C351.3,15.2,352.7,14.7,354.5,14.7L354.5,14.7z M354.6,16.2c-1.3,0-2.4,0.4-3.2,1.2
		s-1.3,1.9-1.3,3.1s0.4,2.3,1.3,3.1c0.8,0.8,1.9,1.2,3.2,1.2s2.3-0.4,3.2-1.2s1.3-1.9,1.3-3.1s-0.4-2.2-1.3-3.1
		S355.8,16.2,354.6,16.2L354.6,16.2z"/>
	<path class="st0" d="M383.1,14.8h1.5v11.4h-1.4l-7.6-8.8v8.8h-1.5V14.8h1.3l7.7,8.9L383.1,14.8L383.1,14.8z"/>
	<path class="st0" d="M394.1,14.8h1.1l5.1,11.5h-1.7l-1.5-3.4h-4.9l-1.4,3.4h-1.7L394.1,14.8z M396.5,21.4l-1.8-4.1l-1.7,4.1H396.5z
		"/>
	<path class="st0" d="M414.2,23.6v1.8c-1.2,0.6-2.6,1-4.2,1c-1.3,0-2.4-0.3-3.2-0.8s-1.6-1.2-2.1-2.1s-0.8-1.9-0.8-2.9
		c0-1.7,0.6-3.1,1.8-4.2c1.2-1.1,2.6-1.7,4.4-1.7c1.2,0,2.5,0.3,4,0.9v1.8c-1.3-0.8-2.6-1.1-3.9-1.1s-2.4,0.4-3.3,1.2
		s-1.3,1.9-1.3,3.1s0.4,2.3,1.3,3.1s1.9,1.2,3.3,1.2S412.8,24.4,414.2,23.6L414.2,23.6z"/>
	<path class="st0" d="M419.5,14.8h1.6v11.4h-1.6V14.8z"/>
	<path class="st0" d="M432.7,14.7c1.8,0,3.2,0.6,4.4,1.7s1.8,2.5,1.8,4.2s-0.6,3.1-1.8,4.2s-2.7,1.7-4.5,1.7s-3.2-0.5-4.3-1.7
		c-1.1-1.1-1.7-2.5-1.7-4.1s0.6-3.1,1.7-4.2C429.5,15.2,430.9,14.7,432.7,14.7L432.7,14.7z M432.7,16.2c-1.3,0-2.4,0.4-3.2,1.2
		s-1.3,1.9-1.3,3.1s0.4,2.3,1.3,3.1c0.8,0.8,1.9,1.2,3.2,1.2s2.3-0.4,3.2-1.2s1.3-1.9,1.3-3.1s-0.4-2.2-1.3-3.1S434,16.2,432.7,16.2
		L432.7,16.2z"/>
	<path class="st0" d="M453.3,14.8h1.5v11.4h-1.4l-7.6-8.8v8.8h-1.5V14.8h1.3l7.7,8.9L453.3,14.8L453.3,14.8z"/>
	<path class="st0" d="M464.3,14.8h1.1l5.1,11.5h-1.7l-1.5-3.4h-4.9l-1.4,3.4h-1.7L464.3,14.8z M466.7,21.4l-1.8-4.1l-1.7,4.1H466.7z
		"/>
	<path class="st0" d="M475.2,14.8h1.6v9.9h5.2v1.5h-6.8L475.2,14.8L475.2,14.8z"/>
</g>
</svg>
