<?xml version="1.0" encoding="utf-8"?>
<!-- Generator: Adobe Illustrator 24.1.3, SVG Export Plug-In . SVG Version: 6.00 Build 0)  -->
<svg version="1.1" id="Capa_1" xmlns="http://www.w3.org/2000/svg" xmlns:xlink="http://www.w3.org/1999/xlink" x="0px" y="0px"
	 viewBox="0 0 481.3 40" style="enable-background:new 0 0 481.3 40;" xml:space="preserve">
<style type="text/css">
	.st0{fill:#666666;}
</style>
<path class="st0" d="M1.6,25.5V14h3.9c1.3-0.1,2.5,0.2,3.7,0.7c0.9,0.5,1.7,1.2,2.2,2.1c0.5,0.9,0.8,1.9,0.8,3
	c0,0.8-0.1,1.5-0.4,2.2c-0.3,0.7-0.7,1.3-1.3,1.8c-0.6,0.5-1.2,0.9-1.9,1.2c-0.4,0.2-0.8,0.3-1.2,0.3c-0.7,0.1-1.4,0.1-2.1,0.1
	L1.6,25.5z M5.3,15.5h-2V24h2.1c0.6,0,1.3,0,1.9-0.2c0.4-0.1,0.8-0.2,1.1-0.4c0.3-0.2,0.6-0.4,0.8-0.6c0.8-0.8,1.2-1.9,1.2-3.1
	c0-1.1-0.4-2.2-1.2-3c-0.3-0.3-0.7-0.5-1.1-0.7c-0.4-0.2-0.7-0.3-1.1-0.4C6.5,15.5,5.9,15.5,5.3,15.5z"/>
<path class="st0" d="M18.6,14h1.6v11.5h-1.6V14z"/>
<path class="st0" d="M37,22.8v1.8c-1.3,0.7-2.7,1-4.2,1c-1.1,0-2.2-0.2-3.2-0.8c-0.9-0.5-1.6-1.2-2.1-2.1c-0.5-0.9-0.8-1.9-0.8-2.9
	c0-1.6,0.6-3.1,1.8-4.2c1.2-1.1,2.8-1.7,4.4-1.7c1.4,0,2.7,0.4,4,0.9v1.8c-1.2-0.7-2.5-1.1-3.9-1.1c-1.2,0-2.4,0.4-3.3,1.2
	c-0.9,0.8-1.3,1.9-1.3,3.1c0,1.2,0.4,2.3,1.3,3.1c0.9,0.8,2.1,1.3,3.3,1.2C34.3,24.1,35.8,23.6,37,22.8z"/>
<path class="st0" d="M53.2,22.8v1.8c-1.3,0.7-2.7,1-4.2,1c-1.1,0-2.3-0.2-3.2-0.8c-0.9-0.5-1.6-1.2-2.1-2.1
	c-0.5-0.9-0.8-1.9-0.8-2.9c0-1.6,0.6-3.1,1.8-4.2c1.2-1.1,2.8-1.7,4.4-1.7c1.4,0,2.7,0.4,4,0.9v1.8c-1.2-0.7-2.5-1.1-3.9-1.1
	c-1.2,0-2.4,0.4-3.3,1.2c-0.8,0.8-1.3,1.9-1.3,3.1c0,1.2,0.4,2.3,1.3,3.1c0.9,0.8,2.1,1.3,3.3,1.2C50.6,24.1,52,23.6,53.2,22.8z"/>
<path class="st0" d="M59.6,14h1.6v11.5h-1.6V14z"/>
<path class="st0" d="M73.7,13.9c1.6-0.1,3.2,0.6,4.4,1.7c1.2,1.1,1.8,2.6,1.8,4.2c0.1,1.6-0.6,3.2-1.8,4.2c-1.2,1.1-2.8,1.7-4.4,1.6
	c-1.6,0-3.1-0.5-4.3-1.6c-1.1-1.1-1.8-2.6-1.7-4.2c0-1.6,0.6-3.1,1.7-4.2C70.5,14.4,72.1,13.8,73.7,13.9z M73.8,15.4
	c-1.2,0-2.4,0.4-3.2,1.2c-0.8,0.8-1.3,2-1.3,3.1c0,1.2,0.4,2.3,1.3,3.1c1.8,1.7,4.6,1.7,6.4,0c0.8-0.8,1.3-1.9,1.3-3.1
	c0-1.2-0.4-2.3-1.3-3.1C76.1,15.9,74.9,15.4,73.8,15.4z"/>
<path class="st0" d="M95.3,14h1.6v11.5h-1.4l-7.6-8.8v8.8h-1.5V14h1.4l7.7,8.9L95.3,14z"/>
<path class="st0" d="M107.3,14h1.1l5.2,11.5H112l-1.5-3.4h-4.9l-1.4,3.4h-1.7L107.3,14z M109.7,20.6l-1.8-4.1l-1.7,4.1H109.7z"/>
<path class="st0" d="M119.2,25.5V14h2.9c1-0.1,2,0.3,2.8,0.9c0.7,0.6,1,1.4,1,2.3c0,0.6-0.2,1.2-0.5,1.7c-0.3,0.5-0.8,0.9-1.4,1.1
	c0.4,0.3,0.8,0.6,1.1,1c0.5,0.7,1,1.4,1.5,2.2c0.4,0.6,0.7,1.1,1,1.5l0.6,0.8h-1.9l-0.5-0.8c0-0.1-0.1-0.1-0.1-0.1l-0.3-0.5
	l-0.5-0.8l-0.6-0.9c-0.3-0.4-0.6-0.8-0.9-1.1c-0.2-0.2-0.5-0.4-0.8-0.6c-0.4-0.1-0.8-0.2-1.1-0.2h-0.4v5L119.2,25.5z M121.4,15.5
	h-0.5V19h0.6c0.6,0,1.2,0,1.7-0.2c0.3-0.1,0.6-0.4,0.7-0.6c0.2-0.3,0.3-0.6,0.3-1c0-0.4-0.1-0.7-0.3-1c-0.2-0.3-0.5-0.5-0.8-0.6
	C122.5,15.4,121.9,15.4,121.4,15.5L121.4,15.5z"/>
<path class="st0" d="M133.7,14h1.6v11.5h-1.6V14z"/>
<path class="st0" d="M147.8,13.9c1.6-0.1,3.2,0.6,4.4,1.7c1.2,1.1,1.8,2.6,1.8,4.2c0.1,1.6-0.6,3.2-1.8,4.2
	c-1.2,1.1-2.8,1.7-4.5,1.6c-1.6,0-3.1-0.5-4.3-1.6c-1.1-1.1-1.8-2.6-1.7-4.2c0-1.6,0.6-3.1,1.7-4.2
	C144.6,14.5,146.2,13.8,147.8,13.9z M147.9,15.4c-1.2,0-2.4,0.4-3.2,1.2c-0.8,0.8-1.3,2-1.3,3.1c0,1.2,0.4,2.3,1.3,3.1
	c1.8,1.7,4.6,1.7,6.4,0c0.8-0.8,1.3-1.9,1.3-3.1c0-1.2-0.4-2.3-1.3-3.1C150.2,15.9,149.1,15.4,147.9,15.4z"/>
<path class="st0" d="M175.5,19.8h3.8v4.9c-1.3,0.6-2.7,0.9-4.2,0.9c-1.7,0.1-3.3-0.5-4.6-1.6c-1.1-1.1-1.7-2.5-1.7-4.1
	c0-1.6,0.6-3.2,1.8-4.3c1.2-1.1,2.8-1.8,4.4-1.7c0.6,0,1.2,0.1,1.8,0.2c0.8,0.2,1.5,0.5,2.2,0.8v1.7c-1.2-0.8-2.6-1.2-4.1-1.2
	c-1.2,0-2.3,0.4-3.2,1.3c-0.8,0.8-1.3,1.9-1.3,3.1c0,1.2,0.4,2.3,1.3,3.2c0.9,0.8,2.1,1.3,3.3,1.2c0.8,0,1.6-0.2,2.3-0.5l0.2,0v-2.4
	h-2.2L175.5,19.8z"/>
<path class="st0" d="M186.1,14h6.5v1.5h-4.8V19h4.7v1.5h-4.7V24h5v1.5h-6.6L186.1,14z"/>
<path class="st0" d="M204.5,13.9c1.6,0,3.2,0.6,4.4,1.7c1.2,1.1,1.8,2.6,1.8,4.2c0.1,1.6-0.6,3.2-1.8,4.2c-1.2,1.1-2.8,1.7-4.5,1.6
	c-1.6,0-3.1-0.5-4.3-1.6c-1.1-1.1-1.8-2.6-1.7-4.2c0-1.6,0.6-3.1,1.7-4.2C201.3,14.5,202.8,13.8,204.5,13.9z M204.5,15.4
	c-1.2,0-2.4,0.4-3.2,1.2c-0.8,0.8-1.3,2-1.3,3.1c0,1.2,0.4,2.3,1.3,3.1c1.8,1.7,4.6,1.7,6.4,0c0.8-0.8,1.3-1.9,1.3-3.1
	c0-1.2-0.5-2.3-1.3-3.1C206.8,15.9,205.7,15.4,204.5,15.4L204.5,15.4z"/>
<path class="st0" d="M223.2,19.8h3.8v4.9c-1.3,0.6-2.7,0.9-4.2,0.9c-1.7,0.1-3.3-0.5-4.5-1.6c-1.1-1.1-1.7-2.5-1.7-4.1
	c0-1.6,0.6-3.2,1.8-4.3c1.2-1.1,2.8-1.8,4.4-1.7c0.6,0,1.2,0.1,1.8,0.2c0.7,0.2,1.5,0.5,2.2,0.8v1.7c-1.2-0.7-2.6-1.2-4-1.2
	c-1.2,0-2.3,0.4-3.2,1.3c-0.8,0.8-1.3,2-1.3,3.1c0,1.2,0.4,2.4,1.3,3.2c0.9,0.8,2.1,1.3,3.3,1.2c0.8,0,1.6-0.2,2.4-0.5l0.2,0v-2.4
	h-2.2L223.2,19.8z"/>
<path class="st0" d="M233.8,25.5V14h2.8c1-0.1,2,0.3,2.8,0.9c0.7,0.6,1,1.4,1,2.3c0,0.6-0.2,1.2-0.5,1.7c-0.3,0.5-0.8,0.9-1.4,1.1
	c0.4,0.3,0.8,0.6,1.1,1c0.5,0.7,1,1.4,1.5,2.2c0.4,0.6,0.7,1.1,1,1.5l0.6,0.8h-2.1l-0.5-0.8l-0.1-0.1l-0.3-0.5l-0.5-0.8l-0.5-0.9
	c-0.3-0.4-0.6-0.8-0.9-1.1c-0.2-0.2-0.5-0.4-0.8-0.6c-0.4-0.1-0.8-0.2-1.1-0.2h-0.4v5L233.8,25.5z M235.9,15.5h-0.5V19h0.6
	c0.6,0,1.2,0,1.7-0.2c0.3-0.1,0.6-0.4,0.7-0.6c0.2-0.3,0.3-0.6,0.3-1c0-0.4-0.1-0.7-0.3-1c-0.2-0.3-0.5-0.5-0.8-0.6
	C237.1,15.4,236.5,15.4,235.9,15.5L235.9,15.5z"/>
<path class="st0" d="M251.9,14h1.1l5.1,11.5h-1.7l-1.5-3.4h-4.9l-1.4,3.4H247L251.9,14z M254.3,20.6l-1.8-4.1l-1.7,4.1H254.3z
	 M254.4,10.8l-1.9,2.4h-0.9l1.1-2.4H254.4z"/>
<path class="st0" d="M263.8,14h6.1v1.5h-4.5v3.2h4.5v1.5h-4.5v5.3h-1.6V14z"/>
<path class="st0" d="M276,14h1.6v11.5H276V14z"/>
<path class="st0" d="M294.4,22.8v1.8c-1.3,0.7-2.7,1-4.2,1c-1.1,0-2.2-0.2-3.2-0.8c-0.9-0.5-1.6-1.2-2.1-2.1
	c-0.5-0.9-0.8-1.9-0.8-2.9c0-1.6,0.6-3.1,1.8-4.2c1.2-1.1,2.8-1.7,4.4-1.7c1.4,0,2.7,0.4,4,0.9v1.7c-1.2-0.7-2.5-1.1-3.9-1.1
	c-1.2,0-2.4,0.4-3.3,1.2c-0.9,0.8-1.3,1.9-1.3,3.1c0,1.2,0.4,2.3,1.3,3.1c0.9,0.8,2.1,1.3,3.3,1.2C291.8,24.1,293.2,23.6,294.4,22.8
	z"/>
<path class="st0" d="M306.3,13.9c1.6-0.1,3.2,0.6,4.4,1.7c1.2,1.1,1.8,2.6,1.8,4.2c0.1,1.6-0.6,3.2-1.8,4.2
	c-1.2,1.1-2.8,1.7-4.5,1.6c-1.6,0-3.1-0.5-4.3-1.6c-1.1-1.1-1.8-2.6-1.7-4.2c0-1.6,0.6-3.1,1.7-4.2
	C303.1,14.5,304.7,13.8,306.3,13.9z M306.4,15.4c-1.2,0-2.4,0.4-3.2,1.2c-0.8,0.8-1.3,2-1.3,3.1c0,1.2,0.4,2.3,1.3,3.1
	c1.8,1.7,4.6,1.7,6.4,0c0.8-0.8,1.3-1.9,1.3-3.1c0-1.2-0.4-2.3-1.3-3.1C308.7,15.9,307.6,15.4,306.4,15.4z"/>
<path class="st0" d="M327.9,25.5V14h3.9c1.3-0.1,2.5,0.2,3.7,0.7c0.9,0.5,1.7,1.2,2.2,2.1c0.5,0.9,0.8,1.9,0.8,3
	c0,0.8-0.1,1.5-0.4,2.2c-0.3,0.7-0.7,1.3-1.3,1.8c-0.6,0.5-1.2,0.9-2,1.2c-0.4,0.2-0.8,0.3-1.2,0.3c-0.7,0.1-1.4,0.1-2.1,0.1
	L327.9,25.5z M331.6,15.5h-2V24h2c0.6,0,1.3,0,1.9-0.2c0.4-0.1,0.8-0.2,1.1-0.4c0.3-0.2,0.6-0.4,0.8-0.6c0.8-0.8,1.2-1.9,1.2-3.1
	c0-1.1-0.4-2.2-1.2-3c-0.3-0.3-0.7-0.5-1.1-0.7c-0.4-0.2-0.7-0.3-1.1-0.4C332.7,15.5,332.2,15.5,331.6,15.5z"/>
<path class="st0" d="M344.8,14h6.5v1.5h-4.8V19h4.7v1.5h-4.7V24h5v1.5h-6.6V14z"/>
<path class="st0" d="M376.4,22.8v1.8c-1.3,0.7-2.7,1-4.1,1c-1.1,0-2.3-0.2-3.2-0.8c-0.9-0.5-1.6-1.2-2.1-2.1
	c-0.5-0.9-0.8-1.9-0.8-2.9c0-1.6,0.6-3.1,1.8-4.2c1.2-1.1,2.8-1.7,4.4-1.7c1.4,0,2.7,0.4,4,0.9v1.7c-1.2-0.7-2.5-1.1-3.9-1.1
	c-1.2,0-2.4,0.4-3.3,1.2c-0.8,0.8-1.3,1.9-1.3,3.1c0,1.2,0.4,2.3,1.3,3.1c0.9,0.8,2.1,1.3,3.3,1.2C373.8,24.1,375.2,23.6,376.4,22.8
	z"/>
<path class="st0" d="M388.4,13.9c1.6,0,3.2,0.6,4.4,1.7c1.2,1.1,1.8,2.6,1.8,4.2c0.1,1.6-0.6,3.2-1.8,4.2c-1.2,1.1-2.8,1.7-4.5,1.6
	c-1.6,0-3.1-0.5-4.3-1.6c-1.1-1.1-1.8-2.6-1.7-4.2c0-1.6,0.6-3.1,1.7-4.2C385.2,14.5,386.8,13.8,388.4,13.9z M388.4,15.4
	c-1.2,0-2.4,0.4-3.2,1.2c-0.8,0.8-1.3,2-1.3,3.1c0,1.2,0.4,2.3,1.3,3.1c1.8,1.7,4.6,1.7,6.4,0c0.8-0.8,1.3-1.9,1.3-3.1
	c0-1.2-0.4-2.3-1.2-3.1C390.8,15.8,389.6,15.4,388.4,15.4z"/>
<path class="st0" d="M400.9,14h1.6v10h5.1v1.5h-6.8V14z"/>
<path class="st0" d="M419.1,13.9c1.6,0,3.2,0.6,4.4,1.7c1.2,1.1,1.8,2.6,1.8,4.2c0.1,1.6-0.6,3.2-1.8,4.2c-1.2,1.1-2.8,1.7-4.5,1.6
	c-1.6,0-3.2-0.5-4.3-1.6c-1.1-1.1-1.8-2.6-1.7-4.2c0-1.6,0.6-3.1,1.7-4.2C415.9,14.5,417.5,13.8,419.1,13.9z M419.2,15.4
	c-1.2,0-2.4,0.4-3.2,1.2c-0.9,0.8-1.3,1.9-1.3,3.1c0,1.2,0.4,2.3,1.3,3.1c1.8,1.7,4.6,1.7,6.4,0c0.9-0.8,1.4-1.9,1.4-3.1
	c0-1.2-0.4-2.3-1.3-3.1C421.5,15.8,420.4,15.4,419.2,15.4z"/>
<path class="st0" d="M440.7,14h1.5v11.5h-1.6v-8.9l-3.5,4.4h-0.3l-3.5-4.4v8.9h-1.6V14h1.5l3.8,4.7L440.7,14z"/>
<path class="st0" d="M452.9,25.5h-3.9V14h3c0.8,0,1.5,0.1,2.2,0.4c1,0.5,1.7,1.5,1.6,2.6c0,1.1-0.7,2.1-1.7,2.4c0.8,0.1,1.5,0.5,2,1
	c0.5,0.5,0.7,1.2,0.7,1.9c0,0.6-0.1,1.1-0.5,1.6c-0.3,0.5-0.8,0.9-1.3,1.1C454.4,25.3,453.7,25.5,452.9,25.5z M452.1,15.5h-1.4v3.4
	h1.1c0.7,0.1,1.3-0.1,1.9-0.5c0.4-0.3,0.6-0.8,0.5-1.3C454.2,16,453.5,15.5,452.1,15.5L452.1,15.5z M452.2,20.4h-1.5V24h1.6
	c0.6,0,1.2,0,1.8-0.2c0.3-0.1,0.6-0.4,0.8-0.6c0.2-0.3,0.3-0.6,0.3-1c0-0.4-0.1-0.7-0.3-1c-0.2-0.3-0.5-0.5-0.9-0.6
	C453.4,20.4,452.8,20.3,452.2,20.4L452.2,20.4z"/>
<path class="st0" d="M462.9,14h1.6v11.5h-1.6V14z"/>
<path class="st0" d="M475.1,14h1.1l5.1,11.5h-1.7l-1.5-3.4h-4.9l-1.4,3.4h-1.7L475.1,14z M477.5,20.6l-1.8-4.2l-1.7,4.1L477.5,20.6z
	"/>
</svg>
