<?xml version="1.0" encoding="utf-8"?>
<!-- Generator: Adobe Illustrator 24.1.3, SVG Export Plug-In . SVG Version: 6.00 Build 0)  -->
<svg version="1.1" id="Capa_1" xmlns="http://www.w3.org/2000/svg" xmlns:xlink="http://www.w3.org/1999/xlink" x="0px" y="0px"
	 viewBox="0 0 226 40" style="enable-background:new 0 0 226 40;" xml:space="preserve">
<style type="text/css">
	.st0{enable-background:new    ;}
	.st1{fill:#666666;}
</style>
<g class="st0">
	<path class="st1" d="M1.3,13.6h6.5V15H2.9v3.5h4.7V20H2.9v3.5h5V25H1.3V13.6z"/>
	<path class="st1" d="M22.3,13.6h2l-4.6,5.5l4.9,5.9h-2l-3.9-4.7L14.8,25h-2l4.9-5.9l-4.6-5.5h2l3.6,4.4L22.3,13.6z"/>
</g>
<g class="st0">
	<path class="st1" d="M30.1,25V13.6h3.6c1.1,0,2,0.3,2.6,0.9c0.6,0.6,1,1.4,1,2.4c0,0.7-0.2,1.3-0.5,1.8s-0.8,0.9-1.4,1.1
		C34.9,19.9,34,20,32.9,20h-1.2v5H30.1z M33.4,15h-1.7v3.6h1.8c0.7,0,1.2-0.2,1.5-0.5c0.4-0.3,0.5-0.8,0.5-1.3
		C35.6,15.6,34.9,15,33.4,15z"/>
</g>
<g class="st0">
	<path class="st1" d="M43.1,13.6h6.5V15h-4.8v3.5h4.7V20h-4.7v3.5h5V25h-6.6V13.6z"/>
</g>
<g class="st0">
	<path class="st1" d="M55.8,25V13.6h3.9c1.6,0,2.8,0.2,3.7,0.7c0.9,0.5,1.6,1.2,2.2,2.1c0.5,0.9,0.8,1.9,0.8,3
		c0,0.8-0.1,1.5-0.4,2.2c-0.3,0.7-0.7,1.3-1.3,1.8c-0.6,0.5-1.2,1-1.9,1.2c-0.4,0.2-0.8,0.3-1.2,0.3c-0.4,0.1-1,0.1-2.1,0.1H55.8z
		 M59.5,15h-2v8.5h2.1c0.8,0,1.5-0.1,1.9-0.2c0.5-0.1,0.8-0.3,1.1-0.4c0.3-0.2,0.6-0.4,0.8-0.6c0.8-0.8,1.2-1.9,1.2-3.1
		c0-1.2-0.4-2.2-1.2-3c-0.3-0.3-0.7-0.5-1.1-0.7c-0.4-0.2-0.8-0.3-1.1-0.4C60.8,15.1,60.3,15,59.5,15z"/>
</g>
<g class="st0">
	<path class="st1" d="M72.7,13.6h1.6V25h-1.6V13.6z"/>
	<path class="st1" d="M91.1,22.3v1.8c-1.2,0.7-2.6,1-4.2,1c-1.3,0-2.4-0.3-3.2-0.8c-0.9-0.5-1.6-1.2-2.1-2.1
		c-0.5-0.9-0.8-1.9-0.8-2.9c0-1.7,0.6-3.1,1.8-4.2c1.2-1.1,2.6-1.7,4.4-1.7c1.2,0,2.5,0.3,4,0.9v1.8c-1.3-0.8-2.6-1.1-3.9-1.1
		c-1.3,0-2.4,0.4-3.3,1.2c-0.9,0.8-1.3,1.9-1.3,3.1c0,1.3,0.4,2.3,1.3,3.1c0.9,0.8,1.9,1.2,3.3,1.2C88.4,23.6,89.8,23.2,91.1,22.3z"
		/>
</g>
<g class="st0">
	<path class="st1" d="M97.4,13.6h1.6V25h-1.6V13.6z"/>
</g>
<g class="st0">
	<path class="st1" d="M111.6,13.4c1.8,0,3.2,0.6,4.4,1.7c1.2,1.1,1.8,2.5,1.8,4.2c0,1.7-0.6,3.1-1.8,4.2c-1.2,1.1-2.7,1.7-4.5,1.7
		c-1.7,0-3.2-0.6-4.3-1.7c-1.1-1.1-1.7-2.5-1.7-4.2c0-1.7,0.6-3.1,1.7-4.2C108.4,14,109.8,13.4,111.6,13.4z M111.7,15
		c-1.3,0-2.4,0.4-3.2,1.2c-0.8,0.8-1.3,1.9-1.3,3.1c0,1.2,0.4,2.3,1.3,3.1c0.8,0.8,1.9,1.2,3.2,1.2c1.3,0,2.3-0.4,3.2-1.3
		c0.9-0.8,1.3-1.9,1.3-3.1c0-1.2-0.4-2.2-1.3-3.1S112.9,15,111.7,15z"/>
</g>
<g class="st0">
	<path class="st1" d="M133.2,13.6h1.6V25h-1.4l-7.6-8.8V25h-1.5V13.6h1.3l7.7,8.9V13.6z"/>
	<path class="st1" d="M141.5,13.6h6.5V15h-4.8v3.5h4.7V20h-4.7v3.5h5V25h-6.6V13.6z"/>
</g>
<g class="st0">
	<path class="st1" d="M157.1,20.2l-1.2-0.8c-0.8-0.5-1.3-0.9-1.7-1.4c-0.3-0.5-0.5-1-0.5-1.6c0-0.9,0.3-1.6,0.9-2.2
		c0.6-0.6,1.4-0.8,2.4-0.8c1,0,1.8,0.3,2.6,0.8v1.9c-0.8-0.8-1.7-1.2-2.7-1.2c-0.5,0-1,0.1-1.3,0.4c-0.3,0.2-0.5,0.6-0.5,0.9
		c0,0.3,0.1,0.7,0.4,1c0.3,0.3,0.7,0.6,1.2,0.9l1.2,0.7c1.4,0.8,2.1,1.9,2.1,3.2c0,0.9-0.3,1.7-0.9,2.2c-0.6,0.6-1.4,0.9-2.4,0.9
		c-1.1,0-2.2-0.3-3.1-1V22c0.9,1.1,1.9,1.7,3.1,1.7c0.5,0,0.9-0.1,1.3-0.4s0.5-0.6,0.5-1.1C158.6,21.5,158.1,20.8,157.1,20.2z"/>
</g>
<g class="st0">
	<path class="st1" d="M175.3,13.6h1.6V25h-1.6V13.6z"/>
	<path class="st1" d="M190,19.4h3.8v4.8c-1.4,0.6-2.8,0.9-4.2,0.9c-1.9,0-3.4-0.6-4.5-1.7s-1.7-2.5-1.7-4.1c0-1.7,0.6-3.1,1.8-4.3
		c1.2-1.1,2.6-1.7,4.4-1.7c0.6,0,1.3,0.1,1.8,0.2s1.3,0.4,2.2,0.8v1.7c-1.4-0.8-2.7-1.2-4.1-1.2c-1.2,0-2.3,0.4-3.2,1.3
		c-0.9,0.9-1.3,1.9-1.3,3.1c0,1.3,0.4,2.4,1.3,3.2c0.9,0.8,2,1.2,3.3,1.2c0.7,0,1.4-0.2,2.3-0.5l0.2,0v-2.4H190V19.4z"/>
</g>
<g class="st0">
	<path class="st1" d="M204.2,13.5h1.1l5.1,11.5h-1.7l-1.5-3.4h-4.9L201,25h-1.7L204.2,13.5z M206.6,20.2l-1.8-4.1l-1.7,4.1H206.6z"
		/>
</g>
<g class="st0">
	<path class="st1" d="M225.3,22.3v1.8c-1.2,0.7-2.6,1-4.2,1c-1.3,0-2.4-0.3-3.2-0.8c-0.9-0.5-1.6-1.2-2.1-2.1
		c-0.5-0.9-0.8-1.9-0.8-2.9c0-1.7,0.6-3.1,1.8-4.2c1.2-1.1,2.6-1.7,4.4-1.7c1.2,0,2.5,0.3,4,0.9v1.8c-1.3-0.8-2.6-1.1-3.9-1.1
		c-1.3,0-2.4,0.4-3.3,1.2c-0.9,0.8-1.3,1.9-1.3,3.1c0,1.3,0.4,2.3,1.3,3.1c0.9,0.8,1.9,1.2,3.3,1.2
		C222.6,23.6,223.9,23.2,225.3,22.3z"/>
</g>
</svg>
