<?xml version="1.0" encoding="utf-8"?>
<!-- Generator: Adobe Illustrator 24.1.3, SVG Export Plug-In . SVG Version: 6.00 Build 0)  -->
<svg version="1.1" id="Capa_1" xmlns="http://www.w3.org/2000/svg" xmlns:xlink="http://www.w3.org/1999/xlink" x="0px" y="0px"
	 viewBox="0 0 213.7 40" style="enable-background:new 0 0 213.7 40;" xml:space="preserve">
<style type="text/css">
	.st0{fill:#666666;}
</style>
<path class="st0" d="M7.4,14c1.6,0,3.2,0.6,4.4,1.7c1.2,1.1,1.8,2.6,1.8,4.2c0,1.6-0.6,3.1-1.8,4.2c-1.2,1.1-2.8,1.7-4.5,1.7
	c-1.6,0-3.1-0.6-4.3-1.7C1.9,23,1.2,21.5,1.3,20c-0.1-1.6,0.6-3.1,1.7-4.2C4.1,14.6,5.7,14,7.4,14z M7.4,15.6
	c-1.2,0-2.4,0.4-3.2,1.2c-0.9,0.8-1.3,2-1.3,3.2c0,1.1,0.4,2.2,1.3,3c1.8,1.7,4.6,1.7,6.4,0c0.8-0.8,1.3-1.9,1.3-3.1
	c0-1.2-0.4-2.3-1.3-3C9.7,16,8.6,15.6,7.4,15.6L7.4,15.6z"/>
<path class="st0" d="M19.9,25.6V14.2h2.8c1-0.1,2,0.2,2.8,0.9c0.7,0.6,1,1.4,1,2.3c0,0.6-0.2,1.2-0.5,1.7c-0.4,0.5-0.9,0.9-1.4,1.1
	c0.4,0.3,0.8,0.6,1.1,1c0.5,0.7,1,1.4,1.5,2.2c0.4,0.7,0.7,1.2,1,1.5l0.6,0.8h-2l-0.5-0.8l-0.1-0.1l-0.3-0.5l-0.5-0.8l-0.5-0.9
	c-0.3-0.4-0.6-0.8-0.9-1.1c-0.2-0.2-0.5-0.4-0.8-0.6c-0.4-0.1-0.8-0.2-1.1-0.2h-0.4v5L19.9,25.6z M22,15.6h-0.5v3.6h0.6
	c0.6,0,1.2,0,1.7-0.2c0.3-0.1,0.6-0.4,0.7-0.6c0.2-0.3,0.3-0.6,0.3-1c0-0.4-0.1-0.7-0.3-1c-0.2-0.3-0.5-0.5-0.8-0.6
	C23.2,15.6,22.6,15.6,22,15.6L22,15.6z"/>
<path class="st0" d="M34.3,14.2H36v11.4h-1.6V14.2z"/>
<path class="st0" d="M49,20h3.8v4.8c-1.3,0.6-2.7,0.9-4.2,0.9c-1.7,0.1-3.3-0.5-4.5-1.7C43,23,42.4,21.5,42.4,20
	c0-1.6,0.6-3.1,1.8-4.3c1.2-1.1,2.8-1.7,4.4-1.7c0.6,0,1.2,0.1,1.8,0.2c0.7,0.2,1.5,0.5,2.2,0.8v1.7c-1.2-0.8-2.6-1.2-4.1-1.2
	c-1.2,0-2.3,0.4-3.2,1.3c-0.8,0.8-1.3,2-1.3,3.1c0,1.2,0.4,2.4,1.3,3.2c0.9,0.9,2.1,1.3,3.4,1.2c0.8,0,1.6-0.2,2.3-0.5l0.2,0v-2.4
	h-2.2L49,20z"/>
<path class="st0" d="M59.6,14.2h6.5v1.4h-4.8v3.5h4.7v1.5h-4.7v3.5h5v1.5h-6.6V14.2z"/>
<path class="st0" d="M81.4,14.2H83v11.4h-1.4l-7.6-8.8v8.8h-1.5V14.2h1.3l7.7,8.9V14.2z"/>
<path class="st0" d="M107.8,14.2h1.6v11.4H108l-7.6-8.8v8.8h-1.5V14.2h1.3l7.7,8.9V14.2z"/>
<path class="st0" d="M119.9,14.1h1.1l5.1,11.5h-1.7l-1.5-3.4h-4.9l-1.4,3.4H115L119.9,14.1z M122.3,20.8l-1.9-4.1l-1.7,4.1H122.3z"
	/>
<path class="st0" d="M140.9,23v1.8c-1.3,0.7-2.7,1-4.2,1c-1.1,0-2.3-0.2-3.2-0.8c-1.8-1-2.9-2.9-2.9-5c0-1.6,0.6-3.1,1.8-4.2
	c1.2-1.1,2.8-1.7,4.4-1.7c1.4,0,2.7,0.4,4,0.9v1.8c-1.2-0.7-2.5-1.1-3.9-1.1c-1.2,0-2.4,0.4-3.3,1.2c-0.9,0.8-1.3,1.9-1.3,3.1
	c0,1.1,0.5,2.2,1.3,3c0.9,0.8,2.1,1.3,3.3,1.2C138.3,24.2,139.7,23.8,140.9,23z"/>
<path class="st0" d="M147.3,14.2h1.6v11.4h-1.6V14.2z"/>
<path class="st0" d="M161.4,14c1.6,0,3.2,0.6,4.4,1.7c1.2,1.1,1.8,2.6,1.8,4.2c0,1.6-0.6,3.1-1.8,4.2c-1.2,1.1-2.8,1.7-4.5,1.7
	c-1.6,0-3.2-0.6-4.3-1.7c-1.1-1.1-1.7-2.6-1.7-4.1c0-1.6,0.6-3.1,1.7-4.2C158.2,14.6,159.7,14,161.4,14z M161.4,15.6
	c-1.2,0-2.4,0.4-3.2,1.2c-0.9,0.8-1.3,2-1.3,3.2c0,1.1,0.4,2.2,1.3,3c1.8,1.7,4.6,1.7,6.4,0c0.8-0.8,1.3-1.9,1.3-3.1
	c0-1.2-0.4-2.3-1.3-3C163.7,16,162.6,15.6,161.4,15.6L161.4,15.6z"/>
<path class="st0" d="M183,14.2h1.6v11.4h-1.4l-7.6-8.8v8.8H174V14.2h1.3l7.7,8.9L183,14.2z"/>
<path class="st0" d="M195,14.1h1.1l5.1,11.5h-1.7l-1.5-3.4h-4.9l-1.4,3.4h-1.7L195,14.1z M197.4,20.8l-1.8-4.1l-1.7,4.1H197.4z"/>
<path class="st0" d="M206.9,14.2h1.6v9.9h5.1v1.5h-6.8V14.2z"/>
</svg>
