<svg xmlns="http://www.w3.org/2000/svg" viewBox="0 0 334.01 15.96"><defs><style>.cls-1{fill:#fff;}</style></defs><g id="Layer_2" data-name="Layer 2"><g id="Arte"><path class="cls-1" d="M0,15.8V3.54H4.14a8.72,8.72,0,0,1,4,.75A5.61,5.61,0,0,1,10.42,6.5a6.14,6.14,0,0,1,.87,3.19A5.92,5.92,0,0,1,10.81,12a6.11,6.11,0,0,1-1.35,2,6,6,0,0,1-2.09,1.33,6,6,0,0,1-1.27.36,17.62,17.62,0,0,1-2.22.09ZM4,5.11H1.76v9.13H4a9,9,0,0,0,2.05-.18,4.57,4.57,0,0,0,1.21-.46,4,4,0,0,0,.9-.68,4.58,4.58,0,0,0,1.3-3.33A4.25,4.25,0,0,0,7,5.6a4.89,4.89,0,0,0-1.21-.4A13.1,13.1,0,0,0,4,5.11Z"/><path class="cls-1" d="M18.18,3.54h1.76V15.82H18.18Z"/><path class="cls-1" d="M37.92,13v1.94A9.19,9.19,0,0,1,33.46,16,6.81,6.81,0,0,1,30,15.13a6.11,6.11,0,0,1-2.27-2.27,6.25,6.25,0,0,1-.83-3.14,6,6,0,0,1,1.91-4.51,6.54,6.54,0,0,1,4.71-1.83,11.11,11.11,0,0,1,4.3,1V6.28a8.45,8.45,0,0,0-4.21-1.23,4.87,4.87,0,0,0-3.5,1.34,4.39,4.39,0,0,0-1.39,3.33A4.34,4.34,0,0,0,30.06,13a4.86,4.86,0,0,0,3.5,1.3A7.88,7.88,0,0,0,37.92,13Z"/><path class="cls-1" d="M55.35,13v1.94A9.23,9.23,0,0,1,50.88,16a6.81,6.81,0,0,1-3.49-.83,6,6,0,0,1-2.26-2.27,6.16,6.16,0,0,1-.84-3.14A6,6,0,0,1,46.2,5.21a6.58,6.58,0,0,1,4.72-1.83,11.15,11.15,0,0,1,4.3,1V6.28A8.48,8.48,0,0,0,51,5.05,4.88,4.88,0,0,0,47.5,6.39a4.42,4.42,0,0,0-1.39,3.33A4.37,4.37,0,0,0,47.48,13,4.9,4.9,0,0,0,51,14.34,7.91,7.91,0,0,0,55.35,13Z"/><path class="cls-1" d="M62.21,3.54H64V15.82H62.21Z"/><path class="cls-1" d="M77.4,3.37a6.59,6.59,0,0,1,4.73,1.8A6,6,0,0,1,84,9.69a5.89,5.89,0,0,1-1.91,4.49A6.79,6.79,0,0,1,77.3,16a6.42,6.42,0,0,1-4.63-1.78,5.94,5.94,0,0,1-1.84-4.46,6.07,6.07,0,0,1,1.86-4.55A6.5,6.5,0,0,1,77.4,3.37ZM77.47,5A4.81,4.81,0,0,0,74,6.35a4.53,4.53,0,0,0-1.36,3.37A4.43,4.43,0,0,0,74,13a5.06,5.06,0,0,0,6.83,0,4.49,4.49,0,0,0,1.38-3.35,4.38,4.38,0,0,0-1.38-3.28A4.64,4.64,0,0,0,77.47,5Z"/><path class="cls-1" d="M100.62,3.54h1.67V15.82h-1.51L92.57,6.36v9.46H90.92V3.54h1.43l8.27,9.54Z"/><path class="cls-1" d="M113.52,3.47h1.24l5.5,12.35h-1.8l-1.63-3.64h-5.24l-1.53,3.64h-1.81Zm2.59,7.15-2-4.45-1.83,4.45Z"/><path class="cls-1" d="M126.34,15.82V3.54h3.08a4.48,4.48,0,0,1,3,.92A3.13,3.13,0,0,1,133.47,7a3.21,3.21,0,0,1-.54,1.86A3.11,3.11,0,0,1,131.39,10,5.37,5.37,0,0,1,132.55,11a21.31,21.31,0,0,1,1.58,2.33c.43.7.77,1.22,1,1.57l.65.88h-2.1l-.53-.81a1.27,1.27,0,0,0-.11-.15l-.34-.48-.54-.9-.59-1a9.86,9.86,0,0,0-1-1.2,3.85,3.85,0,0,0-.82-.65,2.77,2.77,0,0,0-1.22-.19h-.46v5.34ZM128.63,5h-.53V8.91h.67a4.77,4.77,0,0,0,1.83-.23,1.67,1.67,0,0,0,.77-.69,1.92,1.92,0,0,0,.28-1,1.87,1.87,0,0,0-.31-1.05,1.64,1.64,0,0,0-.86-.66A6.27,6.27,0,0,0,128.63,5Z"/><path class="cls-1" d="M141.86,3.54h1.76V15.82h-1.76Z"/><path class="cls-1" d="M157,3.37a6.6,6.6,0,0,1,4.74,1.8,6,6,0,0,1,1.9,4.52,5.89,5.89,0,0,1-1.91,4.49A6.79,6.79,0,0,1,157,16a6.42,6.42,0,0,1-4.63-1.78,5.94,5.94,0,0,1-1.84-4.46,6.07,6.07,0,0,1,1.86-4.55A6.49,6.49,0,0,1,157,3.37ZM157.12,5a4.81,4.81,0,0,0-3.47,1.31,4.53,4.53,0,0,0-1.36,3.37A4.43,4.43,0,0,0,153.66,13a5.06,5.06,0,0,0,6.83,0,4.49,4.49,0,0,0,1.38-3.35,4.38,4.38,0,0,0-1.38-3.28A4.64,4.64,0,0,0,157.12,5Z"/><path class="cls-1" d="M186.84,9.77H191V15a11.32,11.32,0,0,1-4.5,1,6.68,6.68,0,0,1-4.88-1.78,5.92,5.92,0,0,1-1.82-4.39,6.12,6.12,0,0,1,1.89-4.58,6.54,6.54,0,0,1,4.74-1.83,8.37,8.37,0,0,1,2,.23,16,16,0,0,1,2.35.82V6.22A8.62,8.62,0,0,0,186.35,5,4.64,4.64,0,0,0,183,6.32a4.56,4.56,0,0,0-1.38,3.37A4.51,4.51,0,0,0,183,13.1a4.88,4.88,0,0,0,3.55,1.33A8.34,8.34,0,0,0,189,14l.17,0V11.34h-2.36Z"/><path class="cls-1" d="M198.2,3.54h7V5.11H200V8.85h5v1.57h-5v3.82h5.37V15.8H198.2Z"/><path class="cls-1" d="M217.91,3.37a6.6,6.6,0,0,1,4.74,1.8,6,6,0,0,1,1.89,4.52,5.89,5.89,0,0,1-1.91,4.49A6.77,6.77,0,0,1,217.81,16a6.38,6.38,0,0,1-4.62-1.78,5.94,5.94,0,0,1-1.85-4.46,6.07,6.07,0,0,1,1.86-4.55A6.5,6.5,0,0,1,217.91,3.37ZM218,5a4.77,4.77,0,0,0-3.46,1.31,4.49,4.49,0,0,0-1.36,3.37A4.42,4.42,0,0,0,214.52,13a5.08,5.08,0,0,0,6.84,0,4.52,4.52,0,0,0,1.37-3.35,4.41,4.41,0,0,0-1.37-3.28A4.68,4.68,0,0,0,218,5Z"/><path class="cls-1" d="M238,9.77h4.12V15a11.32,11.32,0,0,1-4.5,1,6.65,6.65,0,0,1-4.87-1.78,5.89,5.89,0,0,1-1.83-4.39,6.12,6.12,0,0,1,1.89-4.58,6.54,6.54,0,0,1,4.74-1.83,8.37,8.37,0,0,1,2,.23,15.62,15.62,0,0,1,2.35.82V6.22A8.58,8.58,0,0,0,237.54,5a4.65,4.65,0,0,0-3.4,1.37,4.56,4.56,0,0,0-1.38,3.37,4.51,4.51,0,0,0,1.38,3.41,4.9,4.9,0,0,0,3.55,1.33,8.35,8.35,0,0,0,2.53-.48l.16,0V11.34H238Z"/><path class="cls-1" d="M249.44,15.82V3.54h3.08a4.45,4.45,0,0,1,2.95.92,3.11,3.11,0,0,1,1.1,2.5A3.21,3.21,0,0,1,256,8.82,3.15,3.15,0,0,1,254.49,10,5.11,5.11,0,0,1,255.64,11a19.7,19.7,0,0,1,1.59,2.33c.42.7.77,1.22,1,1.57l.66.88h-2.1l-.53-.81-.11-.15-.34-.48-.54-.9-.59-1a9.86,9.86,0,0,0-1-1.2,4.11,4.11,0,0,0-.82-.65,2.79,2.79,0,0,0-1.23-.19h-.45v5.34ZM251.72,5h-.52V8.91h.67a4.77,4.77,0,0,0,1.83-.23,1.67,1.67,0,0,0,.77-.69,1.92,1.92,0,0,0,.28-1,1.87,1.87,0,0,0-.31-1.05,1.62,1.62,0,0,0-.87-.66A6.18,6.18,0,0,0,251.72,5Z"/><path class="cls-1" d="M268.86,3.47h1.23l5.51,12.35h-1.8l-1.64-3.64h-5.23l-1.54,3.64h-1.8Zm2.58,7.15-2-4.45-1.84,4.45ZM271.57,0l-2,2.64h-1L269.79,0Z"/><path class="cls-1" d="M281.64,3.54h6.55V5.11H283.4V8.53h4.79V10.1H283.4v5.72h-1.76Z"/><path class="cls-1" d="M294.77,3.54h1.76V15.82h-1.76Z"/><path class="cls-1" d="M314.51,13v1.94A9.19,9.19,0,0,1,310.05,16a6.78,6.78,0,0,1-3.49-.83,6,6,0,0,1-2.27-2.27,6.15,6.15,0,0,1-.83-3.14,6,6,0,0,1,1.91-4.51,6.54,6.54,0,0,1,4.71-1.83,11.15,11.15,0,0,1,4.3,1V6.28a8.45,8.45,0,0,0-4.21-1.23,4.87,4.87,0,0,0-3.5,1.34,4.39,4.39,0,0,0-1.39,3.33A4.34,4.34,0,0,0,306.65,13a4.86,4.86,0,0,0,3.5,1.3A7.88,7.88,0,0,0,314.51,13Z"/><path class="cls-1" d="M327.38,3.37a6.6,6.6,0,0,1,4.74,1.8A6,6,0,0,1,334,9.69a5.85,5.85,0,0,1-1.91,4.49A6.77,6.77,0,0,1,327.28,16a6.38,6.38,0,0,1-4.62-1.78,5.94,5.94,0,0,1-1.85-4.46,6.07,6.07,0,0,1,1.86-4.55A6.5,6.5,0,0,1,327.38,3.37ZM327.45,5A4.77,4.77,0,0,0,324,6.35a4.49,4.49,0,0,0-1.36,3.37A4.42,4.42,0,0,0,324,13a5.08,5.08,0,0,0,6.84,0,4.52,4.52,0,0,0,1.37-3.35,4.41,4.41,0,0,0-1.37-3.28A4.66,4.66,0,0,0,327.45,5Z"/></g></g></svg>